<?xml version="1.0" encoding="utf-8" standalone="no"?>
<!DOCTYPE svg PUBLIC "-//W3C//DTD SVG 1.1//EN"
  "http://www.w3.org/Graphics/SVG/1.1/DTD/svg11.dtd">
<!-- Created with matplotlib (http://matplotlib.org/) -->
<svg height="288pt" version="1.1" viewBox="0 0 432 288" width="432pt" xmlns="http://www.w3.org/2000/svg" xmlns:xlink="http://www.w3.org/1999/xlink">
 <defs>
  <style type="text/css">
*{stroke-linecap:butt;stroke-linejoin:round;}
  </style>
 </defs>
 <g id="figure_1">
  <g id="patch_1">
   <path d="M 0 288 
L 432 288 
L 432 0 
L 0 0 
z
" style="fill:none;"/>
  </g>
  <g id="axes_1">
   <g id="patch_2">
    <path d="M 42.448 231.052 
L 415.152 231.052 
L 415.152 34.848 
L 42.448 34.848 
z
" style="fill:none;"/>
   </g>
   <g id="matplotlib.axis_1">
    <g id="xtick_1">
     <g id="line2d_1">
      <path clip-path="url(#paa59d71948)" d="M 59.389091 231.052 
L 59.389091 34.848 
" style="fill:none;stroke:#999999;stroke-linecap:round;stroke-width:1.3;"/>
     </g>
     <g id="line2d_2"/>
     <g id="text_1">
      <!-- 0 -->
      <defs>
       <path d="M 31.78125 66.40625 
Q 24.171875 66.40625 20.328125 58.90625 
Q 16.5 51.421875 16.5 36.375 
Q 16.5 21.390625 20.328125 13.890625 
Q 24.171875 6.390625 31.78125 6.390625 
Q 39.453125 6.390625 43.28125 13.890625 
Q 47.125 21.390625 47.125 36.375 
Q 47.125 51.421875 43.28125 58.90625 
Q 39.453125 66.40625 31.78125 66.40625 
z
M 31.78125 74.21875 
Q 44.046875 74.21875 50.515625 64.515625 
Q 56.984375 54.828125 56.984375 36.375 
Q 56.984375 17.96875 50.515625 8.265625 
Q 44.046875 -1.421875 31.78125 -1.421875 
Q 19.53125 -1.421875 13.0625 8.265625 
Q 6.59375 17.96875 6.59375 36.375 
Q 6.59375 54.828125 13.0625 64.515625 
Q 19.53125 74.21875 31.78125 74.21875 
z
" id="DejaVuSans-30"/>
      </defs>
      <g style="fill:#262626;" transform="translate(55.253466 250.029969)scale(0.13 -0.13)">
       <use xlink:href="#DejaVuSans-30"/>
      </g>
     </g>
    </g>
    <g id="xtick_2">
     <g id="line2d_3">
      <path clip-path="url(#paa59d71948)" d="M 127.153455 231.052 
L 127.153455 34.848 
" style="fill:none;stroke:#999999;stroke-linecap:round;stroke-width:1.3;"/>
     </g>
     <g id="line2d_4"/>
     <g id="text_2">
      <!-- 20 -->
      <defs>
       <path d="M 19.1875 8.296875 
L 53.609375 8.296875 
L 53.609375 0 
L 7.328125 0 
L 7.328125 8.296875 
Q 12.9375 14.109375 22.625 23.890625 
Q 32.328125 33.6875 34.8125 36.53125 
Q 39.546875 41.84375 41.421875 45.53125 
Q 43.3125 49.21875 43.3125 52.78125 
Q 43.3125 58.59375 39.234375 62.25 
Q 35.15625 65.921875 28.609375 65.921875 
Q 23.96875 65.921875 18.8125 64.3125 
Q 13.671875 62.703125 7.8125 59.421875 
L 7.8125 69.390625 
Q 13.765625 71.78125 18.9375 73 
Q 24.125 74.21875 28.421875 74.21875 
Q 39.75 74.21875 46.484375 68.546875 
Q 53.21875 62.890625 53.21875 53.421875 
Q 53.21875 48.921875 51.53125 44.890625 
Q 49.859375 40.875 45.40625 35.40625 
Q 44.1875 33.984375 37.640625 27.21875 
Q 31.109375 20.453125 19.1875 8.296875 
z
" id="DejaVuSans-32"/>
      </defs>
      <g style="fill:#262626;" transform="translate(118.882205 250.029969)scale(0.13 -0.13)">
       <use xlink:href="#DejaVuSans-32"/>
       <use x="63.623047" xlink:href="#DejaVuSans-30"/>
      </g>
     </g>
    </g>
    <g id="xtick_3">
     <g id="line2d_5">
      <path clip-path="url(#paa59d71948)" d="M 194.917818 231.052 
L 194.917818 34.848 
" style="fill:none;stroke:#999999;stroke-linecap:round;stroke-width:1.3;"/>
     </g>
     <g id="line2d_6"/>
     <g id="text_3">
      <!-- 40 -->
      <defs>
       <path d="M 37.796875 64.3125 
L 12.890625 25.390625 
L 37.796875 25.390625 
z
M 35.203125 72.90625 
L 47.609375 72.90625 
L 47.609375 25.390625 
L 58.015625 25.390625 
L 58.015625 17.1875 
L 47.609375 17.1875 
L 47.609375 0 
L 37.796875 0 
L 37.796875 17.1875 
L 4.890625 17.1875 
L 4.890625 26.703125 
z
" id="DejaVuSans-34"/>
      </defs>
      <g style="fill:#262626;" transform="translate(186.646568 250.029969)scale(0.13 -0.13)">
       <use xlink:href="#DejaVuSans-34"/>
       <use x="63.623047" xlink:href="#DejaVuSans-30"/>
      </g>
     </g>
    </g>
    <g id="xtick_4">
     <g id="line2d_7">
      <path clip-path="url(#paa59d71948)" d="M 262.682182 231.052 
L 262.682182 34.848 
" style="fill:none;stroke:#999999;stroke-linecap:round;stroke-width:1.3;"/>
     </g>
     <g id="line2d_8"/>
     <g id="text_4">
      <!-- 60 -->
      <defs>
       <path d="M 33.015625 40.375 
Q 26.375 40.375 22.484375 35.828125 
Q 18.609375 31.296875 18.609375 23.390625 
Q 18.609375 15.53125 22.484375 10.953125 
Q 26.375 6.390625 33.015625 6.390625 
Q 39.65625 6.390625 43.53125 10.953125 
Q 47.40625 15.53125 47.40625 23.390625 
Q 47.40625 31.296875 43.53125 35.828125 
Q 39.65625 40.375 33.015625 40.375 
z
M 52.59375 71.296875 
L 52.59375 62.3125 
Q 48.875 64.0625 45.09375 64.984375 
Q 41.3125 65.921875 37.59375 65.921875 
Q 27.828125 65.921875 22.671875 59.328125 
Q 17.53125 52.734375 16.796875 39.40625 
Q 19.671875 43.65625 24.015625 45.921875 
Q 28.375 48.1875 33.59375 48.1875 
Q 44.578125 48.1875 50.953125 41.515625 
Q 57.328125 34.859375 57.328125 23.390625 
Q 57.328125 12.15625 50.6875 5.359375 
Q 44.046875 -1.421875 33.015625 -1.421875 
Q 20.359375 -1.421875 13.671875 8.265625 
Q 6.984375 17.96875 6.984375 36.375 
Q 6.984375 53.65625 15.1875 63.9375 
Q 23.390625 74.21875 37.203125 74.21875 
Q 40.921875 74.21875 44.703125 73.484375 
Q 48.484375 72.75 52.59375 71.296875 
z
" id="DejaVuSans-36"/>
      </defs>
      <g style="fill:#262626;" transform="translate(254.410932 250.029969)scale(0.13 -0.13)">
       <use xlink:href="#DejaVuSans-36"/>
       <use x="63.623047" xlink:href="#DejaVuSans-30"/>
      </g>
     </g>
    </g>
    <g id="xtick_5">
     <g id="line2d_9">
      <path clip-path="url(#paa59d71948)" d="M 330.446545 231.052 
L 330.446545 34.848 
" style="fill:none;stroke:#999999;stroke-linecap:round;stroke-width:1.3;"/>
     </g>
     <g id="line2d_10"/>
     <g id="text_5">
      <!-- 80 -->
      <defs>
       <path d="M 31.78125 34.625 
Q 24.75 34.625 20.71875 30.859375 
Q 16.703125 27.09375 16.703125 20.515625 
Q 16.703125 13.921875 20.71875 10.15625 
Q 24.75 6.390625 31.78125 6.390625 
Q 38.8125 6.390625 42.859375 10.171875 
Q 46.921875 13.96875 46.921875 20.515625 
Q 46.921875 27.09375 42.890625 30.859375 
Q 38.875 34.625 31.78125 34.625 
z
M 21.921875 38.8125 
Q 15.578125 40.375 12.03125 44.71875 
Q 8.5 49.078125 8.5 55.328125 
Q 8.5 64.0625 14.71875 69.140625 
Q 20.953125 74.21875 31.78125 74.21875 
Q 42.671875 74.21875 48.875 69.140625 
Q 55.078125 64.0625 55.078125 55.328125 
Q 55.078125 49.078125 51.53125 44.71875 
Q 48 40.375 41.703125 38.8125 
Q 48.828125 37.15625 52.796875 32.3125 
Q 56.78125 27.484375 56.78125 20.515625 
Q 56.78125 9.90625 50.3125 4.234375 
Q 43.84375 -1.421875 31.78125 -1.421875 
Q 19.734375 -1.421875 13.25 4.234375 
Q 6.78125 9.90625 6.78125 20.515625 
Q 6.78125 27.484375 10.78125 32.3125 
Q 14.796875 37.15625 21.921875 38.8125 
z
M 18.3125 54.390625 
Q 18.3125 48.734375 21.84375 45.5625 
Q 25.390625 42.390625 31.78125 42.390625 
Q 38.140625 42.390625 41.71875 45.5625 
Q 45.3125 48.734375 45.3125 54.390625 
Q 45.3125 60.0625 41.71875 63.234375 
Q 38.140625 66.40625 31.78125 66.40625 
Q 25.390625 66.40625 21.84375 63.234375 
Q 18.3125 60.0625 18.3125 54.390625 
z
" id="DejaVuSans-38"/>
      </defs>
      <g style="fill:#262626;" transform="translate(322.175295 250.029969)scale(0.13 -0.13)">
       <use xlink:href="#DejaVuSans-38"/>
       <use x="63.623047" xlink:href="#DejaVuSans-30"/>
      </g>
     </g>
    </g>
    <g id="xtick_6">
     <g id="line2d_11">
      <path clip-path="url(#paa59d71948)" d="M 398.210909 231.052 
L 398.210909 34.848 
" style="fill:none;stroke:#999999;stroke-linecap:round;stroke-width:1.3;"/>
     </g>
     <g id="line2d_12"/>
     <g id="text_6">
      <!-- 100 -->
      <defs>
       <path d="M 12.40625 8.296875 
L 28.515625 8.296875 
L 28.515625 63.921875 
L 10.984375 60.40625 
L 10.984375 69.390625 
L 28.421875 72.90625 
L 38.28125 72.90625 
L 38.28125 8.296875 
L 54.390625 8.296875 
L 54.390625 0 
L 12.40625 0 
z
" id="DejaVuSans-31"/>
      </defs>
      <g style="fill:#262626;" transform="translate(385.804034 250.029969)scale(0.13 -0.13)">
       <use xlink:href="#DejaVuSans-31"/>
       <use x="63.623047" xlink:href="#DejaVuSans-30"/>
       <use x="127.246094" xlink:href="#DejaVuSans-30"/>
      </g>
     </g>
    </g>
    <g id="text_7">
     <!-- Iteration -->
     <defs>
      <path d="M 9.8125 72.90625 
L 19.671875 72.90625 
L 19.671875 0 
L 9.8125 0 
z
" id="DejaVuSans-49"/>
      <path d="M 18.3125 70.21875 
L 18.3125 54.6875 
L 36.8125 54.6875 
L 36.8125 47.703125 
L 18.3125 47.703125 
L 18.3125 18.015625 
Q 18.3125 11.328125 20.140625 9.421875 
Q 21.96875 7.515625 27.59375 7.515625 
L 36.8125 7.515625 
L 36.8125 0 
L 27.59375 0 
Q 17.1875 0 13.234375 3.875 
Q 9.28125 7.765625 9.28125 18.015625 
L 9.28125 47.703125 
L 2.6875 47.703125 
L 2.6875 54.6875 
L 9.28125 54.6875 
L 9.28125 70.21875 
z
" id="DejaVuSans-74"/>
      <path d="M 56.203125 29.59375 
L 56.203125 25.203125 
L 14.890625 25.203125 
Q 15.484375 15.921875 20.484375 11.0625 
Q 25.484375 6.203125 34.421875 6.203125 
Q 39.59375 6.203125 44.453125 7.46875 
Q 49.3125 8.734375 54.109375 11.28125 
L 54.109375 2.78125 
Q 49.265625 0.734375 44.1875 -0.34375 
Q 39.109375 -1.421875 33.890625 -1.421875 
Q 20.796875 -1.421875 13.15625 6.1875 
Q 5.515625 13.8125 5.515625 26.8125 
Q 5.515625 40.234375 12.765625 48.109375 
Q 20.015625 56 32.328125 56 
Q 43.359375 56 49.78125 48.890625 
Q 56.203125 41.796875 56.203125 29.59375 
z
M 47.21875 32.234375 
Q 47.125 39.59375 43.09375 43.984375 
Q 39.0625 48.390625 32.421875 48.390625 
Q 24.90625 48.390625 20.390625 44.140625 
Q 15.875 39.890625 15.1875 32.171875 
z
" id="DejaVuSans-65"/>
      <path d="M 41.109375 46.296875 
Q 39.59375 47.171875 37.8125 47.578125 
Q 36.03125 48 33.890625 48 
Q 26.265625 48 22.1875 43.046875 
Q 18.109375 38.09375 18.109375 28.8125 
L 18.109375 0 
L 9.078125 0 
L 9.078125 54.6875 
L 18.109375 54.6875 
L 18.109375 46.1875 
Q 20.953125 51.171875 25.484375 53.578125 
Q 30.03125 56 36.53125 56 
Q 37.453125 56 38.578125 55.875 
Q 39.703125 55.765625 41.0625 55.515625 
z
" id="DejaVuSans-72"/>
      <path d="M 34.28125 27.484375 
Q 23.390625 27.484375 19.1875 25 
Q 14.984375 22.515625 14.984375 16.5 
Q 14.984375 11.71875 18.140625 8.90625 
Q 21.296875 6.109375 26.703125 6.109375 
Q 34.1875 6.109375 38.703125 11.40625 
Q 43.21875 16.703125 43.21875 25.484375 
L 43.21875 27.484375 
z
M 52.203125 31.203125 
L 52.203125 0 
L 43.21875 0 
L 43.21875 8.296875 
Q 40.140625 3.328125 35.546875 0.953125 
Q 30.953125 -1.421875 24.3125 -1.421875 
Q 15.921875 -1.421875 10.953125 3.296875 
Q 6 8.015625 6 15.921875 
Q 6 25.140625 12.171875 29.828125 
Q 18.359375 34.515625 30.609375 34.515625 
L 43.21875 34.515625 
L 43.21875 35.40625 
Q 43.21875 41.609375 39.140625 45 
Q 35.0625 48.390625 27.6875 48.390625 
Q 23 48.390625 18.546875 47.265625 
Q 14.109375 46.140625 10.015625 43.890625 
L 10.015625 52.203125 
Q 14.9375 54.109375 19.578125 55.046875 
Q 24.21875 56 28.609375 56 
Q 40.484375 56 46.34375 49.84375 
Q 52.203125 43.703125 52.203125 31.203125 
z
" id="DejaVuSans-61"/>
      <path d="M 9.421875 54.6875 
L 18.40625 54.6875 
L 18.40625 0 
L 9.421875 0 
z
M 9.421875 75.984375 
L 18.40625 75.984375 
L 18.40625 64.59375 
L 9.421875 64.59375 
z
" id="DejaVuSans-69"/>
      <path d="M 30.609375 48.390625 
Q 23.390625 48.390625 19.1875 42.75 
Q 14.984375 37.109375 14.984375 27.296875 
Q 14.984375 17.484375 19.15625 11.84375 
Q 23.34375 6.203125 30.609375 6.203125 
Q 37.796875 6.203125 41.984375 11.859375 
Q 46.1875 17.53125 46.1875 27.296875 
Q 46.1875 37.015625 41.984375 42.703125 
Q 37.796875 48.390625 30.609375 48.390625 
z
M 30.609375 56 
Q 42.328125 56 49.015625 48.375 
Q 55.71875 40.765625 55.71875 27.296875 
Q 55.71875 13.875 49.015625 6.21875 
Q 42.328125 -1.421875 30.609375 -1.421875 
Q 18.84375 -1.421875 12.171875 6.21875 
Q 5.515625 13.875 5.515625 27.296875 
Q 5.515625 40.765625 12.171875 48.375 
Q 18.84375 56 30.609375 56 
z
" id="DejaVuSans-6f"/>
      <path d="M 54.890625 33.015625 
L 54.890625 0 
L 45.90625 0 
L 45.90625 32.71875 
Q 45.90625 40.484375 42.875 44.328125 
Q 39.84375 48.1875 33.796875 48.1875 
Q 26.515625 48.1875 22.3125 43.546875 
Q 18.109375 38.921875 18.109375 30.90625 
L 18.109375 0 
L 9.078125 0 
L 9.078125 54.6875 
L 18.109375 54.6875 
L 18.109375 46.1875 
Q 21.34375 51.125 25.703125 53.5625 
Q 30.078125 56 35.796875 56 
Q 45.21875 56 50.046875 50.171875 
Q 54.890625 44.34375 54.890625 33.015625 
z
" id="DejaVuSans-6e"/>
     </defs>
     <g style="fill:#262626;" transform="translate(198.471711 267.599328)scale(0.143 -0.143)">
      <use xlink:href="#DejaVuSans-49"/>
      <use x="29.492188" xlink:href="#DejaVuSans-74"/>
      <use x="68.701172" xlink:href="#DejaVuSans-65"/>
      <use x="130.224609" xlink:href="#DejaVuSans-72"/>
      <use x="171.337891" xlink:href="#DejaVuSans-61"/>
      <use x="232.617188" xlink:href="#DejaVuSans-74"/>
      <use x="271.826172" xlink:href="#DejaVuSans-69"/>
      <use x="299.609375" xlink:href="#DejaVuSans-6f"/>
      <use x="360.791016" xlink:href="#DejaVuSans-6e"/>
     </g>
    </g>
   </g>
   <g id="matplotlib.axis_2">
    <g id="text_8">
     <!-- $\|\| x_k - x^* \|\|^2$ -->
     <defs>
      <path d="M 21 76.421875 
L 21 -23.578125 
L 12.703125 -23.578125 
L 12.703125 76.421875 
z
" id="DejaVuSans-7c"/>
      <path d="M 60.015625 54.6875 
L 34.90625 27.875 
L 50.296875 0 
L 39.984375 0 
L 28.421875 21.6875 
L 8.296875 0 
L -2.59375 0 
L 24.3125 28.8125 
L 10.015625 54.6875 
L 20.3125 54.6875 
L 30.8125 34.90625 
L 49.125 54.6875 
z
" id="DejaVuSans-Oblique-78"/>
      <path d="M 18.3125 75.984375 
L 27.296875 75.984375 
L 18.703125 31.6875 
L 49.515625 54.6875 
L 61.1875 54.6875 
L 26.8125 28.515625 
L 51.90625 0 
L 41.015625 0 
L 17.671875 26.703125 
L 12.5 0 
L 3.515625 0 
z
" id="DejaVuSans-Oblique-6b"/>
      <path d="M 10.59375 35.5 
L 73.1875 35.5 
L 73.1875 27.203125 
L 10.59375 27.203125 
z
" id="DejaVuSans-2212"/>
      <path d="M 47.015625 60.890625 
L 29.5 51.421875 
L 47.015625 41.890625 
L 44.1875 37.109375 
L 27.78125 47.015625 
L 27.78125 28.609375 
L 22.21875 28.609375 
L 22.21875 47.015625 
L 5.8125 37.109375 
L 2.984375 41.890625 
L 20.515625 51.421875 
L 2.984375 60.890625 
L 5.8125 65.71875 
L 22.21875 55.8125 
L 22.21875 74.21875 
L 27.78125 74.21875 
L 27.78125 55.8125 
L 44.1875 65.71875 
z
" id="DejaVuSans-2a"/>
     </defs>
     <g style="fill:#262626;" transform="translate(35.016 171.3455)rotate(-90)scale(0.143 -0.143)">
      <use transform="translate(0 0.765625)" xlink:href="#DejaVuSans-7c"/>
      <use transform="translate(33.691406 0.765625)" xlink:href="#DejaVuSans-7c"/>
      <use transform="translate(67.382812 0.765625)" xlink:href="#DejaVuSans-Oblique-78"/>
      <use transform="translate(126.5625 -15.640625)scale(0.7)" xlink:href="#DejaVuSans-Oblique-6b"/>
      <use transform="translate(189.316406 0.765625)" xlink:href="#DejaVuSans-2212"/>
      <use transform="translate(292.587891 0.765625)" xlink:href="#DejaVuSans-Oblique-78"/>
      <use transform="translate(369.871419 39.046875)scale(0.7)" xlink:href="#DejaVuSans-2a"/>
      <use transform="translate(421.24349 0.765625)" xlink:href="#DejaVuSans-7c"/>
      <use transform="translate(454.934896 0.765625)" xlink:href="#DejaVuSans-7c"/>
      <use transform="translate(489.583333 39.046875)scale(0.7)" xlink:href="#DejaVuSans-32"/>
     </g>
    </g>
   </g>
   <g id="PolyCollection_1">
    <defs>
     <path d="M 59.389091 -236.366399 
L 59.389091 -236.366399 
L 62.777309 -236.366399 
L 66.165527 -237.181311 
L 69.553745 -237.676514 
L 72.941964 -238.342587 
L 76.330182 -239.021052 
L 79.7184 -239.481726 
L 83.106618 -240.30092 
L 86.494836 -240.58527 
L 89.883055 -241.117502 
L 93.271273 -241.44954 
L 96.659491 -242.014449 
L 100.047709 -241.29168 
L 103.435927 -241.760959 
L 106.824145 -242.096647 
L 110.212364 -242.72205 
L 113.600582 -243.705766 
L 116.9888 -244.233636 
L 120.377018 -243.76908 
L 123.765236 -243.10636 
L 127.153455 -242.463333 
L 130.541673 -242.589261 
L 133.929891 -243.373278 
L 137.318109 -243.561181 
L 140.706327 -243.224634 
L 144.094545 -243.448887 
L 147.482764 -242.464622 
L 150.870982 -242.579416 
L 154.2592 -242.007332 
L 157.647418 -240.868606 
L 161.035636 -242.129157 
L 164.423855 -241.958767 
L 167.812073 -243.514777 
L 171.200291 -242.496949 
L 174.588509 -242.05902 
L 177.976727 -242.24741 
L 181.364945 -242.208604 
L 184.753164 -240.966356 
L 188.141382 -241.26716 
L 191.5296 -241.034148 
L 194.917818 -240.970819 
L 198.306036 -239.918474 
L 201.694255 -241.105279 
L 205.082473 -237.774292 
L 208.470691 -237.49197 
L 211.858909 -237.283655 
L 215.247127 -236.553771 
L 218.635345 -236.95516 
L 222.023564 -236.689408 
L 225.411782 -236.851286 
L 228.8 -236.916797 
L 232.188218 -235.515382 
L 235.576436 -235.149541 
L 238.964655 -234.256086 
L 242.352873 -234.097547 
L 245.741091 -233.06868 
L 249.129309 -233.772084 
L 252.517527 -233.590755 
L 255.905745 -232.318018 
L 259.293964 -231.847125 
L 262.682182 -231.793747 
L 266.0704 -229.893735 
L 269.458618 -229.061213 
L 272.846836 -228.644039 
L 276.235055 -226.709171 
L 279.623273 -228.445617 
L 283.011491 -225.67232 
L 286.399709 -225.71983 
L 289.787927 -226.527249 
L 293.176145 -225.449118 
L 296.564364 -226.001885 
L 299.952582 -223.266378 
L 303.3408 -223.83505 
L 306.729018 -223.016686 
L 310.117236 -222.527182 
L 313.505455 -220.268074 
L 316.893673 -220.099307 
L 320.281891 -220.338802 
L 323.670109 -219.253187 
L 327.058327 -218.39282 
L 330.446545 -217.92963 
L 333.834764 -216.004428 
L 337.222982 -217.337593 
L 340.6112 -214.293309 
L 343.999418 -213.173837 
L 347.387636 -211.112196 
L 350.775855 -213.050558 
L 354.164073 -210.159184 
L 357.552291 -211.175487 
L 360.940509 -211.18389 
L 364.328727 -209.350829 
L 367.716945 -207.711479 
L 371.105164 -206.655897 
L 374.493382 -206.319682 
L 377.8816 -205.70634 
L 381.269818 -204.430071 
L 384.658036 -203.567347 
L 388.046255 -202.252804 
L 391.434473 -202.322758 
L 394.822691 -200.483619 
L 398.210909 -200.208158 
L 398.210909 -109.208881 
L 398.210909 -109.208881 
L 394.822691 -108.302623 
L 391.434473 -109.530667 
L 388.046255 -110.838069 
L 384.658036 -113.720842 
L 381.269818 -114.858156 
L 377.8816 -114.852906 
L 374.493382 -115.310121 
L 371.105164 -117.106797 
L 367.716945 -119.622707 
L 364.328727 -120.062405 
L 360.940509 -122.004636 
L 357.552291 -122.403883 
L 354.164073 -124.158104 
L 350.775855 -124.737748 
L 347.387636 -125.939545 
L 343.999418 -128.078914 
L 340.6112 -130.101832 
L 337.222982 -133.964886 
L 333.834764 -137.85348 
L 330.446545 -139.151647 
L 327.058327 -140.61154 
L 323.670109 -141.132983 
L 320.281891 -143.283323 
L 316.893673 -143.358604 
L 313.505455 -143.086776 
L 310.117236 -144.411241 
L 306.729018 -144.835892 
L 303.3408 -146.20006 
L 299.952582 -148.98659 
L 296.564364 -148.744333 
L 293.176145 -150.708099 
L 289.787927 -150.849782 
L 286.399709 -151.123029 
L 283.011491 -151.509492 
L 279.623273 -154.209513 
L 276.235055 -155.231172 
L 272.846836 -158.413213 
L 269.458618 -159.294864 
L 266.0704 -159.623479 
L 262.682182 -159.386892 
L 259.293964 -161.888314 
L 255.905745 -162.344125 
L 252.517527 -161.882182 
L 249.129309 -163.318579 
L 245.741091 -169.154744 
L 242.352873 -169.209895 
L 238.964655 -169.875175 
L 235.576436 -173.041106 
L 232.188218 -173.033419 
L 228.8 -174.993877 
L 225.411782 -176.180103 
L 222.023564 -177.623426 
L 218.635345 -181.305242 
L 215.247127 -182.901899 
L 211.858909 -186.375141 
L 208.470691 -187.246155 
L 205.082473 -186.82904 
L 201.694255 -188.213434 
L 198.306036 -189.909666 
L 194.917818 -189.440381 
L 191.5296 -190.317701 
L 188.141382 -192.920259 
L 184.753164 -193.399646 
L 181.364945 -194.595824 
L 177.976727 -197.638867 
L 174.588509 -198.826778 
L 171.200291 -199.994813 
L 167.812073 -201.305636 
L 164.423855 -203.558992 
L 161.035636 -205.405435 
L 157.647418 -205.877206 
L 154.2592 -205.63402 
L 150.870982 -205.933089 
L 147.482764 -208.216535 
L 144.094545 -210.013761 
L 140.706327 -210.843497 
L 137.318109 -211.599904 
L 133.929891 -212.425107 
L 130.541673 -212.596312 
L 127.153455 -213.627414 
L 123.765236 -215.391071 
L 120.377018 -215.382682 
L 116.9888 -217.267666 
L 113.600582 -218.721861 
L 110.212364 -219.593539 
L 106.824145 -222.016165 
L 103.435927 -222.057572 
L 100.047709 -224.18719 
L 96.659491 -225.216202 
L 93.271273 -226.42167 
L 89.883055 -228.027139 
L 86.494836 -228.890332 
L 83.106618 -230.426281 
L 79.7184 -230.834182 
L 76.330182 -232.567442 
L 72.941964 -232.991511 
L 69.553745 -233.912349 
L 66.165527 -234.993024 
L 62.777309 -236.366399 
L 59.389091 -236.366399 
z
" id="me30da1a304" style="stroke:#1f77b4;stroke-opacity:0.2;stroke-width:0.39;"/>
    </defs>
    <g clip-path="url(#paa59d71948)">
     <use style="fill:#1f77b4;fill-opacity:0.2;stroke:#1f77b4;stroke-opacity:0.2;stroke-width:0.39;" x="0" xlink:href="#me30da1a304" y="288"/>
    </g>
   </g>
   <g id="PolyCollection_2">
    <defs>
     <path d="M 59.389091 -236.366399 
L 59.389091 -236.366399 
L 62.777309 -239.2826 
L 66.165527 -239.888193 
L 69.553745 -239.65782 
L 72.941964 -240.105628 
L 76.330182 -239.210525 
L 79.7184 -238.979731 
L 83.106618 -239.376459 
L 86.494836 -237.514595 
L 89.883055 -237.250216 
L 93.271273 -237.003312 
L 96.659491 -235.266941 
L 100.047709 -234.549845 
L 103.435927 -232.90765 
L 106.824145 -233.534953 
L 110.212364 -233.163571 
L 113.600582 -231.020489 
L 116.9888 -229.986844 
L 120.377018 -227.909935 
L 123.765236 -226.900168 
L 127.153455 -226.439636 
L 130.541673 -226.660064 
L 133.929891 -224.961599 
L 137.318109 -223.721657 
L 140.706327 -222.595961 
L 144.094545 -220.505177 
L 147.482764 -220.344271 
L 150.870982 -219.893089 
L 154.2592 -219.777168 
L 157.647418 -219.362383 
L 161.035636 -217.31152 
L 164.423855 -215.962489 
L 167.812073 -215.576816 
L 171.200291 -213.924203 
L 174.588509 -213.806663 
L 177.976727 -211.587277 
L 181.364945 -211.24638 
L 184.753164 -210.638236 
L 188.141382 -210.027998 
L 191.5296 -210.15816 
L 194.917818 -209.348923 
L 198.306036 -209.078357 
L 201.694255 -207.182493 
L 205.082473 -206.71527 
L 208.470691 -204.247906 
L 211.858909 -203.042971 
L 215.247127 -201.90136 
L 218.635345 -200.803716 
L 222.023564 -197.075194 
L 225.411782 -197.743959 
L 228.8 -195.755549 
L 232.188218 -195.470384 
L 235.576436 -195.706039 
L 238.964655 -195.619662 
L 242.352873 -194.228848 
L 245.741091 -193.763849 
L 249.129309 -191.745939 
L 252.517527 -190.328925 
L 255.905745 -190.474528 
L 259.293964 -188.841658 
L 262.682182 -187.704338 
L 266.0704 -188.555302 
L 269.458618 -185.539683 
L 272.846836 -183.672271 
L 276.235055 -184.992232 
L 279.623273 -183.275434 
L 283.011491 -182.371703 
L 286.399709 -182.44866 
L 289.787927 -179.95167 
L 293.176145 -179.720588 
L 296.564364 -177.624558 
L 299.952582 -176.146942 
L 303.3408 -174.394676 
L 306.729018 -173.319283 
L 310.117236 -172.319444 
L 313.505455 -172.64594 
L 316.893673 -172.216032 
L 320.281891 -172.102691 
L 323.670109 -172.249412 
L 327.058327 -170.550327 
L 330.446545 -169.745575 
L 333.834764 -169.430471 
L 337.222982 -168.864391 
L 340.6112 -167.625206 
L 343.999418 -167.325862 
L 347.387636 -166.751264 
L 350.775855 -166.622623 
L 354.164073 -166.398785 
L 357.552291 -165.925383 
L 360.940509 -164.872662 
L 364.328727 -162.830358 
L 367.716945 -161.943113 
L 371.105164 -162.097369 
L 374.493382 -161.371542 
L 377.8816 -159.634962 
L 381.269818 -158.813519 
L 384.658036 -159.610889 
L 388.046255 -157.385685 
L 391.434473 -153.1977 
L 394.822691 -153.71055 
L 398.210909 -153.677663 
L 398.210909 -66.632844 
L 398.210909 -66.632844 
L 394.822691 -65.866364 
L 391.434473 -69.448883 
L 388.046255 -67.705778 
L 384.658036 -70.177712 
L 381.269818 -75.16289 
L 377.8816 -75.764017 
L 374.493382 -76.538244 
L 371.105164 -76.538125 
L 367.716945 -78.120162 
L 364.328727 -78.807618 
L 360.940509 -79.228695 
L 357.552291 -82.232008 
L 354.164073 -82.293074 
L 350.775855 -81.306205 
L 347.387636 -85.64196 
L 343.999418 -85.741359 
L 340.6112 -86.110712 
L 337.222982 -86.477717 
L 333.834764 -87.866947 
L 330.446545 -89.209164 
L 327.058327 -89.292449 
L 323.670109 -93.205613 
L 320.281891 -93.219139 
L 316.893673 -95.119448 
L 313.505455 -94.698096 
L 310.117236 -98.319929 
L 306.729018 -99.26707 
L 303.3408 -100.522774 
L 299.952582 -100.471149 
L 296.564364 -102.756901 
L 293.176145 -102.842639 
L 289.787927 -102.696189 
L 286.399709 -103.633141 
L 283.011491 -105.183231 
L 279.623273 -106.077954 
L 276.235055 -106.686396 
L 272.846836 -107.497038 
L 269.458618 -108.935923 
L 266.0704 -112.515665 
L 262.682182 -112.01259 
L 259.293964 -113.876325 
L 255.905745 -115.082041 
L 252.517527 -117.463145 
L 249.129309 -116.151813 
L 245.741091 -119.572444 
L 242.352873 -118.458819 
L 238.964655 -121.669732 
L 235.576436 -122.96514 
L 232.188218 -123.835878 
L 228.8 -125.503599 
L 225.411782 -126.512337 
L 222.023564 -126.525057 
L 218.635345 -128.372453 
L 215.247127 -131.286975 
L 211.858909 -131.978854 
L 208.470691 -132.937427 
L 205.082473 -133.714167 
L 201.694255 -135.552201 
L 198.306036 -137.276524 
L 194.917818 -139.272454 
L 191.5296 -139.662826 
L 188.141382 -140.430603 
L 184.753164 -140.951553 
L 181.364945 -143.264598 
L 177.976727 -144.547504 
L 174.588509 -146.976373 
L 171.200291 -146.708984 
L 167.812073 -146.662489 
L 164.423855 -149.510545 
L 161.035636 -150.590797 
L 157.647418 -150.292824 
L 154.2592 -151.538307 
L 150.870982 -155.662454 
L 147.482764 -157.436326 
L 144.094545 -159.99433 
L 140.706327 -160.013518 
L 137.318109 -162.273562 
L 133.929891 -162.808799 
L 130.541673 -166.323696 
L 127.153455 -168.604358 
L 123.765236 -173.681289 
L 120.377018 -175.969009 
L 116.9888 -177.50785 
L 113.600582 -179.016802 
L 110.212364 -181.528075 
L 106.824145 -185.127667 
L 103.435927 -186.774954 
L 100.047709 -189.091892 
L 96.659491 -193.236224 
L 93.271273 -195.183097 
L 89.883055 -195.395459 
L 86.494836 -200.769036 
L 83.106618 -203.255748 
L 79.7184 -207.289019 
L 76.330182 -211.103022 
L 72.941964 -215.344855 
L 69.553745 -217.08031 
L 66.165527 -220.849523 
L 62.777309 -222.972522 
L 59.389091 -236.366399 
z
" id="mf52e60656e" style="stroke:#ff7f0e;stroke-opacity:0.2;stroke-width:0.39;"/>
    </defs>
    <g clip-path="url(#paa59d71948)">
     <use style="fill:#ff7f0e;fill-opacity:0.2;stroke:#ff7f0e;stroke-opacity:0.2;stroke-width:0.39;" x="0" xlink:href="#mf52e60656e" y="288"/>
    </g>
   </g>
   <g id="line2d_13">
    <path clip-path="url(#paa59d71948)" d="M 59.389091 51.633601 
L 62.777309 51.633601 
L 66.165527 51.636002 
L 69.553745 51.699195 
L 72.941964 51.878374 
L 76.330182 52.003167 
L 79.7184 52.250632 
L 83.106618 52.488466 
L 86.494836 52.746845 
L 89.883055 52.593863 
L 93.271273 52.727651 
L 96.659491 53.011824 
L 100.047709 53.383568 
L 103.435927 53.745091 
L 106.824145 54.32531 
L 110.212364 54.84491 
L 113.600582 55.212473 
L 116.9888 56.019624 
L 120.377018 56.543935 
L 123.765236 57.131469 
L 127.153455 57.20596 
L 130.541673 58.189721 
L 133.929891 58.420344 
L 137.318109 59.337844 
L 140.706327 59.943201 
L 144.094545 60.34722 
L 147.482764 60.981555 
L 150.870982 61.884772 
L 154.2592 61.878924 
L 157.647418 62.964512 
L 161.035636 62.671526 
L 164.423855 62.826316 
L 167.812073 64.347105 
L 171.200291 64.797091 
L 174.588509 65.251872 
L 177.976727 66.043615 
L 181.364945 66.34176 
L 184.753164 67.175697 
L 188.141382 67.737866 
L 191.5296 68.79118 
L 194.917818 69.612923 
L 198.306036 69.537672 
L 201.694255 69.878114 
L 205.082473 71.204106 
L 208.470691 72.86603 
L 211.858909 74.064419 
L 215.247127 75.081766 
L 218.635345 76.077787 
L 222.023564 76.758708 
L 225.411782 78.382822 
L 228.8 79.748165 
L 232.188218 81.026313 
L 235.576436 81.47941 
L 238.964655 82.36506 
L 242.352873 82.964397 
L 245.741091 83.906804 
L 249.129309 85.414871 
L 252.517527 85.522256 
L 255.905745 86.273413 
L 259.293964 86.942711 
L 262.682182 87.761225 
L 266.0704 89.410246 
L 269.458618 91.289317 
L 272.846836 92.225717 
L 276.235055 93.428423 
L 279.623273 95.662375 
L 283.011491 95.317883 
L 286.399709 96.858545 
L 289.787927 98.531532 
L 293.176145 99.133742 
L 296.564364 100.116368 
L 299.952582 101.08157 
L 303.3408 101.088566 
L 306.729018 101.788114 
L 310.117236 103.09647 
L 313.505455 103.851359 
L 316.893673 104.068084 
L 320.281891 104.701828 
L 323.670109 105.820892 
L 327.058327 107.382148 
L 330.446545 107.892047 
L 333.834764 109.527054 
L 337.222982 110.689789 
L 340.6112 111.123416 
L 343.999418 112.678875 
L 347.387636 114.698701 
L 350.775855 115.656537 
L 354.164073 116.359569 
L 357.552291 116.843191 
L 360.940509 117.460596 
L 364.328727 117.660829 
L 367.716945 118.968626 
L 371.105164 120.825808 
L 374.493382 121.167591 
L 377.8816 122.658665 
L 381.269818 124.026497 
L 384.658036 124.975013 
L 388.046255 126.598745 
L 391.434473 127.533701 
L 394.822691 128.264004 
L 398.210909 129.700133 
" style="fill:none;stroke:#1f77b4;stroke-linecap:round;stroke-width:2.275;"/>
   </g>
   <g id="line2d_14">
    <path clip-path="url(#paa59d71948)" d="M 59.389091 51.633601 
L 62.777309 52.98572 
L 66.165527 54.57129 
L 69.553745 56.043827 
L 72.941964 57.698414 
L 76.330182 59.830785 
L 79.7184 61.095671 
L 83.106618 63.771623 
L 86.494836 65.404229 
L 89.883055 67.528893 
L 93.271273 69.01631 
L 96.659491 70.312403 
L 100.047709 72.111575 
L 103.435927 74.10707 
L 106.824145 76.032842 
L 110.212364 78.425496 
L 113.600582 79.800192 
L 116.9888 80.410674 
L 120.377018 82.16376 
L 123.765236 84.270055 
L 127.153455 85.853319 
L 130.541673 87.550272 
L 133.929891 89.701727 
L 137.318109 91.293244 
L 140.706327 92.378481 
L 144.094545 93.79227 
L 147.482764 94.808677 
L 150.870982 96.145592 
L 154.2592 97.783631 
L 157.647418 99.098238 
L 161.035636 99.703926 
L 164.423855 101.744588 
L 167.812073 103.837661 
L 171.200291 105.128707 
L 174.588509 106.097053 
L 177.976727 107.141164 
L 181.364945 108.501657 
L 184.753164 109.284454 
L 188.141382 110.531074 
L 191.5296 111.427683 
L 194.917818 112.201107 
L 198.306036 114.54327 
L 201.694255 115.604802 
L 205.082473 116.252661 
L 208.470691 116.659766 
L 211.858909 118.579627 
L 215.247127 120.066516 
L 218.635345 120.643079 
L 222.023564 122.019951 
L 225.411782 123.256256 
L 228.8 125.287949 
L 232.188218 126.366883 
L 235.576436 128.054105 
L 238.964655 128.782264 
L 242.352873 129.491846 
L 245.741091 130.41917 
L 249.129309 131.724821 
L 252.517527 133.664216 
L 255.905745 134.682914 
L 259.293964 134.996905 
L 262.682182 137.026952 
L 266.0704 137.975808 
L 269.458618 138.3052 
L 272.846836 139.997427 
L 276.235055 140.799673 
L 279.623273 141.272359 
L 283.011491 142.257751 
L 286.399709 143.627439 
L 289.787927 143.958111 
L 293.176145 145.027869 
L 296.564364 145.459009 
L 299.952582 148.51631 
L 303.3408 149.253037 
L 306.729018 150.167676 
L 310.117236 151.893202 
L 313.505455 152.134977 
L 316.893673 153.159271 
L 320.281891 153.322526 
L 323.670109 153.087199 
L 327.058327 154.110381 
L 330.446545 155.495786 
L 333.834764 156.344886 
L 337.222982 156.854343 
L 340.6112 158.522898 
L 343.999418 159.295254 
L 347.387636 159.728946 
L 350.775855 161.608996 
L 354.164073 162.14331 
L 357.552291 163.626219 
L 360.940509 164.222656 
L 364.328727 165.103309 
L 367.716945 166.089664 
L 371.105164 166.866588 
L 374.493382 167.567128 
L 377.8816 168.16127 
L 381.269818 168.694406 
L 384.658036 168.962921 
L 388.046255 170.163673 
L 391.434473 171.601631 
L 394.822691 172.900506 
L 398.210909 174.220228 
" style="fill:none;stroke:#ff7f0e;stroke-linecap:round;stroke-width:2.275;"/>
   </g>
   <g id="patch_3">
    <path d="M 42.448 231.052 
L 42.448 34.848 
" style="fill:none;stroke:#999999;stroke-linecap:square;stroke-linejoin:miter;"/>
   </g>
   <g id="patch_4">
    <path d="M 415.152 231.052 
L 415.152 34.848 
" style="fill:none;stroke:#999999;stroke-linecap:square;stroke-linejoin:miter;"/>
   </g>
   <g id="patch_5">
    <path d="M 42.448 231.052 
L 415.152 231.052 
" style="fill:none;stroke:#999999;stroke-linecap:square;stroke-linejoin:miter;"/>
   </g>
   <g id="patch_6">
    <path d="M 42.448 34.848 
L 415.152 34.848 
" style="fill:none;stroke:#999999;stroke-linecap:square;stroke-linejoin:miter;"/>
   </g>
   <g id="text_9">
    <!-- Error vs Iteration (Inconsistent Gaussian) -->
    <defs>
     <path d="M 9.8125 72.90625 
L 55.90625 72.90625 
L 55.90625 64.59375 
L 19.671875 64.59375 
L 19.671875 43.015625 
L 54.390625 43.015625 
L 54.390625 34.71875 
L 19.671875 34.71875 
L 19.671875 8.296875 
L 56.78125 8.296875 
L 56.78125 0 
L 9.8125 0 
z
" id="DejaVuSans-45"/>
     <path id="DejaVuSans-20"/>
     <path d="M 2.984375 54.6875 
L 12.5 54.6875 
L 29.59375 8.796875 
L 46.6875 54.6875 
L 56.203125 54.6875 
L 35.6875 0 
L 23.484375 0 
z
" id="DejaVuSans-76"/>
     <path d="M 44.28125 53.078125 
L 44.28125 44.578125 
Q 40.484375 46.53125 36.375 47.5 
Q 32.28125 48.484375 27.875 48.484375 
Q 21.1875 48.484375 17.84375 46.4375 
Q 14.5 44.390625 14.5 40.28125 
Q 14.5 37.15625 16.890625 35.375 
Q 19.28125 33.59375 26.515625 31.984375 
L 29.59375 31.296875 
Q 39.15625 29.25 43.1875 25.515625 
Q 47.21875 21.78125 47.21875 15.09375 
Q 47.21875 7.46875 41.1875 3.015625 
Q 35.15625 -1.421875 24.609375 -1.421875 
Q 20.21875 -1.421875 15.453125 -0.5625 
Q 10.6875 0.296875 5.421875 2 
L 5.421875 11.28125 
Q 10.40625 8.6875 15.234375 7.390625 
Q 20.0625 6.109375 24.8125 6.109375 
Q 31.15625 6.109375 34.5625 8.28125 
Q 37.984375 10.453125 37.984375 14.40625 
Q 37.984375 18.0625 35.515625 20.015625 
Q 33.0625 21.96875 24.703125 23.78125 
L 21.578125 24.515625 
Q 13.234375 26.265625 9.515625 29.90625 
Q 5.8125 33.546875 5.8125 39.890625 
Q 5.8125 47.609375 11.28125 51.796875 
Q 16.75 56 26.8125 56 
Q 31.78125 56 36.171875 55.265625 
Q 40.578125 54.546875 44.28125 53.078125 
z
" id="DejaVuSans-73"/>
     <path d="M 31 75.875 
Q 24.46875 64.65625 21.28125 53.65625 
Q 18.109375 42.671875 18.109375 31.390625 
Q 18.109375 20.125 21.3125 9.0625 
Q 24.515625 -2 31 -13.1875 
L 23.1875 -13.1875 
Q 15.875 -1.703125 12.234375 9.375 
Q 8.59375 20.453125 8.59375 31.390625 
Q 8.59375 42.28125 12.203125 53.3125 
Q 15.828125 64.359375 23.1875 75.875 
z
" id="DejaVuSans-28"/>
     <path d="M 48.78125 52.59375 
L 48.78125 44.1875 
Q 44.96875 46.296875 41.140625 47.34375 
Q 37.3125 48.390625 33.40625 48.390625 
Q 24.65625 48.390625 19.8125 42.84375 
Q 14.984375 37.3125 14.984375 27.296875 
Q 14.984375 17.28125 19.8125 11.734375 
Q 24.65625 6.203125 33.40625 6.203125 
Q 37.3125 6.203125 41.140625 7.25 
Q 44.96875 8.296875 48.78125 10.40625 
L 48.78125 2.09375 
Q 45.015625 0.34375 40.984375 -0.53125 
Q 36.96875 -1.421875 32.421875 -1.421875 
Q 20.0625 -1.421875 12.78125 6.34375 
Q 5.515625 14.109375 5.515625 27.296875 
Q 5.515625 40.671875 12.859375 48.328125 
Q 20.21875 56 33.015625 56 
Q 37.15625 56 41.109375 55.140625 
Q 45.0625 54.296875 48.78125 52.59375 
z
" id="DejaVuSans-63"/>
     <path d="M 59.515625 10.40625 
L 59.515625 29.984375 
L 43.40625 29.984375 
L 43.40625 38.09375 
L 69.28125 38.09375 
L 69.28125 6.78125 
Q 63.578125 2.734375 56.6875 0.65625 
Q 49.8125 -1.421875 42 -1.421875 
Q 24.90625 -1.421875 15.25 8.5625 
Q 5.609375 18.5625 5.609375 36.375 
Q 5.609375 54.25 15.25 64.234375 
Q 24.90625 74.21875 42 74.21875 
Q 49.125 74.21875 55.546875 72.453125 
Q 61.96875 70.703125 67.390625 67.28125 
L 67.390625 56.78125 
Q 61.921875 61.421875 55.765625 63.765625 
Q 49.609375 66.109375 42.828125 66.109375 
Q 29.4375 66.109375 22.71875 58.640625 
Q 16.015625 51.171875 16.015625 36.375 
Q 16.015625 21.625 22.71875 14.15625 
Q 29.4375 6.6875 42.828125 6.6875 
Q 48.046875 6.6875 52.140625 7.59375 
Q 56.25 8.5 59.515625 10.40625 
z
" id="DejaVuSans-47"/>
     <path d="M 8.5 21.578125 
L 8.5 54.6875 
L 17.484375 54.6875 
L 17.484375 21.921875 
Q 17.484375 14.15625 20.5 10.265625 
Q 23.53125 6.390625 29.59375 6.390625 
Q 36.859375 6.390625 41.078125 11.03125 
Q 45.3125 15.671875 45.3125 23.6875 
L 45.3125 54.6875 
L 54.296875 54.6875 
L 54.296875 0 
L 45.3125 0 
L 45.3125 8.40625 
Q 42.046875 3.421875 37.71875 1 
Q 33.40625 -1.421875 27.6875 -1.421875 
Q 18.265625 -1.421875 13.375 4.4375 
Q 8.5 10.296875 8.5 21.578125 
z
M 31.109375 56 
z
" id="DejaVuSans-75"/>
     <path d="M 8.015625 75.875 
L 15.828125 75.875 
Q 23.140625 64.359375 26.78125 53.3125 
Q 30.421875 42.28125 30.421875 31.390625 
Q 30.421875 20.453125 26.78125 9.375 
Q 23.140625 -1.703125 15.828125 -13.1875 
L 8.015625 -13.1875 
Q 14.5 -2 17.703125 9.0625 
Q 20.90625 20.125 20.90625 31.390625 
Q 20.90625 42.671875 17.703125 53.65625 
Q 14.5 64.65625 8.015625 75.875 
z
" id="DejaVuSans-29"/>
    </defs>
    <g style="fill:#262626;" transform="translate(68.530719 28.848)scale(0.156 -0.156)">
     <use xlink:href="#DejaVuSans-45"/>
     <use x="63.183594" xlink:href="#DejaVuSans-72"/>
     <use x="104.28125" xlink:href="#DejaVuSans-72"/>
     <use x="145.363281" xlink:href="#DejaVuSans-6f"/>
     <use x="206.544922" xlink:href="#DejaVuSans-72"/>
     <use x="247.658203" xlink:href="#DejaVuSans-20"/>
     <use x="279.445312" xlink:href="#DejaVuSans-76"/>
     <use x="338.625" xlink:href="#DejaVuSans-73"/>
     <use x="390.724609" xlink:href="#DejaVuSans-20"/>
     <use x="422.511719" xlink:href="#DejaVuSans-49"/>
     <use x="452.003906" xlink:href="#DejaVuSans-74"/>
     <use x="491.212891" xlink:href="#DejaVuSans-65"/>
     <use x="552.736328" xlink:href="#DejaVuSans-72"/>
     <use x="593.849609" xlink:href="#DejaVuSans-61"/>
     <use x="655.128906" xlink:href="#DejaVuSans-74"/>
     <use x="694.337891" xlink:href="#DejaVuSans-69"/>
     <use x="722.121094" xlink:href="#DejaVuSans-6f"/>
     <use x="783.302734" xlink:href="#DejaVuSans-6e"/>
     <use x="846.681641" xlink:href="#DejaVuSans-20"/>
     <use x="878.46875" xlink:href="#DejaVuSans-28"/>
     <use x="917.482422" xlink:href="#DejaVuSans-49"/>
     <use x="946.974609" xlink:href="#DejaVuSans-6e"/>
     <use x="1010.353516" xlink:href="#DejaVuSans-63"/>
     <use x="1065.333984" xlink:href="#DejaVuSans-6f"/>
     <use x="1126.515625" xlink:href="#DejaVuSans-6e"/>
     <use x="1189.894531" xlink:href="#DejaVuSans-73"/>
     <use x="1241.994141" xlink:href="#DejaVuSans-69"/>
     <use x="1269.777344" xlink:href="#DejaVuSans-73"/>
     <use x="1321.876953" xlink:href="#DejaVuSans-74"/>
     <use x="1361.085938" xlink:href="#DejaVuSans-65"/>
     <use x="1422.609375" xlink:href="#DejaVuSans-6e"/>
     <use x="1485.988281" xlink:href="#DejaVuSans-74"/>
     <use x="1525.197266" xlink:href="#DejaVuSans-20"/>
     <use x="1556.984375" xlink:href="#DejaVuSans-47"/>
     <use x="1634.474609" xlink:href="#DejaVuSans-61"/>
     <use x="1695.753906" xlink:href="#DejaVuSans-75"/>
     <use x="1759.132812" xlink:href="#DejaVuSans-73"/>
     <use x="1811.232422" xlink:href="#DejaVuSans-73"/>
     <use x="1863.332031" xlink:href="#DejaVuSans-69"/>
     <use x="1891.115234" xlink:href="#DejaVuSans-61"/>
     <use x="1952.394531" xlink:href="#DejaVuSans-6e"/>
     <use x="2015.773438" xlink:href="#DejaVuSans-29"/>
    </g>
   </g>
   <g id="legend_1">
    <g id="line2d_15">
     <path d="M 325.911062 51.875969 
L 351.911062 51.875969 
" style="fill:none;stroke:#1f77b4;stroke-linecap:round;stroke-width:2.275;"/>
    </g>
    <g id="line2d_16"/>
    <g id="text_10">
     <!-- REK -->
     <defs>
      <path d="M 44.390625 34.1875 
Q 47.5625 33.109375 50.5625 29.59375 
Q 53.5625 26.078125 56.59375 19.921875 
L 66.609375 0 
L 56 0 
L 46.6875 18.703125 
Q 43.0625 26.03125 39.671875 28.421875 
Q 36.28125 30.8125 30.421875 30.8125 
L 19.671875 30.8125 
L 19.671875 0 
L 9.8125 0 
L 9.8125 72.90625 
L 32.078125 72.90625 
Q 44.578125 72.90625 50.734375 67.671875 
Q 56.890625 62.453125 56.890625 51.90625 
Q 56.890625 45.015625 53.6875 40.46875 
Q 50.484375 35.9375 44.390625 34.1875 
z
M 19.671875 64.796875 
L 19.671875 38.921875 
L 32.078125 38.921875 
Q 39.203125 38.921875 42.84375 42.21875 
Q 46.484375 45.515625 46.484375 51.90625 
Q 46.484375 58.296875 42.84375 61.546875 
Q 39.203125 64.796875 32.078125 64.796875 
z
" id="DejaVuSans-52"/>
      <path d="M 9.8125 72.90625 
L 19.671875 72.90625 
L 19.671875 42.09375 
L 52.390625 72.90625 
L 65.09375 72.90625 
L 28.90625 38.921875 
L 67.671875 0 
L 54.6875 0 
L 19.671875 35.109375 
L 19.671875 0 
L 9.8125 0 
z
" id="DejaVuSans-4b"/>
     </defs>
     <g style="fill:#262626;" transform="translate(362.311062 56.425969)scale(0.13 -0.13)">
      <use xlink:href="#DejaVuSans-52"/>
      <use x="69.482422" xlink:href="#DejaVuSans-45"/>
      <use x="132.666016" xlink:href="#DejaVuSans-4b"/>
     </g>
    </g>
    <g id="line2d_17">
     <path d="M 325.911062 70.957531 
L 351.911062 70.957531 
" style="fill:none;stroke:#ff7f0e;stroke-linecap:round;stroke-width:2.275;"/>
    </g>
    <g id="line2d_18"/>
    <g id="text_11">
     <!-- OptRK -->
     <defs>
      <path d="M 39.40625 66.21875 
Q 28.65625 66.21875 22.328125 58.203125 
Q 16.015625 50.203125 16.015625 36.375 
Q 16.015625 22.609375 22.328125 14.59375 
Q 28.65625 6.59375 39.40625 6.59375 
Q 50.140625 6.59375 56.421875 14.59375 
Q 62.703125 22.609375 62.703125 36.375 
Q 62.703125 50.203125 56.421875 58.203125 
Q 50.140625 66.21875 39.40625 66.21875 
z
M 39.40625 74.21875 
Q 54.734375 74.21875 63.90625 63.9375 
Q 73.09375 53.65625 73.09375 36.375 
Q 73.09375 19.140625 63.90625 8.859375 
Q 54.734375 -1.421875 39.40625 -1.421875 
Q 24.03125 -1.421875 14.8125 8.828125 
Q 5.609375 19.09375 5.609375 36.375 
Q 5.609375 53.65625 14.8125 63.9375 
Q 24.03125 74.21875 39.40625 74.21875 
z
" id="DejaVuSans-4f"/>
      <path d="M 18.109375 8.203125 
L 18.109375 -20.796875 
L 9.078125 -20.796875 
L 9.078125 54.6875 
L 18.109375 54.6875 
L 18.109375 46.390625 
Q 20.953125 51.265625 25.265625 53.625 
Q 29.59375 56 35.59375 56 
Q 45.5625 56 51.78125 48.09375 
Q 58.015625 40.1875 58.015625 27.296875 
Q 58.015625 14.40625 51.78125 6.484375 
Q 45.5625 -1.421875 35.59375 -1.421875 
Q 29.59375 -1.421875 25.265625 0.953125 
Q 20.953125 3.328125 18.109375 8.203125 
z
M 48.6875 27.296875 
Q 48.6875 37.203125 44.609375 42.84375 
Q 40.53125 48.484375 33.40625 48.484375 
Q 26.265625 48.484375 22.1875 42.84375 
Q 18.109375 37.203125 18.109375 27.296875 
Q 18.109375 17.390625 22.1875 11.75 
Q 26.265625 6.109375 33.40625 6.109375 
Q 40.53125 6.109375 44.609375 11.75 
Q 48.6875 17.390625 48.6875 27.296875 
z
" id="DejaVuSans-70"/>
     </defs>
     <g style="fill:#262626;" transform="translate(362.311062 75.507531)scale(0.13 -0.13)">
      <use xlink:href="#DejaVuSans-4f"/>
      <use x="78.710938" xlink:href="#DejaVuSans-70"/>
      <use x="142.1875" xlink:href="#DejaVuSans-74"/>
      <use x="181.396484" xlink:href="#DejaVuSans-52"/>
      <use x="250.878906" xlink:href="#DejaVuSans-4b"/>
     </g>
    </g>
   </g>
  </g>
 </g>
 <defs>
  <clipPath id="paa59d71948">
   <rect height="196.204" width="372.704" x="42.448" y="34.848"/>
  </clipPath>
 </defs>
</svg>
