<?xml version="1.0" encoding="utf-8" standalone="no"?>
<!DOCTYPE svg PUBLIC "-//W3C//DTD SVG 1.1//EN"
  "http://www.w3.org/Graphics/SVG/1.1/DTD/svg11.dtd">
<!-- Created with matplotlib (http://matplotlib.org/) -->
<svg height="288pt" version="1.1" viewBox="0 0 432 288" width="432pt" xmlns="http://www.w3.org/2000/svg" xmlns:xlink="http://www.w3.org/1999/xlink">
 <defs>
  <style type="text/css">
*{stroke-linecap:butt;stroke-linejoin:round;}
  </style>
 </defs>
 <g id="figure_1">
  <g id="patch_1">
   <path d="M 0 288 
L 432 288 
L 432 0 
L 0 0 
z
" style="fill:none;"/>
  </g>
  <g id="axes_1">
   <g id="patch_2">
    <path d="M 101.366301 231.052 
L 415.152 231.052 
L 415.152 34.848 
L 101.366301 34.848 
z
" style="fill:none;"/>
   </g>
   <g id="matplotlib.axis_1">
    <g id="xtick_1">
     <g id="line2d_1">
      <path clip-path="url(#p4e021c5759)" d="M 115.629287 231.052 
L 115.629287 34.848 
" style="fill:none;stroke:#999999;stroke-linecap:round;stroke-width:1.3;"/>
     </g>
     <g id="line2d_2"/>
     <g id="text_1">
      <!-- 0 -->
      <defs>
       <path d="M 31.78125 66.40625 
Q 24.171875 66.40625 20.328125 58.90625 
Q 16.5 51.421875 16.5 36.375 
Q 16.5 21.390625 20.328125 13.890625 
Q 24.171875 6.390625 31.78125 6.390625 
Q 39.453125 6.390625 43.28125 13.890625 
Q 47.125 21.390625 47.125 36.375 
Q 47.125 51.421875 43.28125 58.90625 
Q 39.453125 66.40625 31.78125 66.40625 
z
M 31.78125 74.21875 
Q 44.046875 74.21875 50.515625 64.515625 
Q 56.984375 54.828125 56.984375 36.375 
Q 56.984375 17.96875 50.515625 8.265625 
Q 44.046875 -1.421875 31.78125 -1.421875 
Q 19.53125 -1.421875 13.0625 8.265625 
Q 6.59375 17.96875 6.59375 36.375 
Q 6.59375 54.828125 13.0625 64.515625 
Q 19.53125 74.21875 31.78125 74.21875 
z
" id="DejaVuSans-30"/>
      </defs>
      <g style="fill:#262626;" transform="translate(111.493662 250.029969)scale(0.13 -0.13)">
       <use xlink:href="#DejaVuSans-30"/>
      </g>
     </g>
    </g>
    <g id="xtick_2">
     <g id="line2d_3">
      <path clip-path="url(#p4e021c5759)" d="M 186.589418 231.052 
L 186.589418 34.848 
" style="fill:none;stroke:#999999;stroke-linecap:round;stroke-width:1.3;"/>
     </g>
     <g id="line2d_4"/>
     <g id="text_2">
      <!-- 200 -->
      <defs>
       <path d="M 19.1875 8.296875 
L 53.609375 8.296875 
L 53.609375 0 
L 7.328125 0 
L 7.328125 8.296875 
Q 12.9375 14.109375 22.625 23.890625 
Q 32.328125 33.6875 34.8125 36.53125 
Q 39.546875 41.84375 41.421875 45.53125 
Q 43.3125 49.21875 43.3125 52.78125 
Q 43.3125 58.59375 39.234375 62.25 
Q 35.15625 65.921875 28.609375 65.921875 
Q 23.96875 65.921875 18.8125 64.3125 
Q 13.671875 62.703125 7.8125 59.421875 
L 7.8125 69.390625 
Q 13.765625 71.78125 18.9375 73 
Q 24.125 74.21875 28.421875 74.21875 
Q 39.75 74.21875 46.484375 68.546875 
Q 53.21875 62.890625 53.21875 53.421875 
Q 53.21875 48.921875 51.53125 44.890625 
Q 49.859375 40.875 45.40625 35.40625 
Q 44.1875 33.984375 37.640625 27.21875 
Q 31.109375 20.453125 19.1875 8.296875 
z
" id="DejaVuSans-32"/>
      </defs>
      <g style="fill:#262626;" transform="translate(174.182543 250.029969)scale(0.13 -0.13)">
       <use xlink:href="#DejaVuSans-32"/>
       <use x="63.623047" xlink:href="#DejaVuSans-30"/>
       <use x="127.246094" xlink:href="#DejaVuSans-30"/>
      </g>
     </g>
    </g>
    <g id="xtick_3">
     <g id="line2d_5">
      <path clip-path="url(#p4e021c5759)" d="M 257.549549 231.052 
L 257.549549 34.848 
" style="fill:none;stroke:#999999;stroke-linecap:round;stroke-width:1.3;"/>
     </g>
     <g id="line2d_6"/>
     <g id="text_3">
      <!-- 400 -->
      <defs>
       <path d="M 37.796875 64.3125 
L 12.890625 25.390625 
L 37.796875 25.390625 
z
M 35.203125 72.90625 
L 47.609375 72.90625 
L 47.609375 25.390625 
L 58.015625 25.390625 
L 58.015625 17.1875 
L 47.609375 17.1875 
L 47.609375 0 
L 37.796875 0 
L 37.796875 17.1875 
L 4.890625 17.1875 
L 4.890625 26.703125 
z
" id="DejaVuSans-34"/>
      </defs>
      <g style="fill:#262626;" transform="translate(245.142674 250.029969)scale(0.13 -0.13)">
       <use xlink:href="#DejaVuSans-34"/>
       <use x="63.623047" xlink:href="#DejaVuSans-30"/>
       <use x="127.246094" xlink:href="#DejaVuSans-30"/>
      </g>
     </g>
    </g>
    <g id="xtick_4">
     <g id="line2d_7">
      <path clip-path="url(#p4e021c5759)" d="M 328.50968 231.052 
L 328.50968 34.848 
" style="fill:none;stroke:#999999;stroke-linecap:round;stroke-width:1.3;"/>
     </g>
     <g id="line2d_8"/>
     <g id="text_4">
      <!-- 600 -->
      <defs>
       <path d="M 33.015625 40.375 
Q 26.375 40.375 22.484375 35.828125 
Q 18.609375 31.296875 18.609375 23.390625 
Q 18.609375 15.53125 22.484375 10.953125 
Q 26.375 6.390625 33.015625 6.390625 
Q 39.65625 6.390625 43.53125 10.953125 
Q 47.40625 15.53125 47.40625 23.390625 
Q 47.40625 31.296875 43.53125 35.828125 
Q 39.65625 40.375 33.015625 40.375 
z
M 52.59375 71.296875 
L 52.59375 62.3125 
Q 48.875 64.0625 45.09375 64.984375 
Q 41.3125 65.921875 37.59375 65.921875 
Q 27.828125 65.921875 22.671875 59.328125 
Q 17.53125 52.734375 16.796875 39.40625 
Q 19.671875 43.65625 24.015625 45.921875 
Q 28.375 48.1875 33.59375 48.1875 
Q 44.578125 48.1875 50.953125 41.515625 
Q 57.328125 34.859375 57.328125 23.390625 
Q 57.328125 12.15625 50.6875 5.359375 
Q 44.046875 -1.421875 33.015625 -1.421875 
Q 20.359375 -1.421875 13.671875 8.265625 
Q 6.984375 17.96875 6.984375 36.375 
Q 6.984375 53.65625 15.1875 63.9375 
Q 23.390625 74.21875 37.203125 74.21875 
Q 40.921875 74.21875 44.703125 73.484375 
Q 48.484375 72.75 52.59375 71.296875 
z
" id="DejaVuSans-36"/>
      </defs>
      <g style="fill:#262626;" transform="translate(316.102805 250.029969)scale(0.13 -0.13)">
       <use xlink:href="#DejaVuSans-36"/>
       <use x="63.623047" xlink:href="#DejaVuSans-30"/>
       <use x="127.246094" xlink:href="#DejaVuSans-30"/>
      </g>
     </g>
    </g>
    <g id="xtick_5">
     <g id="line2d_9">
      <path clip-path="url(#p4e021c5759)" d="M 399.469811 231.052 
L 399.469811 34.848 
" style="fill:none;stroke:#999999;stroke-linecap:round;stroke-width:1.3;"/>
     </g>
     <g id="line2d_10"/>
     <g id="text_5">
      <!-- 800 -->
      <defs>
       <path d="M 31.78125 34.625 
Q 24.75 34.625 20.71875 30.859375 
Q 16.703125 27.09375 16.703125 20.515625 
Q 16.703125 13.921875 20.71875 10.15625 
Q 24.75 6.390625 31.78125 6.390625 
Q 38.8125 6.390625 42.859375 10.171875 
Q 46.921875 13.96875 46.921875 20.515625 
Q 46.921875 27.09375 42.890625 30.859375 
Q 38.875 34.625 31.78125 34.625 
z
M 21.921875 38.8125 
Q 15.578125 40.375 12.03125 44.71875 
Q 8.5 49.078125 8.5 55.328125 
Q 8.5 64.0625 14.71875 69.140625 
Q 20.953125 74.21875 31.78125 74.21875 
Q 42.671875 74.21875 48.875 69.140625 
Q 55.078125 64.0625 55.078125 55.328125 
Q 55.078125 49.078125 51.53125 44.71875 
Q 48 40.375 41.703125 38.8125 
Q 48.828125 37.15625 52.796875 32.3125 
Q 56.78125 27.484375 56.78125 20.515625 
Q 56.78125 9.90625 50.3125 4.234375 
Q 43.84375 -1.421875 31.78125 -1.421875 
Q 19.734375 -1.421875 13.25 4.234375 
Q 6.78125 9.90625 6.78125 20.515625 
Q 6.78125 27.484375 10.78125 32.3125 
Q 14.796875 37.15625 21.921875 38.8125 
z
M 18.3125 54.390625 
Q 18.3125 48.734375 21.84375 45.5625 
Q 25.390625 42.390625 31.78125 42.390625 
Q 38.140625 42.390625 41.71875 45.5625 
Q 45.3125 48.734375 45.3125 54.390625 
Q 45.3125 60.0625 41.71875 63.234375 
Q 38.140625 66.40625 31.78125 66.40625 
Q 25.390625 66.40625 21.84375 63.234375 
Q 18.3125 60.0625 18.3125 54.390625 
z
" id="DejaVuSans-38"/>
      </defs>
      <g style="fill:#262626;" transform="translate(387.062936 250.029969)scale(0.13 -0.13)">
       <use xlink:href="#DejaVuSans-38"/>
       <use x="63.623047" xlink:href="#DejaVuSans-30"/>
       <use x="127.246094" xlink:href="#DejaVuSans-30"/>
      </g>
     </g>
    </g>
    <g id="text_6">
     <!-- Flops/N -->
     <defs>
      <path d="M 9.8125 72.90625 
L 51.703125 72.90625 
L 51.703125 64.59375 
L 19.671875 64.59375 
L 19.671875 43.109375 
L 48.578125 43.109375 
L 48.578125 34.8125 
L 19.671875 34.8125 
L 19.671875 0 
L 9.8125 0 
z
" id="DejaVuSans-46"/>
      <path d="M 9.421875 75.984375 
L 18.40625 75.984375 
L 18.40625 0 
L 9.421875 0 
z
" id="DejaVuSans-6c"/>
      <path d="M 30.609375 48.390625 
Q 23.390625 48.390625 19.1875 42.75 
Q 14.984375 37.109375 14.984375 27.296875 
Q 14.984375 17.484375 19.15625 11.84375 
Q 23.34375 6.203125 30.609375 6.203125 
Q 37.796875 6.203125 41.984375 11.859375 
Q 46.1875 17.53125 46.1875 27.296875 
Q 46.1875 37.015625 41.984375 42.703125 
Q 37.796875 48.390625 30.609375 48.390625 
z
M 30.609375 56 
Q 42.328125 56 49.015625 48.375 
Q 55.71875 40.765625 55.71875 27.296875 
Q 55.71875 13.875 49.015625 6.21875 
Q 42.328125 -1.421875 30.609375 -1.421875 
Q 18.84375 -1.421875 12.171875 6.21875 
Q 5.515625 13.875 5.515625 27.296875 
Q 5.515625 40.765625 12.171875 48.375 
Q 18.84375 56 30.609375 56 
z
" id="DejaVuSans-6f"/>
      <path d="M 18.109375 8.203125 
L 18.109375 -20.796875 
L 9.078125 -20.796875 
L 9.078125 54.6875 
L 18.109375 54.6875 
L 18.109375 46.390625 
Q 20.953125 51.265625 25.265625 53.625 
Q 29.59375 56 35.59375 56 
Q 45.5625 56 51.78125 48.09375 
Q 58.015625 40.1875 58.015625 27.296875 
Q 58.015625 14.40625 51.78125 6.484375 
Q 45.5625 -1.421875 35.59375 -1.421875 
Q 29.59375 -1.421875 25.265625 0.953125 
Q 20.953125 3.328125 18.109375 8.203125 
z
M 48.6875 27.296875 
Q 48.6875 37.203125 44.609375 42.84375 
Q 40.53125 48.484375 33.40625 48.484375 
Q 26.265625 48.484375 22.1875 42.84375 
Q 18.109375 37.203125 18.109375 27.296875 
Q 18.109375 17.390625 22.1875 11.75 
Q 26.265625 6.109375 33.40625 6.109375 
Q 40.53125 6.109375 44.609375 11.75 
Q 48.6875 17.390625 48.6875 27.296875 
z
" id="DejaVuSans-70"/>
      <path d="M 44.28125 53.078125 
L 44.28125 44.578125 
Q 40.484375 46.53125 36.375 47.5 
Q 32.28125 48.484375 27.875 48.484375 
Q 21.1875 48.484375 17.84375 46.4375 
Q 14.5 44.390625 14.5 40.28125 
Q 14.5 37.15625 16.890625 35.375 
Q 19.28125 33.59375 26.515625 31.984375 
L 29.59375 31.296875 
Q 39.15625 29.25 43.1875 25.515625 
Q 47.21875 21.78125 47.21875 15.09375 
Q 47.21875 7.46875 41.1875 3.015625 
Q 35.15625 -1.421875 24.609375 -1.421875 
Q 20.21875 -1.421875 15.453125 -0.5625 
Q 10.6875 0.296875 5.421875 2 
L 5.421875 11.28125 
Q 10.40625 8.6875 15.234375 7.390625 
Q 20.0625 6.109375 24.8125 6.109375 
Q 31.15625 6.109375 34.5625 8.28125 
Q 37.984375 10.453125 37.984375 14.40625 
Q 37.984375 18.0625 35.515625 20.015625 
Q 33.0625 21.96875 24.703125 23.78125 
L 21.578125 24.515625 
Q 13.234375 26.265625 9.515625 29.90625 
Q 5.8125 33.546875 5.8125 39.890625 
Q 5.8125 47.609375 11.28125 51.796875 
Q 16.75 56 26.8125 56 
Q 31.78125 56 36.171875 55.265625 
Q 40.578125 54.546875 44.28125 53.078125 
z
" id="DejaVuSans-73"/>
      <path d="M 25.390625 72.90625 
L 33.6875 72.90625 
L 8.296875 -9.28125 
L 0 -9.28125 
z
" id="DejaVuSans-2f"/>
      <path d="M 9.8125 72.90625 
L 23.09375 72.90625 
L 55.421875 11.921875 
L 55.421875 72.90625 
L 64.984375 72.90625 
L 64.984375 0 
L 51.703125 0 
L 19.390625 60.984375 
L 19.390625 0 
L 9.8125 0 
z
" id="DejaVuSans-4e"/>
     </defs>
     <g style="fill:#262626;" transform="translate(231.763932 267.599328)scale(0.143 -0.143)">
      <use xlink:href="#DejaVuSans-46"/>
      <use x="57.519531" xlink:href="#DejaVuSans-6c"/>
      <use x="85.302734" xlink:href="#DejaVuSans-6f"/>
      <use x="146.484375" xlink:href="#DejaVuSans-70"/>
      <use x="209.960938" xlink:href="#DejaVuSans-73"/>
      <use x="262.060547" xlink:href="#DejaVuSans-2f"/>
      <use x="295.751953" xlink:href="#DejaVuSans-4e"/>
     </g>
    </g>
   </g>
   <g id="matplotlib.axis_2">
    <g id="ytick_1">
     <g id="line2d_11"/>
     <g id="text_7">
      <!-- $\mathdefault{7\times10^{-7}}$ -->
      <defs>
       <path d="M 8.203125 72.90625 
L 55.078125 72.90625 
L 55.078125 68.703125 
L 28.609375 0 
L 18.3125 0 
L 43.21875 64.59375 
L 8.203125 64.59375 
z
" id="DejaVuSans-37"/>
       <path d="M 70.125 53.71875 
L 47.796875 31.296875 
L 70.125 8.984375 
L 64.3125 3.078125 
L 41.890625 25.484375 
L 19.484375 3.078125 
L 13.71875 8.984375 
L 35.984375 31.296875 
L 13.71875 53.71875 
L 19.484375 59.625 
L 41.890625 37.203125 
L 64.3125 59.625 
z
" id="DejaVuSans-d7"/>
       <path d="M 12.40625 8.296875 
L 28.515625 8.296875 
L 28.515625 63.921875 
L 10.984375 60.40625 
L 10.984375 69.390625 
L 28.421875 72.90625 
L 38.28125 72.90625 
L 38.28125 8.296875 
L 54.390625 8.296875 
L 54.390625 0 
L 12.40625 0 
z
" id="DejaVuSans-31"/>
       <path d="M 10.59375 35.5 
L 73.1875 35.5 
L 73.1875 27.203125 
L 10.59375 27.203125 
z
" id="DejaVuSans-2212"/>
      </defs>
      <g style="fill:#262626;" transform="translate(43.236301 136.154083)scale(0.13 -0.13)">
       <use transform="translate(0 0.684375)" xlink:href="#DejaVuSans-37"/>
       <use transform="translate(83.105469 0.684375)" xlink:href="#DejaVuSans-d7"/>
       <use transform="translate(186.376953 0.684375)" xlink:href="#DejaVuSans-31"/>
       <use transform="translate(250 0.684375)" xlink:href="#DejaVuSans-30"/>
       <use transform="translate(314.580078 38.965625)scale(0.7)" xlink:href="#DejaVuSans-2212"/>
       <use transform="translate(373.232422 38.965625)scale(0.7)" xlink:href="#DejaVuSans-37"/>
      </g>
     </g>
    </g>
    <g id="ytick_2">
     <g id="line2d_12"/>
     <g id="text_8">
      <!-- $\mathdefault{8\times10^{-7}}$ -->
      <g style="fill:#262626;" transform="translate(43.236301 41.629066)scale(0.13 -0.13)">
       <use transform="translate(0 0.684375)" xlink:href="#DejaVuSans-38"/>
       <use transform="translate(83.105469 0.684375)" xlink:href="#DejaVuSans-d7"/>
       <use transform="translate(186.376953 0.684375)" xlink:href="#DejaVuSans-31"/>
       <use transform="translate(250 0.684375)" xlink:href="#DejaVuSans-30"/>
       <use transform="translate(314.580078 38.965625)scale(0.7)" xlink:href="#DejaVuSans-2212"/>
       <use transform="translate(373.232422 38.965625)scale(0.7)" xlink:href="#DejaVuSans-37"/>
      </g>
     </g>
    </g>
    <g id="text_9">
     <!-- $\|\| x_k - x^* \|\|^2$ -->
     <defs>
      <path d="M 21 76.421875 
L 21 -23.578125 
L 12.703125 -23.578125 
L 12.703125 76.421875 
z
" id="DejaVuSans-7c"/>
      <path d="M 60.015625 54.6875 
L 34.90625 27.875 
L 50.296875 0 
L 39.984375 0 
L 28.421875 21.6875 
L 8.296875 0 
L -2.59375 0 
L 24.3125 28.8125 
L 10.015625 54.6875 
L 20.3125 54.6875 
L 30.8125 34.90625 
L 49.125 54.6875 
z
" id="DejaVuSans-Oblique-78"/>
      <path d="M 18.3125 75.984375 
L 27.296875 75.984375 
L 18.703125 31.6875 
L 49.515625 54.6875 
L 61.1875 54.6875 
L 26.8125 28.515625 
L 51.90625 0 
L 41.015625 0 
L 17.671875 26.703125 
L 12.5 0 
L 3.515625 0 
z
" id="DejaVuSans-Oblique-6b"/>
      <path d="M 47.015625 60.890625 
L 29.5 51.421875 
L 47.015625 41.890625 
L 44.1875 37.109375 
L 27.78125 47.015625 
L 27.78125 28.609375 
L 22.21875 28.609375 
L 22.21875 47.015625 
L 5.8125 37.109375 
L 2.984375 41.890625 
L 20.515625 51.421875 
L 2.984375 60.890625 
L 5.8125 65.71875 
L 22.21875 55.8125 
L 22.21875 74.21875 
L 27.78125 74.21875 
L 27.78125 55.8125 
L 44.1875 65.71875 
z
" id="DejaVuSans-2a"/>
     </defs>
     <g style="fill:#262626;" transform="translate(35.804301 171.3455)rotate(-90)scale(0.143 -0.143)">
      <use transform="translate(0 0.765625)" xlink:href="#DejaVuSans-7c"/>
      <use transform="translate(33.691406 0.765625)" xlink:href="#DejaVuSans-7c"/>
      <use transform="translate(67.382812 0.765625)" xlink:href="#DejaVuSans-Oblique-78"/>
      <use transform="translate(126.5625 -15.640625)scale(0.7)" xlink:href="#DejaVuSans-Oblique-6b"/>
      <use transform="translate(189.316406 0.765625)" xlink:href="#DejaVuSans-2212"/>
      <use transform="translate(292.587891 0.765625)" xlink:href="#DejaVuSans-Oblique-78"/>
      <use transform="translate(369.871419 39.046875)scale(0.7)" xlink:href="#DejaVuSans-2a"/>
      <use transform="translate(421.24349 0.765625)" xlink:href="#DejaVuSans-7c"/>
      <use transform="translate(454.934896 0.765625)" xlink:href="#DejaVuSans-7c"/>
      <use transform="translate(489.583333 39.046875)scale(0.7)" xlink:href="#DejaVuSans-32"/>
     </g>
    </g>
   </g>
   <g id="PolyCollection_1">
    <defs>
     <path d="M 115.629287 -237.391004 
L 115.629287 -237.391004 
L 119.886895 -237.391004 
L 124.144503 -238.167827 
L 128.402111 -238.777304 
L 132.659719 -239.577979 
L 136.917326 -239.920364 
L 141.174934 -240.386362 
L 145.432542 -240.827262 
L 149.69015 -241.298657 
L 153.947758 -241.579776 
L 158.205366 -242.11908 
L 162.462974 -242.306313 
L 166.720581 -241.88589 
L 170.978189 -241.86489 
L 175.235797 -242.021993 
L 179.493405 -242.206682 
L 183.751013 -242.717757 
L 188.008621 -243.668352 
L 192.266229 -244.233636 
L 196.523836 -243.300015 
L 200.781444 -243.071635 
L 205.039052 -242.996531 
L 209.29666 -243.380408 
L 213.554268 -242.897386 
L 217.811876 -243.434072 
L 222.069484 -244.027528 
L 226.327091 -242.805821 
L 230.584699 -244.094572 
L 234.842307 -243.097413 
L 239.099915 -241.635779 
L 243.357523 -242.541055 
L 247.615131 -243.245238 
L 251.872739 -241.264429 
L 256.130346 -241.582755 
L 260.387954 -241.382761 
L 264.645562 -240.873605 
L 268.90317 -240.508392 
L 273.160778 -239.129209 
L 277.418386 -239.963753 
L 281.675994 -238.921465 
L 285.933601 -238.180493 
L 290.191209 -239.103651 
L 294.448817 -236.492414 
L 298.706425 -237.070857 
L 302.964033 -236.539595 
L 307.221641 -237.373123 
L 311.479249 -238.431214 
L 315.736856 -236.797864 
L 319.994464 -236.929531 
L 324.252072 -235.550456 
L 328.50968 -235.271031 
L 332.767288 -233.917239 
L 337.024896 -233.982715 
L 341.282504 -233.393176 
L 345.540112 -232.194958 
L 349.797719 -231.480276 
L 354.055327 -229.603043 
L 358.312935 -230.29732 
L 362.570543 -230.027551 
L 366.828151 -227.50997 
L 371.085759 -227.184868 
L 375.343367 -226.640756 
L 379.600974 -226.405998 
L 383.858582 -225.292937 
L 388.11619 -225.236617 
L 392.373798 -225.175473 
L 396.631406 -223.057631 
L 400.889014 -222.783753 
L 400.889014 -160.009437 
L 400.889014 -160.009437 
L 396.631406 -159.984061 
L 392.373798 -164.388988 
L 388.11619 -165.819708 
L 383.858582 -166.331794 
L 379.600974 -171.168134 
L 375.343367 -172.067872 
L 371.085759 -171.306132 
L 366.828151 -174.013328 
L 362.570543 -173.894911 
L 358.312935 -175.249449 
L 354.055327 -176.337547 
L 349.797719 -178.668489 
L 345.540112 -180.212949 
L 341.282504 -181.539212 
L 337.024896 -183.467956 
L 332.767288 -184.129331 
L 328.50968 -185.001432 
L 324.252072 -187.197563 
L 319.994464 -187.643566 
L 315.736856 -190.659196 
L 311.479249 -193.110213 
L 307.221641 -191.852048 
L 302.964033 -194.167746 
L 298.706425 -195.36447 
L 294.448817 -196.314384 
L 290.191209 -196.542461 
L 285.933601 -197.025141 
L 281.675994 -199.155768 
L 277.418386 -200.246718 
L 273.160778 -202.192826 
L 268.90317 -202.705951 
L 264.645562 -204.361676 
L 260.387954 -204.044525 
L 256.130346 -205.133448 
L 251.872739 -207.022669 
L 247.615131 -207.965397 
L 243.357523 -208.815326 
L 239.099915 -211.594401 
L 234.842307 -212.726291 
L 230.584699 -213.974303 
L 226.327091 -214.772337 
L 222.069484 -214.93334 
L 217.811876 -215.422127 
L 213.554268 -216.520626 
L 209.29666 -218.310632 
L 205.039052 -221.277383 
L 200.781444 -222.076695 
L 196.523836 -221.914171 
L 192.266229 -221.430923 
L 188.008621 -222.45473 
L 183.751013 -223.931866 
L 179.493405 -224.0205 
L 175.235797 -225.674653 
L 170.978189 -226.107882 
L 166.720581 -227.625035 
L 162.462974 -228.635836 
L 158.205366 -229.699741 
L 153.947758 -230.38792 
L 149.69015 -231.605356 
L 145.432542 -232.515777 
L 141.174934 -233.625874 
L 136.917326 -234.103528 
L 132.659719 -234.722056 
L 128.402111 -235.847904 
L 124.144503 -236.251337 
L 119.886895 -237.391004 
L 115.629287 -237.391004 
z
" id="mc9f3dca195" style="stroke:#1f77b4;stroke-opacity:0.2;stroke-width:0.39;"/>
    </defs>
    <g clip-path="url(#p4e021c5759)">
     <use style="fill:#1f77b4;fill-opacity:0.2;stroke:#1f77b4;stroke-opacity:0.2;stroke-width:0.39;" x="0" xlink:href="#mc9f3dca195" y="288"/>
    </g>
   </g>
   <g id="PolyCollection_2">
    <defs>
     <path d="M 257.549549 -237.391004 
L 257.549549 -237.391004 
L 259.678353 -239.221659 
L 261.807157 -239.089447 
L 263.935961 -239.093191 
L 266.064765 -239.036448 
L 268.193569 -238.460647 
L 270.322373 -237.438237 
L 272.451177 -237.048588 
L 274.579981 -235.53711 
L 276.708784 -235.69885 
L 278.837588 -235.485865 
L 280.966392 -234.65544 
L 283.095196 -232.596082 
L 285.224 -230.617509 
L 287.352804 -229.199096 
L 289.481608 -228.997525 
L 291.610412 -227.712616 
L 293.739216 -226.797662 
L 295.86802 -223.55344 
L 297.996824 -221.568398 
L 300.125628 -220.765613 
L 302.254432 -219.740841 
L 304.383236 -220.952794 
L 306.512039 -217.400354 
L 308.640843 -216.597514 
L 310.769647 -215.140916 
L 312.898451 -213.365882 
L 315.027255 -212.73161 
L 317.156059 -211.971288 
L 319.284863 -210.695682 
L 321.413667 -212.27198 
L 323.542471 -209.707156 
L 325.671275 -209.392972 
L 327.800079 -206.81734 
L 329.928883 -202.125784 
L 332.057687 -200.891527 
L 334.186491 -199.455144 
L 336.315294 -200.446221 
L 338.444098 -197.372007 
L 340.572902 -197.310324 
L 342.701706 -197.233083 
L 344.83051 -194.965205 
L 346.959314 -193.0532 
L 349.088118 -192.717667 
L 351.216922 -188.272916 
L 353.345726 -187.485751 
L 355.47453 -186.605362 
L 357.603334 -184.513889 
L 359.732138 -181.566917 
L 361.860942 -180.806194 
L 363.989746 -180.31984 
L 366.118549 -177.982011 
L 368.247353 -176.817897 
L 370.376157 -174.178698 
L 372.504961 -173.91302 
L 374.633765 -170.590653 
L 376.762569 -170.238296 
L 378.891373 -170.52864 
L 381.020177 -170.124356 
L 383.148981 -167.650029 
L 385.277785 -167.672193 
L 387.406589 -162.921156 
L 389.535393 -162.851509 
L 391.664197 -163.005125 
L 393.793001 -159.830651 
L 395.921805 -159.723115 
L 398.050608 -159.261847 
L 400.179412 -159.883363 
L 400.179412 -65.866364 
L 400.179412 -65.866364 
L 398.050608 -68.061307 
L 395.921805 -70.143988 
L 393.793001 -71.402923 
L 391.664197 -72.212301 
L 389.535393 -76.301502 
L 387.406589 -78.114543 
L 385.277785 -79.199214 
L 383.148981 -80.654509 
L 381.020177 -82.835706 
L 378.891373 -83.79315 
L 376.762569 -85.759338 
L 374.633765 -87.125796 
L 372.504961 -88.590242 
L 370.376157 -89.134034 
L 368.247353 -90.868706 
L 366.118549 -91.605246 
L 363.989746 -92.729007 
L 361.860942 -93.919842 
L 359.732138 -98.754871 
L 357.603334 -102.538404 
L 355.47453 -102.538404 
L 353.345726 -103.891423 
L 351.216922 -108.237568 
L 349.088118 -110.718744 
L 346.959314 -114.291878 
L 344.83051 -116.634193 
L 342.701706 -116.773024 
L 340.572902 -117.592829 
L 338.444098 -118.72639 
L 336.315294 -121.163824 
L 334.186491 -122.720831 
L 332.057687 -127.911036 
L 329.928883 -128.770229 
L 327.800079 -128.82528 
L 325.671275 -133.457684 
L 323.542471 -133.403791 
L 321.413667 -137.077312 
L 319.284863 -140.202212 
L 317.156059 -145.022825 
L 315.027255 -146.283403 
L 312.898451 -149.764918 
L 310.769647 -152.901916 
L 308.640843 -152.731156 
L 306.512039 -156.063108 
L 304.383236 -158.814709 
L 302.254432 -164.371124 
L 300.125628 -165.323016 
L 297.996824 -167.367892 
L 295.86802 -170.672162 
L 293.739216 -171.221162 
L 291.610412 -174.447476 
L 289.481608 -178.320576 
L 287.352804 -180.28912 
L 285.224 -182.424084 
L 283.095196 -184.9256 
L 280.966392 -188.410329 
L 278.837588 -191.732513 
L 276.708784 -196.916222 
L 274.579981 -203.023825 
L 272.451177 -206.302101 
L 270.322373 -208.812065 
L 268.193569 -210.853485 
L 266.064765 -215.388736 
L 263.935961 -218.560372 
L 261.807157 -221.494663 
L 259.678353 -226.200814 
L 257.549549 -237.391004 
z
" id="m86239cca3b" style="stroke:#ff7f0e;stroke-opacity:0.2;stroke-width:0.39;"/>
    </defs>
    <g clip-path="url(#p4e021c5759)">
     <use style="fill:#ff7f0e;fill-opacity:0.2;stroke:#ff7f0e;stroke-opacity:0.2;stroke-width:0.39;" x="0" xlink:href="#m86239cca3b" y="288"/>
    </g>
   </g>
   <g id="line2d_13">
    <path clip-path="url(#p4e021c5759)" d="M 115.629287 50.608996 
L 119.886895 50.608996 
L 124.144503 50.608749 
L 128.402111 50.630323 
L 132.659719 50.644373 
L 136.917326 50.745014 
L 141.174934 50.968895 
L 145.432542 50.943429 
L 149.69015 50.989642 
L 153.947758 51.189651 
L 158.205366 51.420727 
L 162.462974 51.622668 
L 166.720581 52.201704 
L 170.978189 52.24417 
L 175.235797 52.718273 
L 179.493405 53.416141 
L 183.751013 53.59259 
L 188.008621 54.051865 
L 192.266229 54.292311 
L 196.523836 54.333801 
L 200.781444 54.755655 
L 205.039052 54.901874 
L 209.29666 55.659047 
L 213.554268 56.113286 
L 217.811876 56.968821 
L 222.069484 57.644624 
L 226.327091 57.629226 
L 230.584699 57.901233 
L 234.842307 59.071262 
L 239.099915 59.375277 
L 243.357523 60.376519 
L 247.615131 61.16196 
L 251.872739 62.322489 
L 256.130346 62.108709 
L 260.387954 63.375087 
L 264.645562 63.840423 
L 268.90317 65.900069 
L 273.160778 66.407919 
L 277.418386 67.904634 
L 281.675994 68.370891 
L 285.933601 68.852053 
L 290.191209 69.756152 
L 294.448817 70.142484 
L 298.706425 72.182476 
L 302.964033 73.727873 
L 307.221641 74.100557 
L 311.479249 74.765504 
L 315.736856 75.727795 
L 319.994464 76.380249 
L 324.252072 76.353737 
L 328.50968 76.766489 
L 332.767288 78.310724 
L 337.024896 79.041869 
L 341.282504 79.330333 
L 345.540112 80.128237 
L 349.797719 80.62867 
L 354.055327 81.627296 
L 358.312935 82.720941 
L 362.570543 83.411742 
L 366.828151 84.300734 
L 371.085759 86.00455 
L 375.343367 86.704728 
L 379.600974 88.713513 
L 383.858582 89.093251 
L 388.11619 90.362033 
L 392.373798 91.406405 
L 396.631406 93.508167 
L 400.889014 94.34707 
" style="fill:none;stroke:#1f77b4;stroke-linecap:round;stroke-width:2.275;"/>
   </g>
   <g id="line2d_14">
    <path clip-path="url(#p4e021c5759)" d="M 257.549549 50.608996 
L 259.678353 51.27584 
L 261.807157 53.713342 
L 263.935961 56.563432 
L 266.064765 58.284282 
L 268.193569 60.756869 
L 270.322373 63.005771 
L 272.451177 65.017236 
L 274.579981 67.144462 
L 276.708784 69.470186 
L 278.837588 71.083422 
L 280.966392 73.83433 
L 283.095196 75.935861 
L 285.224 78.164253 
L 287.352804 80.404506 
L 289.481608 82.352933 
L 291.610412 83.785011 
L 293.739216 85.308949 
L 295.86802 87.690154 
L 297.996824 89.453199 
L 300.125628 91.634568 
L 302.254432 93.313041 
L 304.383236 94.968122 
L 306.512039 96.190764 
L 308.640843 98.888517 
L 310.769647 100.698119 
L 312.898451 103.050532 
L 315.027255 103.969602 
L 317.156059 105.593843 
L 319.284863 108.047891 
L 321.413667 110.42403 
L 323.542471 112.414671 
L 325.671275 113.744992 
L 327.800079 116.816042 
L 329.928883 118.854588 
L 332.057687 120.140331 
L 334.186491 122.843739 
L 336.315294 124.117345 
L 338.444098 125.645302 
L 340.572902 128.363057 
L 342.701706 129.753136 
L 344.83051 131.597453 
L 346.959314 134.405909 
L 349.088118 136.985601 
L 351.216922 139.130902 
L 353.345726 140.273715 
L 355.47453 141.428176 
L 357.603334 143.177934 
L 359.732138 144.935391 
L 361.860942 146.449115 
L 363.989746 147.761909 
L 366.118549 148.820416 
L 368.247353 150.243324 
L 370.376157 151.057024 
L 372.504961 152.308819 
L 374.633765 155.066696 
L 376.762569 158.285114 
L 378.891373 160.904157 
L 381.020177 162.253232 
L 383.148981 163.343444 
L 385.277785 166.327302 
L 387.406589 168.852338 
L 389.535393 170.756438 
L 391.664197 172.009536 
L 393.793001 173.867735 
L 395.921805 175.612622 
L 398.050608 177.499276 
L 400.179412 178.29669 
" style="fill:none;stroke:#ff7f0e;stroke-linecap:round;stroke-width:2.275;"/>
   </g>
   <g id="patch_3">
    <path d="M 101.366301 231.052 
L 101.366301 34.848 
" style="fill:none;stroke:#999999;stroke-linecap:square;stroke-linejoin:miter;"/>
   </g>
   <g id="patch_4">
    <path d="M 415.152 231.052 
L 415.152 34.848 
" style="fill:none;stroke:#999999;stroke-linecap:square;stroke-linejoin:miter;"/>
   </g>
   <g id="patch_5">
    <path d="M 101.366301 231.052 
L 415.152 231.052 
" style="fill:none;stroke:#999999;stroke-linecap:square;stroke-linejoin:miter;"/>
   </g>
   <g id="patch_6">
    <path d="M 101.366301 34.848 
L 415.152 34.848 
" style="fill:none;stroke:#999999;stroke-linecap:square;stroke-linejoin:miter;"/>
   </g>
   <g id="text_10">
    <!-- Error vs Flops (Inconsistent Gaussian) -->
    <defs>
     <path d="M 9.8125 72.90625 
L 55.90625 72.90625 
L 55.90625 64.59375 
L 19.671875 64.59375 
L 19.671875 43.015625 
L 54.390625 43.015625 
L 54.390625 34.71875 
L 19.671875 34.71875 
L 19.671875 8.296875 
L 56.78125 8.296875 
L 56.78125 0 
L 9.8125 0 
z
" id="DejaVuSans-45"/>
     <path d="M 41.109375 46.296875 
Q 39.59375 47.171875 37.8125 47.578125 
Q 36.03125 48 33.890625 48 
Q 26.265625 48 22.1875 43.046875 
Q 18.109375 38.09375 18.109375 28.8125 
L 18.109375 0 
L 9.078125 0 
L 9.078125 54.6875 
L 18.109375 54.6875 
L 18.109375 46.1875 
Q 20.953125 51.171875 25.484375 53.578125 
Q 30.03125 56 36.53125 56 
Q 37.453125 56 38.578125 55.875 
Q 39.703125 55.765625 41.0625 55.515625 
z
" id="DejaVuSans-72"/>
     <path id="DejaVuSans-20"/>
     <path d="M 2.984375 54.6875 
L 12.5 54.6875 
L 29.59375 8.796875 
L 46.6875 54.6875 
L 56.203125 54.6875 
L 35.6875 0 
L 23.484375 0 
z
" id="DejaVuSans-76"/>
     <path d="M 31 75.875 
Q 24.46875 64.65625 21.28125 53.65625 
Q 18.109375 42.671875 18.109375 31.390625 
Q 18.109375 20.125 21.3125 9.0625 
Q 24.515625 -2 31 -13.1875 
L 23.1875 -13.1875 
Q 15.875 -1.703125 12.234375 9.375 
Q 8.59375 20.453125 8.59375 31.390625 
Q 8.59375 42.28125 12.203125 53.3125 
Q 15.828125 64.359375 23.1875 75.875 
z
" id="DejaVuSans-28"/>
     <path d="M 9.8125 72.90625 
L 19.671875 72.90625 
L 19.671875 0 
L 9.8125 0 
z
" id="DejaVuSans-49"/>
     <path d="M 54.890625 33.015625 
L 54.890625 0 
L 45.90625 0 
L 45.90625 32.71875 
Q 45.90625 40.484375 42.875 44.328125 
Q 39.84375 48.1875 33.796875 48.1875 
Q 26.515625 48.1875 22.3125 43.546875 
Q 18.109375 38.921875 18.109375 30.90625 
L 18.109375 0 
L 9.078125 0 
L 9.078125 54.6875 
L 18.109375 54.6875 
L 18.109375 46.1875 
Q 21.34375 51.125 25.703125 53.5625 
Q 30.078125 56 35.796875 56 
Q 45.21875 56 50.046875 50.171875 
Q 54.890625 44.34375 54.890625 33.015625 
z
" id="DejaVuSans-6e"/>
     <path d="M 48.78125 52.59375 
L 48.78125 44.1875 
Q 44.96875 46.296875 41.140625 47.34375 
Q 37.3125 48.390625 33.40625 48.390625 
Q 24.65625 48.390625 19.8125 42.84375 
Q 14.984375 37.3125 14.984375 27.296875 
Q 14.984375 17.28125 19.8125 11.734375 
Q 24.65625 6.203125 33.40625 6.203125 
Q 37.3125 6.203125 41.140625 7.25 
Q 44.96875 8.296875 48.78125 10.40625 
L 48.78125 2.09375 
Q 45.015625 0.34375 40.984375 -0.53125 
Q 36.96875 -1.421875 32.421875 -1.421875 
Q 20.0625 -1.421875 12.78125 6.34375 
Q 5.515625 14.109375 5.515625 27.296875 
Q 5.515625 40.671875 12.859375 48.328125 
Q 20.21875 56 33.015625 56 
Q 37.15625 56 41.109375 55.140625 
Q 45.0625 54.296875 48.78125 52.59375 
z
" id="DejaVuSans-63"/>
     <path d="M 9.421875 54.6875 
L 18.40625 54.6875 
L 18.40625 0 
L 9.421875 0 
z
M 9.421875 75.984375 
L 18.40625 75.984375 
L 18.40625 64.59375 
L 9.421875 64.59375 
z
" id="DejaVuSans-69"/>
     <path d="M 18.3125 70.21875 
L 18.3125 54.6875 
L 36.8125 54.6875 
L 36.8125 47.703125 
L 18.3125 47.703125 
L 18.3125 18.015625 
Q 18.3125 11.328125 20.140625 9.421875 
Q 21.96875 7.515625 27.59375 7.515625 
L 36.8125 7.515625 
L 36.8125 0 
L 27.59375 0 
Q 17.1875 0 13.234375 3.875 
Q 9.28125 7.765625 9.28125 18.015625 
L 9.28125 47.703125 
L 2.6875 47.703125 
L 2.6875 54.6875 
L 9.28125 54.6875 
L 9.28125 70.21875 
z
" id="DejaVuSans-74"/>
     <path d="M 56.203125 29.59375 
L 56.203125 25.203125 
L 14.890625 25.203125 
Q 15.484375 15.921875 20.484375 11.0625 
Q 25.484375 6.203125 34.421875 6.203125 
Q 39.59375 6.203125 44.453125 7.46875 
Q 49.3125 8.734375 54.109375 11.28125 
L 54.109375 2.78125 
Q 49.265625 0.734375 44.1875 -0.34375 
Q 39.109375 -1.421875 33.890625 -1.421875 
Q 20.796875 -1.421875 13.15625 6.1875 
Q 5.515625 13.8125 5.515625 26.8125 
Q 5.515625 40.234375 12.765625 48.109375 
Q 20.015625 56 32.328125 56 
Q 43.359375 56 49.78125 48.890625 
Q 56.203125 41.796875 56.203125 29.59375 
z
M 47.21875 32.234375 
Q 47.125 39.59375 43.09375 43.984375 
Q 39.0625 48.390625 32.421875 48.390625 
Q 24.90625 48.390625 20.390625 44.140625 
Q 15.875 39.890625 15.1875 32.171875 
z
" id="DejaVuSans-65"/>
     <path d="M 59.515625 10.40625 
L 59.515625 29.984375 
L 43.40625 29.984375 
L 43.40625 38.09375 
L 69.28125 38.09375 
L 69.28125 6.78125 
Q 63.578125 2.734375 56.6875 0.65625 
Q 49.8125 -1.421875 42 -1.421875 
Q 24.90625 -1.421875 15.25 8.5625 
Q 5.609375 18.5625 5.609375 36.375 
Q 5.609375 54.25 15.25 64.234375 
Q 24.90625 74.21875 42 74.21875 
Q 49.125 74.21875 55.546875 72.453125 
Q 61.96875 70.703125 67.390625 67.28125 
L 67.390625 56.78125 
Q 61.921875 61.421875 55.765625 63.765625 
Q 49.609375 66.109375 42.828125 66.109375 
Q 29.4375 66.109375 22.71875 58.640625 
Q 16.015625 51.171875 16.015625 36.375 
Q 16.015625 21.625 22.71875 14.15625 
Q 29.4375 6.6875 42.828125 6.6875 
Q 48.046875 6.6875 52.140625 7.59375 
Q 56.25 8.5 59.515625 10.40625 
z
" id="DejaVuSans-47"/>
     <path d="M 34.28125 27.484375 
Q 23.390625 27.484375 19.1875 25 
Q 14.984375 22.515625 14.984375 16.5 
Q 14.984375 11.71875 18.140625 8.90625 
Q 21.296875 6.109375 26.703125 6.109375 
Q 34.1875 6.109375 38.703125 11.40625 
Q 43.21875 16.703125 43.21875 25.484375 
L 43.21875 27.484375 
z
M 52.203125 31.203125 
L 52.203125 0 
L 43.21875 0 
L 43.21875 8.296875 
Q 40.140625 3.328125 35.546875 0.953125 
Q 30.953125 -1.421875 24.3125 -1.421875 
Q 15.921875 -1.421875 10.953125 3.296875 
Q 6 8.015625 6 15.921875 
Q 6 25.140625 12.171875 29.828125 
Q 18.359375 34.515625 30.609375 34.515625 
L 43.21875 34.515625 
L 43.21875 35.40625 
Q 43.21875 41.609375 39.140625 45 
Q 35.0625 48.390625 27.6875 48.390625 
Q 23 48.390625 18.546875 47.265625 
Q 14.109375 46.140625 10.015625 43.890625 
L 10.015625 52.203125 
Q 14.9375 54.109375 19.578125 55.046875 
Q 24.21875 56 28.609375 56 
Q 40.484375 56 46.34375 49.84375 
Q 52.203125 43.703125 52.203125 31.203125 
z
" id="DejaVuSans-61"/>
     <path d="M 8.5 21.578125 
L 8.5 54.6875 
L 17.484375 54.6875 
L 17.484375 21.921875 
Q 17.484375 14.15625 20.5 10.265625 
Q 23.53125 6.390625 29.59375 6.390625 
Q 36.859375 6.390625 41.078125 11.03125 
Q 45.3125 15.671875 45.3125 23.6875 
L 45.3125 54.6875 
L 54.296875 54.6875 
L 54.296875 0 
L 45.3125 0 
L 45.3125 8.40625 
Q 42.046875 3.421875 37.71875 1 
Q 33.40625 -1.421875 27.6875 -1.421875 
Q 18.265625 -1.421875 13.375 4.4375 
Q 8.5 10.296875 8.5 21.578125 
z
M 31.109375 56 
z
" id="DejaVuSans-75"/>
     <path d="M 8.015625 75.875 
L 15.828125 75.875 
Q 23.140625 64.359375 26.78125 53.3125 
Q 30.421875 42.28125 30.421875 31.390625 
Q 30.421875 20.453125 26.78125 9.375 
Q 23.140625 -1.703125 15.828125 -13.1875 
L 8.015625 -13.1875 
Q 14.5 -2 17.703125 9.0625 
Q 20.90625 20.125 20.90625 31.390625 
Q 20.90625 42.671875 17.703125 53.65625 
Q 14.5 64.65625 8.015625 75.875 
z
" id="DejaVuSans-29"/>
    </defs>
    <g style="fill:#262626;" transform="translate(110.6344 28.848)scale(0.156 -0.156)">
     <use xlink:href="#DejaVuSans-45"/>
     <use x="63.183594" xlink:href="#DejaVuSans-72"/>
     <use x="104.28125" xlink:href="#DejaVuSans-72"/>
     <use x="145.363281" xlink:href="#DejaVuSans-6f"/>
     <use x="206.544922" xlink:href="#DejaVuSans-72"/>
     <use x="247.658203" xlink:href="#DejaVuSans-20"/>
     <use x="279.445312" xlink:href="#DejaVuSans-76"/>
     <use x="338.625" xlink:href="#DejaVuSans-73"/>
     <use x="390.724609" xlink:href="#DejaVuSans-20"/>
     <use x="422.511719" xlink:href="#DejaVuSans-46"/>
     <use x="480.03125" xlink:href="#DejaVuSans-6c"/>
     <use x="507.814453" xlink:href="#DejaVuSans-6f"/>
     <use x="568.996094" xlink:href="#DejaVuSans-70"/>
     <use x="632.472656" xlink:href="#DejaVuSans-73"/>
     <use x="684.572266" xlink:href="#DejaVuSans-20"/>
     <use x="716.359375" xlink:href="#DejaVuSans-28"/>
     <use x="755.373047" xlink:href="#DejaVuSans-49"/>
     <use x="784.865234" xlink:href="#DejaVuSans-6e"/>
     <use x="848.244141" xlink:href="#DejaVuSans-63"/>
     <use x="903.224609" xlink:href="#DejaVuSans-6f"/>
     <use x="964.40625" xlink:href="#DejaVuSans-6e"/>
     <use x="1027.785156" xlink:href="#DejaVuSans-73"/>
     <use x="1079.884766" xlink:href="#DejaVuSans-69"/>
     <use x="1107.667969" xlink:href="#DejaVuSans-73"/>
     <use x="1159.767578" xlink:href="#DejaVuSans-74"/>
     <use x="1198.976562" xlink:href="#DejaVuSans-65"/>
     <use x="1260.5" xlink:href="#DejaVuSans-6e"/>
     <use x="1323.878906" xlink:href="#DejaVuSans-74"/>
     <use x="1363.087891" xlink:href="#DejaVuSans-20"/>
     <use x="1394.875" xlink:href="#DejaVuSans-47"/>
     <use x="1472.365234" xlink:href="#DejaVuSans-61"/>
     <use x="1533.644531" xlink:href="#DejaVuSans-75"/>
     <use x="1597.023438" xlink:href="#DejaVuSans-73"/>
     <use x="1649.123047" xlink:href="#DejaVuSans-73"/>
     <use x="1701.222656" xlink:href="#DejaVuSans-69"/>
     <use x="1729.005859" xlink:href="#DejaVuSans-61"/>
     <use x="1790.285156" xlink:href="#DejaVuSans-6e"/>
     <use x="1853.664062" xlink:href="#DejaVuSans-29"/>
    </g>
   </g>
   <g id="legend_1">
    <g id="line2d_15">
     <path d="M 113.066301 193.016844 
L 139.066301 193.016844 
" style="fill:none;stroke:#1f77b4;stroke-linecap:round;stroke-width:2.275;"/>
    </g>
    <g id="line2d_16"/>
    <g id="text_11">
     <!-- REK -->
     <defs>
      <path d="M 44.390625 34.1875 
Q 47.5625 33.109375 50.5625 29.59375 
Q 53.5625 26.078125 56.59375 19.921875 
L 66.609375 0 
L 56 0 
L 46.6875 18.703125 
Q 43.0625 26.03125 39.671875 28.421875 
Q 36.28125 30.8125 30.421875 30.8125 
L 19.671875 30.8125 
L 19.671875 0 
L 9.8125 0 
L 9.8125 72.90625 
L 32.078125 72.90625 
Q 44.578125 72.90625 50.734375 67.671875 
Q 56.890625 62.453125 56.890625 51.90625 
Q 56.890625 45.015625 53.6875 40.46875 
Q 50.484375 35.9375 44.390625 34.1875 
z
M 19.671875 64.796875 
L 19.671875 38.921875 
L 32.078125 38.921875 
Q 39.203125 38.921875 42.84375 42.21875 
Q 46.484375 45.515625 46.484375 51.90625 
Q 46.484375 58.296875 42.84375 61.546875 
Q 39.203125 64.796875 32.078125 64.796875 
z
" id="DejaVuSans-52"/>
      <path d="M 9.8125 72.90625 
L 19.671875 72.90625 
L 19.671875 42.09375 
L 52.390625 72.90625 
L 65.09375 72.90625 
L 28.90625 38.921875 
L 67.671875 0 
L 54.6875 0 
L 19.671875 35.109375 
L 19.671875 0 
L 9.8125 0 
z
" id="DejaVuSans-4b"/>
     </defs>
     <g style="fill:#262626;" transform="translate(149.466301 197.566844)scale(0.13 -0.13)">
      <use xlink:href="#DejaVuSans-52"/>
      <use x="69.482422" xlink:href="#DejaVuSans-45"/>
      <use x="132.666016" xlink:href="#DejaVuSans-4b"/>
     </g>
    </g>
    <g id="line2d_17">
     <path d="M 113.066301 212.098406 
L 139.066301 212.098406 
" style="fill:none;stroke:#ff7f0e;stroke-linecap:round;stroke-width:2.275;"/>
    </g>
    <g id="line2d_18"/>
    <g id="text_12">
     <!-- OptRK -->
     <defs>
      <path d="M 39.40625 66.21875 
Q 28.65625 66.21875 22.328125 58.203125 
Q 16.015625 50.203125 16.015625 36.375 
Q 16.015625 22.609375 22.328125 14.59375 
Q 28.65625 6.59375 39.40625 6.59375 
Q 50.140625 6.59375 56.421875 14.59375 
Q 62.703125 22.609375 62.703125 36.375 
Q 62.703125 50.203125 56.421875 58.203125 
Q 50.140625 66.21875 39.40625 66.21875 
z
M 39.40625 74.21875 
Q 54.734375 74.21875 63.90625 63.9375 
Q 73.09375 53.65625 73.09375 36.375 
Q 73.09375 19.140625 63.90625 8.859375 
Q 54.734375 -1.421875 39.40625 -1.421875 
Q 24.03125 -1.421875 14.8125 8.828125 
Q 5.609375 19.09375 5.609375 36.375 
Q 5.609375 53.65625 14.8125 63.9375 
Q 24.03125 74.21875 39.40625 74.21875 
z
" id="DejaVuSans-4f"/>
     </defs>
     <g style="fill:#262626;" transform="translate(149.466301 216.648406)scale(0.13 -0.13)">
      <use xlink:href="#DejaVuSans-4f"/>
      <use x="78.710938" xlink:href="#DejaVuSans-70"/>
      <use x="142.1875" xlink:href="#DejaVuSans-74"/>
      <use x="181.396484" xlink:href="#DejaVuSans-52"/>
      <use x="250.878906" xlink:href="#DejaVuSans-4b"/>
     </g>
    </g>
   </g>
  </g>
 </g>
 <defs>
  <clipPath id="p4e021c5759">
   <rect height="196.204" width="313.785699" x="101.366301" y="34.848"/>
  </clipPath>
 </defs>
</svg>
