<?xml version="1.0" encoding="utf-8" standalone="no"?>
<!DOCTYPE svg PUBLIC "-//W3C//DTD SVG 1.1//EN"
  "http://www.w3.org/Graphics/SVG/1.1/DTD/svg11.dtd">
<!-- Created with matplotlib (http://matplotlib.org/) -->
<svg height="288pt" version="1.1" viewBox="0 0 432 288" width="432pt" xmlns="http://www.w3.org/2000/svg" xmlns:xlink="http://www.w3.org/1999/xlink">
 <defs>
  <style type="text/css">
*{stroke-linecap:butt;stroke-linejoin:round;}
  </style>
 </defs>
 <g id="figure_1">
  <g id="patch_1">
   <path d="M 0 288 
L 432 288 
L 432 0 
L 0 0 
z
" style="fill:none;"/>
  </g>
  <g id="axes_1">
   <g id="patch_2">
    <path d="M 42.448 231.052 
L 400.857764 231.052 
L 400.857764 34.848 
L 42.448 34.848 
z
" style="fill:none;"/>
   </g>
   <g id="matplotlib.axis_1">
    <g id="xtick_1">
     <g id="line2d_1">
      <path clip-path="url(#p3d75b4d874)" d="M 58.739353 231.052 
L 58.739353 34.848 
" style="fill:none;stroke:#999999;stroke-linecap:round;stroke-width:1.3;"/>
     </g>
     <g id="line2d_2"/>
     <g id="text_1">
      <!-- 0 -->
      <defs>
       <path d="M 31.78125 66.40625 
Q 24.171875 66.40625 20.328125 58.90625 
Q 16.5 51.421875 16.5 36.375 
Q 16.5 21.390625 20.328125 13.890625 
Q 24.171875 6.390625 31.78125 6.390625 
Q 39.453125 6.390625 43.28125 13.890625 
Q 47.125 21.390625 47.125 36.375 
Q 47.125 51.421875 43.28125 58.90625 
Q 39.453125 66.40625 31.78125 66.40625 
z
M 31.78125 74.21875 
Q 44.046875 74.21875 50.515625 64.515625 
Q 56.984375 54.828125 56.984375 36.375 
Q 56.984375 17.96875 50.515625 8.265625 
Q 44.046875 -1.421875 31.78125 -1.421875 
Q 19.53125 -1.421875 13.0625 8.265625 
Q 6.59375 17.96875 6.59375 36.375 
Q 6.59375 54.828125 13.0625 64.515625 
Q 19.53125 74.21875 31.78125 74.21875 
z
" id="DejaVuSans-30"/>
      </defs>
      <g style="fill:#262626;" transform="translate(54.603728 250.029969)scale(0.13 -0.13)">
       <use xlink:href="#DejaVuSans-30"/>
      </g>
     </g>
    </g>
    <g id="xtick_2">
     <g id="line2d_3">
      <path clip-path="url(#p3d75b4d874)" d="M 101.20899 231.052 
L 101.20899 34.848 
" style="fill:none;stroke:#999999;stroke-linecap:round;stroke-width:1.3;"/>
     </g>
     <g id="line2d_4"/>
     <g id="text_2">
      <!-- 250 -->
      <defs>
       <path d="M 19.1875 8.296875 
L 53.609375 8.296875 
L 53.609375 0 
L 7.328125 0 
L 7.328125 8.296875 
Q 12.9375 14.109375 22.625 23.890625 
Q 32.328125 33.6875 34.8125 36.53125 
Q 39.546875 41.84375 41.421875 45.53125 
Q 43.3125 49.21875 43.3125 52.78125 
Q 43.3125 58.59375 39.234375 62.25 
Q 35.15625 65.921875 28.609375 65.921875 
Q 23.96875 65.921875 18.8125 64.3125 
Q 13.671875 62.703125 7.8125 59.421875 
L 7.8125 69.390625 
Q 13.765625 71.78125 18.9375 73 
Q 24.125 74.21875 28.421875 74.21875 
Q 39.75 74.21875 46.484375 68.546875 
Q 53.21875 62.890625 53.21875 53.421875 
Q 53.21875 48.921875 51.53125 44.890625 
Q 49.859375 40.875 45.40625 35.40625 
Q 44.1875 33.984375 37.640625 27.21875 
Q 31.109375 20.453125 19.1875 8.296875 
z
" id="DejaVuSans-32"/>
       <path d="M 10.796875 72.90625 
L 49.515625 72.90625 
L 49.515625 64.59375 
L 19.828125 64.59375 
L 19.828125 46.734375 
Q 21.96875 47.46875 24.109375 47.828125 
Q 26.265625 48.1875 28.421875 48.1875 
Q 40.625 48.1875 47.75 41.5 
Q 54.890625 34.8125 54.890625 23.390625 
Q 54.890625 11.625 47.5625 5.09375 
Q 40.234375 -1.421875 26.90625 -1.421875 
Q 22.3125 -1.421875 17.546875 -0.640625 
Q 12.796875 0.140625 7.71875 1.703125 
L 7.71875 11.625 
Q 12.109375 9.234375 16.796875 8.0625 
Q 21.484375 6.890625 26.703125 6.890625 
Q 35.15625 6.890625 40.078125 11.328125 
Q 45.015625 15.765625 45.015625 23.390625 
Q 45.015625 31 40.078125 35.4375 
Q 35.15625 39.890625 26.703125 39.890625 
Q 22.75 39.890625 18.8125 39.015625 
Q 14.890625 38.140625 10.796875 36.28125 
z
" id="DejaVuSans-35"/>
      </defs>
      <g style="fill:#262626;" transform="translate(88.802115 250.029969)scale(0.13 -0.13)">
       <use xlink:href="#DejaVuSans-32"/>
       <use x="63.623047" xlink:href="#DejaVuSans-35"/>
       <use x="127.246094" xlink:href="#DejaVuSans-30"/>
      </g>
     </g>
    </g>
    <g id="xtick_3">
     <g id="line2d_5">
      <path clip-path="url(#p3d75b4d874)" d="M 143.678628 231.052 
L 143.678628 34.848 
" style="fill:none;stroke:#999999;stroke-linecap:round;stroke-width:1.3;"/>
     </g>
     <g id="line2d_6"/>
     <g id="text_3">
      <!-- 500 -->
      <g style="fill:#262626;" transform="translate(131.271753 250.029969)scale(0.13 -0.13)">
       <use xlink:href="#DejaVuSans-35"/>
       <use x="63.623047" xlink:href="#DejaVuSans-30"/>
       <use x="127.246094" xlink:href="#DejaVuSans-30"/>
      </g>
     </g>
    </g>
    <g id="xtick_4">
     <g id="line2d_7">
      <path clip-path="url(#p3d75b4d874)" d="M 186.148265 231.052 
L 186.148265 34.848 
" style="fill:none;stroke:#999999;stroke-linecap:round;stroke-width:1.3;"/>
     </g>
     <g id="line2d_8"/>
     <g id="text_4">
      <!-- 750 -->
      <defs>
       <path d="M 8.203125 72.90625 
L 55.078125 72.90625 
L 55.078125 68.703125 
L 28.609375 0 
L 18.3125 0 
L 43.21875 64.59375 
L 8.203125 64.59375 
z
" id="DejaVuSans-37"/>
      </defs>
      <g style="fill:#262626;" transform="translate(173.74139 250.029969)scale(0.13 -0.13)">
       <use xlink:href="#DejaVuSans-37"/>
       <use x="63.623047" xlink:href="#DejaVuSans-35"/>
       <use x="127.246094" xlink:href="#DejaVuSans-30"/>
      </g>
     </g>
    </g>
    <g id="xtick_5">
     <g id="line2d_9">
      <path clip-path="url(#p3d75b4d874)" d="M 228.617902 231.052 
L 228.617902 34.848 
" style="fill:none;stroke:#999999;stroke-linecap:round;stroke-width:1.3;"/>
     </g>
     <g id="line2d_10"/>
     <g id="text_5">
      <!-- 1000 -->
      <defs>
       <path d="M 12.40625 8.296875 
L 28.515625 8.296875 
L 28.515625 63.921875 
L 10.984375 60.40625 
L 10.984375 69.390625 
L 28.421875 72.90625 
L 38.28125 72.90625 
L 38.28125 8.296875 
L 54.390625 8.296875 
L 54.390625 0 
L 12.40625 0 
z
" id="DejaVuSans-31"/>
      </defs>
      <g style="fill:#262626;" transform="translate(212.075402 250.029969)scale(0.13 -0.13)">
       <use xlink:href="#DejaVuSans-31"/>
       <use x="63.623047" xlink:href="#DejaVuSans-30"/>
       <use x="127.246094" xlink:href="#DejaVuSans-30"/>
       <use x="190.869141" xlink:href="#DejaVuSans-30"/>
      </g>
     </g>
    </g>
    <g id="xtick_6">
     <g id="line2d_11">
      <path clip-path="url(#p3d75b4d874)" d="M 271.08754 231.052 
L 271.08754 34.848 
" style="fill:none;stroke:#999999;stroke-linecap:round;stroke-width:1.3;"/>
     </g>
     <g id="line2d_12"/>
     <g id="text_6">
      <!-- 1250 -->
      <g style="fill:#262626;" transform="translate(254.54504 250.029969)scale(0.13 -0.13)">
       <use xlink:href="#DejaVuSans-31"/>
       <use x="63.623047" xlink:href="#DejaVuSans-32"/>
       <use x="127.246094" xlink:href="#DejaVuSans-35"/>
       <use x="190.869141" xlink:href="#DejaVuSans-30"/>
      </g>
     </g>
    </g>
    <g id="xtick_7">
     <g id="line2d_13">
      <path clip-path="url(#p3d75b4d874)" d="M 313.557177 231.052 
L 313.557177 34.848 
" style="fill:none;stroke:#999999;stroke-linecap:round;stroke-width:1.3;"/>
     </g>
     <g id="line2d_14"/>
     <g id="text_7">
      <!-- 1500 -->
      <g style="fill:#262626;" transform="translate(297.014677 250.029969)scale(0.13 -0.13)">
       <use xlink:href="#DejaVuSans-31"/>
       <use x="63.623047" xlink:href="#DejaVuSans-35"/>
       <use x="127.246094" xlink:href="#DejaVuSans-30"/>
       <use x="190.869141" xlink:href="#DejaVuSans-30"/>
      </g>
     </g>
    </g>
    <g id="xtick_8">
     <g id="line2d_15">
      <path clip-path="url(#p3d75b4d874)" d="M 356.026814 231.052 
L 356.026814 34.848 
" style="fill:none;stroke:#999999;stroke-linecap:round;stroke-width:1.3;"/>
     </g>
     <g id="line2d_16"/>
     <g id="text_8">
      <!-- 1750 -->
      <g style="fill:#262626;" transform="translate(339.484314 250.029969)scale(0.13 -0.13)">
       <use xlink:href="#DejaVuSans-31"/>
       <use x="63.623047" xlink:href="#DejaVuSans-37"/>
       <use x="127.246094" xlink:href="#DejaVuSans-35"/>
       <use x="190.869141" xlink:href="#DejaVuSans-30"/>
      </g>
     </g>
    </g>
    <g id="xtick_9">
     <g id="line2d_17">
      <path clip-path="url(#p3d75b4d874)" d="M 398.496452 231.052 
L 398.496452 34.848 
" style="fill:none;stroke:#999999;stroke-linecap:round;stroke-width:1.3;"/>
     </g>
     <g id="line2d_18"/>
     <g id="text_9">
      <!-- 2000 -->
      <g style="fill:#262626;" transform="translate(381.953952 250.029969)scale(0.13 -0.13)">
       <use xlink:href="#DejaVuSans-32"/>
       <use x="63.623047" xlink:href="#DejaVuSans-30"/>
       <use x="127.246094" xlink:href="#DejaVuSans-30"/>
       <use x="190.869141" xlink:href="#DejaVuSans-30"/>
      </g>
     </g>
    </g>
    <g id="text_10">
     <!-- Flops/N -->
     <defs>
      <path d="M 9.8125 72.90625 
L 51.703125 72.90625 
L 51.703125 64.59375 
L 19.671875 64.59375 
L 19.671875 43.109375 
L 48.578125 43.109375 
L 48.578125 34.8125 
L 19.671875 34.8125 
L 19.671875 0 
L 9.8125 0 
z
" id="DejaVuSans-46"/>
      <path d="M 9.421875 75.984375 
L 18.40625 75.984375 
L 18.40625 0 
L 9.421875 0 
z
" id="DejaVuSans-6c"/>
      <path d="M 30.609375 48.390625 
Q 23.390625 48.390625 19.1875 42.75 
Q 14.984375 37.109375 14.984375 27.296875 
Q 14.984375 17.484375 19.15625 11.84375 
Q 23.34375 6.203125 30.609375 6.203125 
Q 37.796875 6.203125 41.984375 11.859375 
Q 46.1875 17.53125 46.1875 27.296875 
Q 46.1875 37.015625 41.984375 42.703125 
Q 37.796875 48.390625 30.609375 48.390625 
z
M 30.609375 56 
Q 42.328125 56 49.015625 48.375 
Q 55.71875 40.765625 55.71875 27.296875 
Q 55.71875 13.875 49.015625 6.21875 
Q 42.328125 -1.421875 30.609375 -1.421875 
Q 18.84375 -1.421875 12.171875 6.21875 
Q 5.515625 13.875 5.515625 27.296875 
Q 5.515625 40.765625 12.171875 48.375 
Q 18.84375 56 30.609375 56 
z
" id="DejaVuSans-6f"/>
      <path d="M 18.109375 8.203125 
L 18.109375 -20.796875 
L 9.078125 -20.796875 
L 9.078125 54.6875 
L 18.109375 54.6875 
L 18.109375 46.390625 
Q 20.953125 51.265625 25.265625 53.625 
Q 29.59375 56 35.59375 56 
Q 45.5625 56 51.78125 48.09375 
Q 58.015625 40.1875 58.015625 27.296875 
Q 58.015625 14.40625 51.78125 6.484375 
Q 45.5625 -1.421875 35.59375 -1.421875 
Q 29.59375 -1.421875 25.265625 0.953125 
Q 20.953125 3.328125 18.109375 8.203125 
z
M 48.6875 27.296875 
Q 48.6875 37.203125 44.609375 42.84375 
Q 40.53125 48.484375 33.40625 48.484375 
Q 26.265625 48.484375 22.1875 42.84375 
Q 18.109375 37.203125 18.109375 27.296875 
Q 18.109375 17.390625 22.1875 11.75 
Q 26.265625 6.109375 33.40625 6.109375 
Q 40.53125 6.109375 44.609375 11.75 
Q 48.6875 17.390625 48.6875 27.296875 
z
" id="DejaVuSans-70"/>
      <path d="M 44.28125 53.078125 
L 44.28125 44.578125 
Q 40.484375 46.53125 36.375 47.5 
Q 32.28125 48.484375 27.875 48.484375 
Q 21.1875 48.484375 17.84375 46.4375 
Q 14.5 44.390625 14.5 40.28125 
Q 14.5 37.15625 16.890625 35.375 
Q 19.28125 33.59375 26.515625 31.984375 
L 29.59375 31.296875 
Q 39.15625 29.25 43.1875 25.515625 
Q 47.21875 21.78125 47.21875 15.09375 
Q 47.21875 7.46875 41.1875 3.015625 
Q 35.15625 -1.421875 24.609375 -1.421875 
Q 20.21875 -1.421875 15.453125 -0.5625 
Q 10.6875 0.296875 5.421875 2 
L 5.421875 11.28125 
Q 10.40625 8.6875 15.234375 7.390625 
Q 20.0625 6.109375 24.8125 6.109375 
Q 31.15625 6.109375 34.5625 8.28125 
Q 37.984375 10.453125 37.984375 14.40625 
Q 37.984375 18.0625 35.515625 20.015625 
Q 33.0625 21.96875 24.703125 23.78125 
L 21.578125 24.515625 
Q 13.234375 26.265625 9.515625 29.90625 
Q 5.8125 33.546875 5.8125 39.890625 
Q 5.8125 47.609375 11.28125 51.796875 
Q 16.75 56 26.8125 56 
Q 31.78125 56 36.171875 55.265625 
Q 40.578125 54.546875 44.28125 53.078125 
z
" id="DejaVuSans-73"/>
      <path d="M 25.390625 72.90625 
L 33.6875 72.90625 
L 8.296875 -9.28125 
L 0 -9.28125 
z
" id="DejaVuSans-2f"/>
      <path d="M 9.8125 72.90625 
L 23.09375 72.90625 
L 55.421875 11.921875 
L 55.421875 72.90625 
L 64.984375 72.90625 
L 64.984375 0 
L 51.703125 0 
L 19.390625 60.984375 
L 19.390625 0 
L 9.8125 0 
z
" id="DejaVuSans-4e"/>
     </defs>
     <g style="fill:#262626;" transform="translate(195.157663 267.599328)scale(0.143 -0.143)">
      <use xlink:href="#DejaVuSans-46"/>
      <use x="57.519531" xlink:href="#DejaVuSans-6c"/>
      <use x="85.302734" xlink:href="#DejaVuSans-6f"/>
      <use x="146.484375" xlink:href="#DejaVuSans-70"/>
      <use x="209.960938" xlink:href="#DejaVuSans-73"/>
      <use x="262.060547" xlink:href="#DejaVuSans-2f"/>
      <use x="295.751953" xlink:href="#DejaVuSans-4e"/>
     </g>
    </g>
   </g>
   <g id="matplotlib.axis_2">
    <g id="text_11">
     <!-- $\|\| x_k - x^* \|\|^2$ -->
     <defs>
      <path d="M 21 76.421875 
L 21 -23.578125 
L 12.703125 -23.578125 
L 12.703125 76.421875 
z
" id="DejaVuSans-7c"/>
      <path d="M 60.015625 54.6875 
L 34.90625 27.875 
L 50.296875 0 
L 39.984375 0 
L 28.421875 21.6875 
L 8.296875 0 
L -2.59375 0 
L 24.3125 28.8125 
L 10.015625 54.6875 
L 20.3125 54.6875 
L 30.8125 34.90625 
L 49.125 54.6875 
z
" id="DejaVuSans-Oblique-78"/>
      <path d="M 18.3125 75.984375 
L 27.296875 75.984375 
L 18.703125 31.6875 
L 49.515625 54.6875 
L 61.1875 54.6875 
L 26.8125 28.515625 
L 51.90625 0 
L 41.015625 0 
L 17.671875 26.703125 
L 12.5 0 
L 3.515625 0 
z
" id="DejaVuSans-Oblique-6b"/>
      <path d="M 10.59375 35.5 
L 73.1875 35.5 
L 73.1875 27.203125 
L 10.59375 27.203125 
z
" id="DejaVuSans-2212"/>
      <path d="M 47.015625 60.890625 
L 29.5 51.421875 
L 47.015625 41.890625 
L 44.1875 37.109375 
L 27.78125 47.015625 
L 27.78125 28.609375 
L 22.21875 28.609375 
L 22.21875 47.015625 
L 5.8125 37.109375 
L 2.984375 41.890625 
L 20.515625 51.421875 
L 2.984375 60.890625 
L 5.8125 65.71875 
L 22.21875 55.8125 
L 22.21875 74.21875 
L 27.78125 74.21875 
L 27.78125 55.8125 
L 44.1875 65.71875 
z
" id="DejaVuSans-2a"/>
     </defs>
     <g style="fill:#262626;" transform="translate(35.016 171.3455)rotate(-90)scale(0.143 -0.143)">
      <use transform="translate(0 0.765625)" xlink:href="#DejaVuSans-7c"/>
      <use transform="translate(33.691406 0.765625)" xlink:href="#DejaVuSans-7c"/>
      <use transform="translate(67.382812 0.765625)" xlink:href="#DejaVuSans-Oblique-78"/>
      <use transform="translate(126.5625 -15.640625)scale(0.7)" xlink:href="#DejaVuSans-Oblique-6b"/>
      <use transform="translate(189.316406 0.765625)" xlink:href="#DejaVuSans-2212"/>
      <use transform="translate(292.587891 0.765625)" xlink:href="#DejaVuSans-Oblique-78"/>
      <use transform="translate(369.871419 39.046875)scale(0.7)" xlink:href="#DejaVuSans-2a"/>
      <use transform="translate(421.24349 0.765625)" xlink:href="#DejaVuSans-7c"/>
      <use transform="translate(454.934896 0.765625)" xlink:href="#DejaVuSans-7c"/>
      <use transform="translate(489.583333 39.046875)scale(0.7)" xlink:href="#DejaVuSans-32"/>
     </g>
    </g>
   </g>
   <g id="PolyCollection_1">
    <defs>
     <path d="M 58.739353 -238.737084 
L 58.739353 -238.737084 
L 64.854981 -238.737084 
L 70.970608 -239.36718 
L 77.086236 -239.993984 
L 83.201864 -240.387852 
L 89.317492 -241.139808 
L 95.43312 -241.529849 
L 101.548747 -241.956227 
L 107.664375 -242.10889 
L 113.780003 -242.608544 
L 119.895631 -242.951398 
L 126.011258 -243.24374 
L 132.126886 -243.869404 
L 138.242514 -244.233636 
L 144.358142 -243.669233 
L 150.47377 -243.823551 
L 156.589397 -243.986226 
L 162.705025 -243.654847 
L 168.820653 -243.605881 
L 174.936281 -243.671748 
L 181.051908 -243.735601 
L 187.167536 -244.061072 
L 193.283164 -243.956011 
L 199.398792 -243.961599 
L 205.51442 -243.775174 
L 211.630047 -242.886061 
L 217.745675 -243.505836 
L 223.861303 -243.001519 
L 229.976931 -242.498444 
L 236.092558 -242.606227 
L 242.208186 -242.988003 
L 248.323814 -243.529549 
L 254.439442 -241.666121 
L 260.55507 -242.650134 
L 266.670697 -241.95351 
L 272.786325 -240.360469 
L 278.901953 -240.70399 
L 285.017581 -240.932981 
L 291.133209 -239.98508 
L 297.248836 -239.658155 
L 303.364464 -238.340464 
L 309.480092 -238.996205 
L 315.59572 -238.944045 
L 321.711347 -237.466613 
L 327.826975 -237.245721 
L 333.942603 -237.21991 
L 340.058231 -236.811793 
L 346.173859 -235.705469 
L 352.289486 -235.613165 
L 358.405114 -234.276507 
L 364.520742 -234.294684 
L 370.63637 -234.328068 
L 376.751997 -233.633759 
L 382.867625 -231.886107 
L 382.867625 -184.377988 
L 382.867625 -184.377988 
L 376.751997 -184.881348 
L 370.63637 -186.522482 
L 364.520742 -186.481934 
L 358.405114 -189.143623 
L 352.289486 -190.948481 
L 346.173859 -191.872646 
L 340.058231 -193.126864 
L 333.942603 -194.356529 
L 327.826975 -195.088577 
L 321.711347 -197.312544 
L 315.59572 -199.176786 
L 309.480092 -199.606657 
L 303.364464 -202.180252 
L 297.248836 -203.176316 
L 291.133209 -204.23857 
L 285.017581 -205.29487 
L 278.901953 -205.939145 
L 272.786325 -207.939767 
L 266.670697 -209.16325 
L 260.55507 -209.998952 
L 254.439442 -210.887327 
L 248.323814 -213.219721 
L 242.208186 -215.549819 
L 236.092558 -215.675314 
L 229.976931 -216.949775 
L 223.861303 -218.471332 
L 217.745675 -218.847487 
L 211.630047 -219.072752 
L 205.51442 -218.91106 
L 199.398792 -218.607558 
L 193.283164 -219.848506 
L 187.167536 -220.87272 
L 181.051908 -222.487243 
L 174.936281 -222.500226 
L 168.820653 -223.233903 
L 162.705025 -223.708335 
L 156.589397 -225.002137 
L 150.47377 -225.083409 
L 144.358142 -227.616427 
L 138.242514 -228.648877 
L 132.126886 -229.486583 
L 126.011258 -229.890693 
L 119.895631 -230.77473 
L 113.780003 -232.057008 
L 107.664375 -232.931207 
L 101.548747 -233.842805 
L 95.43312 -235.193244 
L 89.317492 -235.818593 
L 83.201864 -236.523999 
L 77.086236 -237.484155 
L 70.970608 -237.971977 
L 64.854981 -238.737084 
L 58.739353 -238.737084 
z
" id="m90d6a5ffac" style="stroke:#1f77b4;stroke-opacity:0.2;stroke-width:0.39;"/>
    </defs>
    <g clip-path="url(#p3d75b4d874)">
     <use style="fill:#1f77b4;fill-opacity:0.2;stroke:#1f77b4;stroke-opacity:0.2;stroke-width:0.39;" x="0" xlink:href="#m90d6a5ffac" y="288"/>
    </g>
   </g>
   <g id="PolyCollection_2">
    <defs>
     <path d="M 330.545032 -238.737084 
L 330.545032 -238.737084 
L 331.564303 -239.42314 
L 332.583575 -238.936025 
L 333.602846 -238.331291 
L 334.622117 -237.312855 
L 335.641388 -236.072589 
L 336.66066 -234.819064 
L 337.679931 -233.788559 
L 338.699202 -231.600859 
L 339.718474 -230.375703 
L 340.737745 -228.767461 
L 341.757016 -226.776882 
L 342.776288 -225.455508 
L 343.795559 -224.927386 
L 344.81483 -222.963926 
L 345.834101 -220.134865 
L 346.853373 -219.164932 
L 347.872644 -217.131438 
L 348.891915 -216.411456 
L 349.911187 -214.984207 
L 350.930458 -213.901067 
L 351.949729 -212.68355 
L 352.969 -210.644958 
L 353.988272 -208.004395 
L 355.007543 -207.660385 
L 356.026814 -205.04587 
L 357.046086 -203.632906 
L 358.065357 -202.823936 
L 359.084628 -199.069443 
L 360.1039 -198.444768 
L 361.123171 -195.300397 
L 362.142442 -193.104043 
L 363.161713 -190.626787 
L 364.180985 -188.403829 
L 365.200256 -187.395114 
L 366.219527 -184.528477 
L 367.238799 -182.386928 
L 368.25807 -181.155203 
L 369.277341 -180.006469 
L 370.296613 -176.160022 
L 371.315884 -174.594351 
L 372.335155 -172.439448 
L 373.354426 -171.005089 
L 374.373698 -169.611019 
L 375.392969 -163.934742 
L 376.41224 -163.582228 
L 377.431512 -162.634514 
L 378.450783 -161.412764 
L 379.470054 -158.078637 
L 380.489326 -155.912995 
L 381.508597 -155.286302 
L 382.527868 -154.121396 
L 383.547139 -152.438986 
L 384.566411 -151.825582 
L 384.566411 -65.866364 
L 384.566411 -65.866364 
L 383.547139 -70.062609 
L 382.527868 -71.89713 
L 381.508597 -73.470147 
L 380.489326 -78.554257 
L 379.470054 -79.520218 
L 378.450783 -82.85526 
L 377.431512 -84.759814 
L 376.41224 -87.933002 
L 375.392969 -89.748238 
L 374.373698 -94.905024 
L 373.354426 -98.296953 
L 372.335155 -102.43793 
L 371.315884 -102.953151 
L 370.296613 -106.511785 
L 369.277341 -109.288467 
L 368.25807 -113.272011 
L 367.238799 -114.064309 
L 366.219527 -119.779193 
L 365.200256 -121.340589 
L 364.180985 -123.724992 
L 363.161713 -126.890154 
L 362.142442 -130.523397 
L 361.123171 -132.748723 
L 360.1039 -135.50058 
L 359.084628 -137.872151 
L 358.065357 -140.867365 
L 357.046086 -141.154664 
L 356.026814 -144.235038 
L 355.007543 -148.446599 
L 353.988272 -153.366218 
L 352.969 -156.247029 
L 351.949729 -158.973404 
L 350.930458 -162.374346 
L 349.911187 -166.840194 
L 348.891915 -168.202499 
L 347.872644 -170.588913 
L 346.853373 -174.247158 
L 345.834101 -181.330296 
L 344.81483 -183.223348 
L 343.795559 -186.698183 
L 342.776288 -189.25789 
L 341.757016 -190.404496 
L 340.737745 -195.708185 
L 339.718474 -199.515941 
L 338.699202 -202.185678 
L 337.679931 -206.65318 
L 336.66066 -209.231909 
L 335.641388 -211.195473 
L 334.622117 -215.359678 
L 333.602846 -220.523064 
L 332.583575 -224.641363 
L 331.564303 -229.647934 
L 330.545032 -238.737084 
z
" id="m6293694045" style="stroke:#ff7f0e;stroke-opacity:0.2;stroke-width:0.39;"/>
    </defs>
    <g clip-path="url(#p3d75b4d874)">
     <use style="fill:#ff7f0e;fill-opacity:0.2;stroke:#ff7f0e;stroke-opacity:0.2;stroke-width:0.39;" x="0" xlink:href="#m6293694045" y="288"/>
    </g>
   </g>
   <g id="line2d_19">
    <path clip-path="url(#p3d75b4d874)" d="M 58.739353 49.262916 
L 64.854981 49.262916 
L 70.970608 49.265672 
L 77.086236 49.282363 
L 83.201864 49.327866 
L 89.317492 49.360384 
L 95.43312 49.517717 
L 101.548747 49.614076 
L 107.664375 49.98658 
L 113.780003 50.117826 
L 119.895631 50.433435 
L 126.011258 50.596209 
L 132.126886 50.789011 
L 138.242514 50.774632 
L 144.358142 51.02159 
L 150.47377 51.404886 
L 156.589397 51.922802 
L 162.705025 52.173783 
L 168.820653 52.692316 
L 174.936281 52.97126 
L 181.051908 53.683476 
L 187.167536 53.468591 
L 193.283164 54.246204 
L 199.398792 54.857567 
L 205.51442 55.658268 
L 211.630047 56.258588 
L 217.745675 56.807791 
L 223.861303 57.534797 
L 229.976931 57.981289 
L 236.092558 58.571814 
L 242.208186 59.210295 
L 248.323814 59.772286 
L 254.439442 60.124454 
L 260.55507 60.340404 
L 266.670697 61.56432 
L 272.786325 62.353978 
L 278.901953 62.840491 
L 285.017581 63.942846 
L 291.133209 64.625043 
L 297.248836 65.488887 
L 303.364464 66.316231 
L 309.480092 66.498405 
L 315.59572 67.367466 
L 321.711347 67.756378 
L 327.826975 69.661658 
L 333.942603 70.206571 
L 340.058231 70.838876 
L 346.173859 71.930006 
L 352.289486 72.811821 
L 358.405114 74.115984 
L 364.520742 74.252303 
L 370.63637 75.610836 
L 376.751997 76.546063 
L 382.867625 77.950795 
" style="fill:none;stroke:#1f77b4;stroke-linecap:round;stroke-width:2.275;"/>
   </g>
   <g id="line2d_20">
    <path clip-path="url(#p3d75b4d874)" d="M 330.545032 49.262916 
L 331.564303 50.391143 
L 332.583575 52.634154 
L 333.602846 55.395482 
L 334.622117 58.248452 
L 335.641388 60.8183 
L 336.66066 62.965289 
L 337.679931 65.484637 
L 338.699202 67.722632 
L 339.718474 69.569441 
L 340.737745 72.860584 
L 341.757016 75.137371 
L 342.776288 77.343063 
L 343.795559 80.177626 
L 344.81483 82.619074 
L 345.834101 84.604697 
L 346.853373 86.561144 
L 347.872644 90.110237 
L 348.891915 92.549683 
L 349.911187 96.167018 
L 350.930458 98.397205 
L 351.949729 99.861576 
L 352.969 101.993725 
L 353.988272 104.559737 
L 355.007543 107.221484 
L 356.026814 109.485634 
L 357.046086 111.878816 
L 358.065357 114.50441 
L 359.084628 117.292393 
L 360.1039 119.577769 
L 361.123171 121.642461 
L 362.142442 123.7001 
L 363.161713 125.709772 
L 364.180985 128.18209 
L 365.200256 130.977217 
L 366.219527 133.402957 
L 367.238799 137.263583 
L 368.25807 139.057806 
L 369.277341 141.832889 
L 370.296613 144.265798 
L 371.315884 146.889832 
L 372.335155 148.312239 
L 373.354426 151.57006 
L 374.373698 153.655238 
L 375.392969 156.372844 
L 376.41224 158.753513 
L 377.431512 160.682043 
L 378.450783 163.106201 
L 379.470054 165.849742 
L 380.489326 167.642541 
L 381.508597 169.590293 
L 382.527868 174.021611 
L 383.547139 176.21768 
L 384.566411 177.986346 
" style="fill:none;stroke:#ff7f0e;stroke-linecap:round;stroke-width:2.275;"/>
   </g>
   <g id="patch_3">
    <path d="M 42.448 231.052 
L 42.448 34.848 
" style="fill:none;stroke:#999999;stroke-linecap:square;stroke-linejoin:miter;"/>
   </g>
   <g id="patch_4">
    <path d="M 400.857764 231.052 
L 400.857764 34.848 
" style="fill:none;stroke:#999999;stroke-linecap:square;stroke-linejoin:miter;"/>
   </g>
   <g id="patch_5">
    <path d="M 42.448 231.052 
L 400.857764 231.052 
" style="fill:none;stroke:#999999;stroke-linecap:square;stroke-linejoin:miter;"/>
   </g>
   <g id="patch_6">
    <path d="M 42.448 34.848 
L 400.857764 34.848 
" style="fill:none;stroke:#999999;stroke-linecap:square;stroke-linejoin:miter;"/>
   </g>
   <g id="text_12">
    <!-- Error vs Flops (Inconsistent Gaussian) -->
    <defs>
     <path d="M 9.8125 72.90625 
L 55.90625 72.90625 
L 55.90625 64.59375 
L 19.671875 64.59375 
L 19.671875 43.015625 
L 54.390625 43.015625 
L 54.390625 34.71875 
L 19.671875 34.71875 
L 19.671875 8.296875 
L 56.78125 8.296875 
L 56.78125 0 
L 9.8125 0 
z
" id="DejaVuSans-45"/>
     <path d="M 41.109375 46.296875 
Q 39.59375 47.171875 37.8125 47.578125 
Q 36.03125 48 33.890625 48 
Q 26.265625 48 22.1875 43.046875 
Q 18.109375 38.09375 18.109375 28.8125 
L 18.109375 0 
L 9.078125 0 
L 9.078125 54.6875 
L 18.109375 54.6875 
L 18.109375 46.1875 
Q 20.953125 51.171875 25.484375 53.578125 
Q 30.03125 56 36.53125 56 
Q 37.453125 56 38.578125 55.875 
Q 39.703125 55.765625 41.0625 55.515625 
z
" id="DejaVuSans-72"/>
     <path id="DejaVuSans-20"/>
     <path d="M 2.984375 54.6875 
L 12.5 54.6875 
L 29.59375 8.796875 
L 46.6875 54.6875 
L 56.203125 54.6875 
L 35.6875 0 
L 23.484375 0 
z
" id="DejaVuSans-76"/>
     <path d="M 31 75.875 
Q 24.46875 64.65625 21.28125 53.65625 
Q 18.109375 42.671875 18.109375 31.390625 
Q 18.109375 20.125 21.3125 9.0625 
Q 24.515625 -2 31 -13.1875 
L 23.1875 -13.1875 
Q 15.875 -1.703125 12.234375 9.375 
Q 8.59375 20.453125 8.59375 31.390625 
Q 8.59375 42.28125 12.203125 53.3125 
Q 15.828125 64.359375 23.1875 75.875 
z
" id="DejaVuSans-28"/>
     <path d="M 9.8125 72.90625 
L 19.671875 72.90625 
L 19.671875 0 
L 9.8125 0 
z
" id="DejaVuSans-49"/>
     <path d="M 54.890625 33.015625 
L 54.890625 0 
L 45.90625 0 
L 45.90625 32.71875 
Q 45.90625 40.484375 42.875 44.328125 
Q 39.84375 48.1875 33.796875 48.1875 
Q 26.515625 48.1875 22.3125 43.546875 
Q 18.109375 38.921875 18.109375 30.90625 
L 18.109375 0 
L 9.078125 0 
L 9.078125 54.6875 
L 18.109375 54.6875 
L 18.109375 46.1875 
Q 21.34375 51.125 25.703125 53.5625 
Q 30.078125 56 35.796875 56 
Q 45.21875 56 50.046875 50.171875 
Q 54.890625 44.34375 54.890625 33.015625 
z
" id="DejaVuSans-6e"/>
     <path d="M 48.78125 52.59375 
L 48.78125 44.1875 
Q 44.96875 46.296875 41.140625 47.34375 
Q 37.3125 48.390625 33.40625 48.390625 
Q 24.65625 48.390625 19.8125 42.84375 
Q 14.984375 37.3125 14.984375 27.296875 
Q 14.984375 17.28125 19.8125 11.734375 
Q 24.65625 6.203125 33.40625 6.203125 
Q 37.3125 6.203125 41.140625 7.25 
Q 44.96875 8.296875 48.78125 10.40625 
L 48.78125 2.09375 
Q 45.015625 0.34375 40.984375 -0.53125 
Q 36.96875 -1.421875 32.421875 -1.421875 
Q 20.0625 -1.421875 12.78125 6.34375 
Q 5.515625 14.109375 5.515625 27.296875 
Q 5.515625 40.671875 12.859375 48.328125 
Q 20.21875 56 33.015625 56 
Q 37.15625 56 41.109375 55.140625 
Q 45.0625 54.296875 48.78125 52.59375 
z
" id="DejaVuSans-63"/>
     <path d="M 9.421875 54.6875 
L 18.40625 54.6875 
L 18.40625 0 
L 9.421875 0 
z
M 9.421875 75.984375 
L 18.40625 75.984375 
L 18.40625 64.59375 
L 9.421875 64.59375 
z
" id="DejaVuSans-69"/>
     <path d="M 18.3125 70.21875 
L 18.3125 54.6875 
L 36.8125 54.6875 
L 36.8125 47.703125 
L 18.3125 47.703125 
L 18.3125 18.015625 
Q 18.3125 11.328125 20.140625 9.421875 
Q 21.96875 7.515625 27.59375 7.515625 
L 36.8125 7.515625 
L 36.8125 0 
L 27.59375 0 
Q 17.1875 0 13.234375 3.875 
Q 9.28125 7.765625 9.28125 18.015625 
L 9.28125 47.703125 
L 2.6875 47.703125 
L 2.6875 54.6875 
L 9.28125 54.6875 
L 9.28125 70.21875 
z
" id="DejaVuSans-74"/>
     <path d="M 56.203125 29.59375 
L 56.203125 25.203125 
L 14.890625 25.203125 
Q 15.484375 15.921875 20.484375 11.0625 
Q 25.484375 6.203125 34.421875 6.203125 
Q 39.59375 6.203125 44.453125 7.46875 
Q 49.3125 8.734375 54.109375 11.28125 
L 54.109375 2.78125 
Q 49.265625 0.734375 44.1875 -0.34375 
Q 39.109375 -1.421875 33.890625 -1.421875 
Q 20.796875 -1.421875 13.15625 6.1875 
Q 5.515625 13.8125 5.515625 26.8125 
Q 5.515625 40.234375 12.765625 48.109375 
Q 20.015625 56 32.328125 56 
Q 43.359375 56 49.78125 48.890625 
Q 56.203125 41.796875 56.203125 29.59375 
z
M 47.21875 32.234375 
Q 47.125 39.59375 43.09375 43.984375 
Q 39.0625 48.390625 32.421875 48.390625 
Q 24.90625 48.390625 20.390625 44.140625 
Q 15.875 39.890625 15.1875 32.171875 
z
" id="DejaVuSans-65"/>
     <path d="M 59.515625 10.40625 
L 59.515625 29.984375 
L 43.40625 29.984375 
L 43.40625 38.09375 
L 69.28125 38.09375 
L 69.28125 6.78125 
Q 63.578125 2.734375 56.6875 0.65625 
Q 49.8125 -1.421875 42 -1.421875 
Q 24.90625 -1.421875 15.25 8.5625 
Q 5.609375 18.5625 5.609375 36.375 
Q 5.609375 54.25 15.25 64.234375 
Q 24.90625 74.21875 42 74.21875 
Q 49.125 74.21875 55.546875 72.453125 
Q 61.96875 70.703125 67.390625 67.28125 
L 67.390625 56.78125 
Q 61.921875 61.421875 55.765625 63.765625 
Q 49.609375 66.109375 42.828125 66.109375 
Q 29.4375 66.109375 22.71875 58.640625 
Q 16.015625 51.171875 16.015625 36.375 
Q 16.015625 21.625 22.71875 14.15625 
Q 29.4375 6.6875 42.828125 6.6875 
Q 48.046875 6.6875 52.140625 7.59375 
Q 56.25 8.5 59.515625 10.40625 
z
" id="DejaVuSans-47"/>
     <path d="M 34.28125 27.484375 
Q 23.390625 27.484375 19.1875 25 
Q 14.984375 22.515625 14.984375 16.5 
Q 14.984375 11.71875 18.140625 8.90625 
Q 21.296875 6.109375 26.703125 6.109375 
Q 34.1875 6.109375 38.703125 11.40625 
Q 43.21875 16.703125 43.21875 25.484375 
L 43.21875 27.484375 
z
M 52.203125 31.203125 
L 52.203125 0 
L 43.21875 0 
L 43.21875 8.296875 
Q 40.140625 3.328125 35.546875 0.953125 
Q 30.953125 -1.421875 24.3125 -1.421875 
Q 15.921875 -1.421875 10.953125 3.296875 
Q 6 8.015625 6 15.921875 
Q 6 25.140625 12.171875 29.828125 
Q 18.359375 34.515625 30.609375 34.515625 
L 43.21875 34.515625 
L 43.21875 35.40625 
Q 43.21875 41.609375 39.140625 45 
Q 35.0625 48.390625 27.6875 48.390625 
Q 23 48.390625 18.546875 47.265625 
Q 14.109375 46.140625 10.015625 43.890625 
L 10.015625 52.203125 
Q 14.9375 54.109375 19.578125 55.046875 
Q 24.21875 56 28.609375 56 
Q 40.484375 56 46.34375 49.84375 
Q 52.203125 43.703125 52.203125 31.203125 
z
" id="DejaVuSans-61"/>
     <path d="M 8.5 21.578125 
L 8.5 54.6875 
L 17.484375 54.6875 
L 17.484375 21.921875 
Q 17.484375 14.15625 20.5 10.265625 
Q 23.53125 6.390625 29.59375 6.390625 
Q 36.859375 6.390625 41.078125 11.03125 
Q 45.3125 15.671875 45.3125 23.6875 
L 45.3125 54.6875 
L 54.296875 54.6875 
L 54.296875 0 
L 45.3125 0 
L 45.3125 8.40625 
Q 42.046875 3.421875 37.71875 1 
Q 33.40625 -1.421875 27.6875 -1.421875 
Q 18.265625 -1.421875 13.375 4.4375 
Q 8.5 10.296875 8.5 21.578125 
z
M 31.109375 56 
z
" id="DejaVuSans-75"/>
     <path d="M 8.015625 75.875 
L 15.828125 75.875 
Q 23.140625 64.359375 26.78125 53.3125 
Q 30.421875 42.28125 30.421875 31.390625 
Q 30.421875 20.453125 26.78125 9.375 
Q 23.140625 -1.703125 15.828125 -13.1875 
L 8.015625 -13.1875 
Q 14.5 -2 17.703125 9.0625 
Q 20.90625 20.125 20.90625 31.390625 
Q 20.90625 42.671875 17.703125 53.65625 
Q 14.5 64.65625 8.015625 75.875 
z
" id="DejaVuSans-29"/>
    </defs>
    <g style="fill:#262626;" transform="translate(74.028132 28.848)scale(0.156 -0.156)">
     <use xlink:href="#DejaVuSans-45"/>
     <use x="63.183594" xlink:href="#DejaVuSans-72"/>
     <use x="104.28125" xlink:href="#DejaVuSans-72"/>
     <use x="145.363281" xlink:href="#DejaVuSans-6f"/>
     <use x="206.544922" xlink:href="#DejaVuSans-72"/>
     <use x="247.658203" xlink:href="#DejaVuSans-20"/>
     <use x="279.445312" xlink:href="#DejaVuSans-76"/>
     <use x="338.625" xlink:href="#DejaVuSans-73"/>
     <use x="390.724609" xlink:href="#DejaVuSans-20"/>
     <use x="422.511719" xlink:href="#DejaVuSans-46"/>
     <use x="480.03125" xlink:href="#DejaVuSans-6c"/>
     <use x="507.814453" xlink:href="#DejaVuSans-6f"/>
     <use x="568.996094" xlink:href="#DejaVuSans-70"/>
     <use x="632.472656" xlink:href="#DejaVuSans-73"/>
     <use x="684.572266" xlink:href="#DejaVuSans-20"/>
     <use x="716.359375" xlink:href="#DejaVuSans-28"/>
     <use x="755.373047" xlink:href="#DejaVuSans-49"/>
     <use x="784.865234" xlink:href="#DejaVuSans-6e"/>
     <use x="848.244141" xlink:href="#DejaVuSans-63"/>
     <use x="903.224609" xlink:href="#DejaVuSans-6f"/>
     <use x="964.40625" xlink:href="#DejaVuSans-6e"/>
     <use x="1027.785156" xlink:href="#DejaVuSans-73"/>
     <use x="1079.884766" xlink:href="#DejaVuSans-69"/>
     <use x="1107.667969" xlink:href="#DejaVuSans-73"/>
     <use x="1159.767578" xlink:href="#DejaVuSans-74"/>
     <use x="1198.976562" xlink:href="#DejaVuSans-65"/>
     <use x="1260.5" xlink:href="#DejaVuSans-6e"/>
     <use x="1323.878906" xlink:href="#DejaVuSans-74"/>
     <use x="1363.087891" xlink:href="#DejaVuSans-20"/>
     <use x="1394.875" xlink:href="#DejaVuSans-47"/>
     <use x="1472.365234" xlink:href="#DejaVuSans-61"/>
     <use x="1533.644531" xlink:href="#DejaVuSans-75"/>
     <use x="1597.023438" xlink:href="#DejaVuSans-73"/>
     <use x="1649.123047" xlink:href="#DejaVuSans-73"/>
     <use x="1701.222656" xlink:href="#DejaVuSans-69"/>
     <use x="1729.005859" xlink:href="#DejaVuSans-61"/>
     <use x="1790.285156" xlink:href="#DejaVuSans-6e"/>
     <use x="1853.664062" xlink:href="#DejaVuSans-29"/>
    </g>
   </g>
   <g id="legend_1">
    <g id="line2d_21">
     <path d="M 54.148 193.016844 
L 80.148 193.016844 
" style="fill:none;stroke:#1f77b4;stroke-linecap:round;stroke-width:2.275;"/>
    </g>
    <g id="line2d_22"/>
    <g id="text_13">
     <!-- REK -->
     <defs>
      <path d="M 44.390625 34.1875 
Q 47.5625 33.109375 50.5625 29.59375 
Q 53.5625 26.078125 56.59375 19.921875 
L 66.609375 0 
L 56 0 
L 46.6875 18.703125 
Q 43.0625 26.03125 39.671875 28.421875 
Q 36.28125 30.8125 30.421875 30.8125 
L 19.671875 30.8125 
L 19.671875 0 
L 9.8125 0 
L 9.8125 72.90625 
L 32.078125 72.90625 
Q 44.578125 72.90625 50.734375 67.671875 
Q 56.890625 62.453125 56.890625 51.90625 
Q 56.890625 45.015625 53.6875 40.46875 
Q 50.484375 35.9375 44.390625 34.1875 
z
M 19.671875 64.796875 
L 19.671875 38.921875 
L 32.078125 38.921875 
Q 39.203125 38.921875 42.84375 42.21875 
Q 46.484375 45.515625 46.484375 51.90625 
Q 46.484375 58.296875 42.84375 61.546875 
Q 39.203125 64.796875 32.078125 64.796875 
z
" id="DejaVuSans-52"/>
      <path d="M 9.8125 72.90625 
L 19.671875 72.90625 
L 19.671875 42.09375 
L 52.390625 72.90625 
L 65.09375 72.90625 
L 28.90625 38.921875 
L 67.671875 0 
L 54.6875 0 
L 19.671875 35.109375 
L 19.671875 0 
L 9.8125 0 
z
" id="DejaVuSans-4b"/>
     </defs>
     <g style="fill:#262626;" transform="translate(90.548 197.566844)scale(0.13 -0.13)">
      <use xlink:href="#DejaVuSans-52"/>
      <use x="69.482422" xlink:href="#DejaVuSans-45"/>
      <use x="132.666016" xlink:href="#DejaVuSans-4b"/>
     </g>
    </g>
    <g id="line2d_23">
     <path d="M 54.148 212.098406 
L 80.148 212.098406 
" style="fill:none;stroke:#ff7f0e;stroke-linecap:round;stroke-width:2.275;"/>
    </g>
    <g id="line2d_24"/>
    <g id="text_14">
     <!-- OptRK -->
     <defs>
      <path d="M 39.40625 66.21875 
Q 28.65625 66.21875 22.328125 58.203125 
Q 16.015625 50.203125 16.015625 36.375 
Q 16.015625 22.609375 22.328125 14.59375 
Q 28.65625 6.59375 39.40625 6.59375 
Q 50.140625 6.59375 56.421875 14.59375 
Q 62.703125 22.609375 62.703125 36.375 
Q 62.703125 50.203125 56.421875 58.203125 
Q 50.140625 66.21875 39.40625 66.21875 
z
M 39.40625 74.21875 
Q 54.734375 74.21875 63.90625 63.9375 
Q 73.09375 53.65625 73.09375 36.375 
Q 73.09375 19.140625 63.90625 8.859375 
Q 54.734375 -1.421875 39.40625 -1.421875 
Q 24.03125 -1.421875 14.8125 8.828125 
Q 5.609375 19.09375 5.609375 36.375 
Q 5.609375 53.65625 14.8125 63.9375 
Q 24.03125 74.21875 39.40625 74.21875 
z
" id="DejaVuSans-4f"/>
     </defs>
     <g style="fill:#262626;" transform="translate(90.548 216.648406)scale(0.13 -0.13)">
      <use xlink:href="#DejaVuSans-4f"/>
      <use x="78.710938" xlink:href="#DejaVuSans-70"/>
      <use x="142.1875" xlink:href="#DejaVuSans-74"/>
      <use x="181.396484" xlink:href="#DejaVuSans-52"/>
      <use x="250.878906" xlink:href="#DejaVuSans-4b"/>
     </g>
    </g>
   </g>
  </g>
 </g>
 <defs>
  <clipPath id="p3d75b4d874">
   <rect height="196.204" width="358.409764" x="42.448" y="34.848"/>
  </clipPath>
 </defs>
</svg>
