<?xml version="1.0" encoding="utf-8" standalone="no"?>
<!DOCTYPE svg PUBLIC "-//W3C//DTD SVG 1.1//EN"
  "http://www.w3.org/Graphics/SVG/1.1/DTD/svg11.dtd">
<!-- Created with matplotlib (http://matplotlib.org/) -->
<svg height="288pt" version="1.1" viewBox="0 0 432 288" width="432pt" xmlns="http://www.w3.org/2000/svg" xmlns:xlink="http://www.w3.org/1999/xlink">
 <defs>
  <style type="text/css">
*{stroke-linecap:butt;stroke-linejoin:round;}
  </style>
 </defs>
 <g id="figure_1">
  <g id="patch_1">
   <path d="M 0 288 
L 432 288 
L 432 0 
L 0 0 
z
" style="fill:none;"/>
  </g>
  <g id="axes_1">
   <g id="patch_2">
    <path d="M 101.366301 231.052 
L 408.429459 231.052 
L 408.429459 34.848 
L 101.366301 34.848 
z
" style="fill:none;"/>
   </g>
   <g id="matplotlib.axis_1">
    <g id="xtick_1">
     <g id="line2d_1">
      <path clip-path="url(#p6f4f05594f)" d="M 115.323717 231.052 
L 115.323717 34.848 
" style="fill:none;stroke:#999999;stroke-linecap:round;stroke-width:1.3;"/>
     </g>
     <g id="line2d_2"/>
     <g id="text_1">
      <!-- 0 -->
      <defs>
       <path d="M 31.78125 66.40625 
Q 24.171875 66.40625 20.328125 58.90625 
Q 16.5 51.421875 16.5 36.375 
Q 16.5 21.390625 20.328125 13.890625 
Q 24.171875 6.390625 31.78125 6.390625 
Q 39.453125 6.390625 43.28125 13.890625 
Q 47.125 21.390625 47.125 36.375 
Q 47.125 51.421875 43.28125 58.90625 
Q 39.453125 66.40625 31.78125 66.40625 
z
M 31.78125 74.21875 
Q 44.046875 74.21875 50.515625 64.515625 
Q 56.984375 54.828125 56.984375 36.375 
Q 56.984375 17.96875 50.515625 8.265625 
Q 44.046875 -1.421875 31.78125 -1.421875 
Q 19.53125 -1.421875 13.0625 8.265625 
Q 6.59375 17.96875 6.59375 36.375 
Q 6.59375 54.828125 13.0625 64.515625 
Q 19.53125 74.21875 31.78125 74.21875 
z
" id="DejaVuSans-30"/>
      </defs>
      <g style="fill:#262626;" transform="translate(111.188092 250.029969)scale(0.13 -0.13)">
       <use xlink:href="#DejaVuSans-30"/>
      </g>
     </g>
    </g>
    <g id="xtick_2">
     <g id="line2d_3">
      <path clip-path="url(#p6f4f05594f)" d="M 198.651576 231.052 
L 198.651576 34.848 
" style="fill:none;stroke:#999999;stroke-linecap:round;stroke-width:1.3;"/>
     </g>
     <g id="line2d_4"/>
     <g id="text_2">
      <!-- 20 -->
      <defs>
       <path d="M 19.1875 8.296875 
L 53.609375 8.296875 
L 53.609375 0 
L 7.328125 0 
L 7.328125 8.296875 
Q 12.9375 14.109375 22.625 23.890625 
Q 32.328125 33.6875 34.8125 36.53125 
Q 39.546875 41.84375 41.421875 45.53125 
Q 43.3125 49.21875 43.3125 52.78125 
Q 43.3125 58.59375 39.234375 62.25 
Q 35.15625 65.921875 28.609375 65.921875 
Q 23.96875 65.921875 18.8125 64.3125 
Q 13.671875 62.703125 7.8125 59.421875 
L 7.8125 69.390625 
Q 13.765625 71.78125 18.9375 73 
Q 24.125 74.21875 28.421875 74.21875 
Q 39.75 74.21875 46.484375 68.546875 
Q 53.21875 62.890625 53.21875 53.421875 
Q 53.21875 48.921875 51.53125 44.890625 
Q 49.859375 40.875 45.40625 35.40625 
Q 44.1875 33.984375 37.640625 27.21875 
Q 31.109375 20.453125 19.1875 8.296875 
z
" id="DejaVuSans-32"/>
      </defs>
      <g style="fill:#262626;" transform="translate(190.380326 250.029969)scale(0.13 -0.13)">
       <use xlink:href="#DejaVuSans-32"/>
       <use x="63.623047" xlink:href="#DejaVuSans-30"/>
      </g>
     </g>
    </g>
    <g id="xtick_3">
     <g id="line2d_5">
      <path clip-path="url(#p6f4f05594f)" d="M 281.979434 231.052 
L 281.979434 34.848 
" style="fill:none;stroke:#999999;stroke-linecap:round;stroke-width:1.3;"/>
     </g>
     <g id="line2d_6"/>
     <g id="text_3">
      <!-- 40 -->
      <defs>
       <path d="M 37.796875 64.3125 
L 12.890625 25.390625 
L 37.796875 25.390625 
z
M 35.203125 72.90625 
L 47.609375 72.90625 
L 47.609375 25.390625 
L 58.015625 25.390625 
L 58.015625 17.1875 
L 47.609375 17.1875 
L 47.609375 0 
L 37.796875 0 
L 37.796875 17.1875 
L 4.890625 17.1875 
L 4.890625 26.703125 
z
" id="DejaVuSans-34"/>
      </defs>
      <g style="fill:#262626;" transform="translate(273.708184 250.029969)scale(0.13 -0.13)">
       <use xlink:href="#DejaVuSans-34"/>
       <use x="63.623047" xlink:href="#DejaVuSans-30"/>
      </g>
     </g>
    </g>
    <g id="xtick_4">
     <g id="line2d_7">
      <path clip-path="url(#p6f4f05594f)" d="M 365.307293 231.052 
L 365.307293 34.848 
" style="fill:none;stroke:#999999;stroke-linecap:round;stroke-width:1.3;"/>
     </g>
     <g id="line2d_8"/>
     <g id="text_4">
      <!-- 60 -->
      <defs>
       <path d="M 33.015625 40.375 
Q 26.375 40.375 22.484375 35.828125 
Q 18.609375 31.296875 18.609375 23.390625 
Q 18.609375 15.53125 22.484375 10.953125 
Q 26.375 6.390625 33.015625 6.390625 
Q 39.65625 6.390625 43.53125 10.953125 
Q 47.40625 15.53125 47.40625 23.390625 
Q 47.40625 31.296875 43.53125 35.828125 
Q 39.65625 40.375 33.015625 40.375 
z
M 52.59375 71.296875 
L 52.59375 62.3125 
Q 48.875 64.0625 45.09375 64.984375 
Q 41.3125 65.921875 37.59375 65.921875 
Q 27.828125 65.921875 22.671875 59.328125 
Q 17.53125 52.734375 16.796875 39.40625 
Q 19.671875 43.65625 24.015625 45.921875 
Q 28.375 48.1875 33.59375 48.1875 
Q 44.578125 48.1875 50.953125 41.515625 
Q 57.328125 34.859375 57.328125 23.390625 
Q 57.328125 12.15625 50.6875 5.359375 
Q 44.046875 -1.421875 33.015625 -1.421875 
Q 20.359375 -1.421875 13.671875 8.265625 
Q 6.984375 17.96875 6.984375 36.375 
Q 6.984375 53.65625 15.1875 63.9375 
Q 23.390625 74.21875 37.203125 74.21875 
Q 40.921875 74.21875 44.703125 73.484375 
Q 48.484375 72.75 52.59375 71.296875 
z
" id="DejaVuSans-36"/>
      </defs>
      <g style="fill:#262626;" transform="translate(357.036043 250.029969)scale(0.13 -0.13)">
       <use xlink:href="#DejaVuSans-36"/>
       <use x="63.623047" xlink:href="#DejaVuSans-30"/>
      </g>
     </g>
    </g>
    <g id="text_5">
     <!-- Iteration -->
     <defs>
      <path d="M 9.8125 72.90625 
L 19.671875 72.90625 
L 19.671875 0 
L 9.8125 0 
z
" id="DejaVuSans-49"/>
      <path d="M 18.3125 70.21875 
L 18.3125 54.6875 
L 36.8125 54.6875 
L 36.8125 47.703125 
L 18.3125 47.703125 
L 18.3125 18.015625 
Q 18.3125 11.328125 20.140625 9.421875 
Q 21.96875 7.515625 27.59375 7.515625 
L 36.8125 7.515625 
L 36.8125 0 
L 27.59375 0 
Q 17.1875 0 13.234375 3.875 
Q 9.28125 7.765625 9.28125 18.015625 
L 9.28125 47.703125 
L 2.6875 47.703125 
L 2.6875 54.6875 
L 9.28125 54.6875 
L 9.28125 70.21875 
z
" id="DejaVuSans-74"/>
      <path d="M 56.203125 29.59375 
L 56.203125 25.203125 
L 14.890625 25.203125 
Q 15.484375 15.921875 20.484375 11.0625 
Q 25.484375 6.203125 34.421875 6.203125 
Q 39.59375 6.203125 44.453125 7.46875 
Q 49.3125 8.734375 54.109375 11.28125 
L 54.109375 2.78125 
Q 49.265625 0.734375 44.1875 -0.34375 
Q 39.109375 -1.421875 33.890625 -1.421875 
Q 20.796875 -1.421875 13.15625 6.1875 
Q 5.515625 13.8125 5.515625 26.8125 
Q 5.515625 40.234375 12.765625 48.109375 
Q 20.015625 56 32.328125 56 
Q 43.359375 56 49.78125 48.890625 
Q 56.203125 41.796875 56.203125 29.59375 
z
M 47.21875 32.234375 
Q 47.125 39.59375 43.09375 43.984375 
Q 39.0625 48.390625 32.421875 48.390625 
Q 24.90625 48.390625 20.390625 44.140625 
Q 15.875 39.890625 15.1875 32.171875 
z
" id="DejaVuSans-65"/>
      <path d="M 41.109375 46.296875 
Q 39.59375 47.171875 37.8125 47.578125 
Q 36.03125 48 33.890625 48 
Q 26.265625 48 22.1875 43.046875 
Q 18.109375 38.09375 18.109375 28.8125 
L 18.109375 0 
L 9.078125 0 
L 9.078125 54.6875 
L 18.109375 54.6875 
L 18.109375 46.1875 
Q 20.953125 51.171875 25.484375 53.578125 
Q 30.03125 56 36.53125 56 
Q 37.453125 56 38.578125 55.875 
Q 39.703125 55.765625 41.0625 55.515625 
z
" id="DejaVuSans-72"/>
      <path d="M 34.28125 27.484375 
Q 23.390625 27.484375 19.1875 25 
Q 14.984375 22.515625 14.984375 16.5 
Q 14.984375 11.71875 18.140625 8.90625 
Q 21.296875 6.109375 26.703125 6.109375 
Q 34.1875 6.109375 38.703125 11.40625 
Q 43.21875 16.703125 43.21875 25.484375 
L 43.21875 27.484375 
z
M 52.203125 31.203125 
L 52.203125 0 
L 43.21875 0 
L 43.21875 8.296875 
Q 40.140625 3.328125 35.546875 0.953125 
Q 30.953125 -1.421875 24.3125 -1.421875 
Q 15.921875 -1.421875 10.953125 3.296875 
Q 6 8.015625 6 15.921875 
Q 6 25.140625 12.171875 29.828125 
Q 18.359375 34.515625 30.609375 34.515625 
L 43.21875 34.515625 
L 43.21875 35.40625 
Q 43.21875 41.609375 39.140625 45 
Q 35.0625 48.390625 27.6875 48.390625 
Q 23 48.390625 18.546875 47.265625 
Q 14.109375 46.140625 10.015625 43.890625 
L 10.015625 52.203125 
Q 14.9375 54.109375 19.578125 55.046875 
Q 24.21875 56 28.609375 56 
Q 40.484375 56 46.34375 49.84375 
Q 52.203125 43.703125 52.203125 31.203125 
z
" id="DejaVuSans-61"/>
      <path d="M 9.421875 54.6875 
L 18.40625 54.6875 
L 18.40625 0 
L 9.421875 0 
z
M 9.421875 75.984375 
L 18.40625 75.984375 
L 18.40625 64.59375 
L 9.421875 64.59375 
z
" id="DejaVuSans-69"/>
      <path d="M 30.609375 48.390625 
Q 23.390625 48.390625 19.1875 42.75 
Q 14.984375 37.109375 14.984375 27.296875 
Q 14.984375 17.484375 19.15625 11.84375 
Q 23.34375 6.203125 30.609375 6.203125 
Q 37.796875 6.203125 41.984375 11.859375 
Q 46.1875 17.53125 46.1875 27.296875 
Q 46.1875 37.015625 41.984375 42.703125 
Q 37.796875 48.390625 30.609375 48.390625 
z
M 30.609375 56 
Q 42.328125 56 49.015625 48.375 
Q 55.71875 40.765625 55.71875 27.296875 
Q 55.71875 13.875 49.015625 6.21875 
Q 42.328125 -1.421875 30.609375 -1.421875 
Q 18.84375 -1.421875 12.171875 6.21875 
Q 5.515625 13.875 5.515625 27.296875 
Q 5.515625 40.765625 12.171875 48.375 
Q 18.84375 56 30.609375 56 
z
" id="DejaVuSans-6f"/>
      <path d="M 54.890625 33.015625 
L 54.890625 0 
L 45.90625 0 
L 45.90625 32.71875 
Q 45.90625 40.484375 42.875 44.328125 
Q 39.84375 48.1875 33.796875 48.1875 
Q 26.515625 48.1875 22.3125 43.546875 
Q 18.109375 38.921875 18.109375 30.90625 
L 18.109375 0 
L 9.078125 0 
L 9.078125 54.6875 
L 18.109375 54.6875 
L 18.109375 46.1875 
Q 21.34375 51.125 25.703125 53.5625 
Q 30.078125 56 35.796875 56 
Q 45.21875 56 50.046875 50.171875 
Q 54.890625 44.34375 54.890625 33.015625 
z
" id="DejaVuSans-6e"/>
     </defs>
     <g style="fill:#262626;" transform="translate(224.569591 267.599328)scale(0.143 -0.143)">
      <use xlink:href="#DejaVuSans-49"/>
      <use x="29.492188" xlink:href="#DejaVuSans-74"/>
      <use x="68.701172" xlink:href="#DejaVuSans-65"/>
      <use x="130.224609" xlink:href="#DejaVuSans-72"/>
      <use x="171.337891" xlink:href="#DejaVuSans-61"/>
      <use x="232.617188" xlink:href="#DejaVuSans-74"/>
      <use x="271.826172" xlink:href="#DejaVuSans-69"/>
      <use x="299.609375" xlink:href="#DejaVuSans-6f"/>
      <use x="360.791016" xlink:href="#DejaVuSans-6e"/>
     </g>
    </g>
   </g>
   <g id="matplotlib.axis_2">
    <g id="ytick_1">
     <g id="line2d_9"/>
     <g id="text_6">
      <!-- $\mathdefault{7\times10^{-7}}$ -->
      <defs>
       <path d="M 8.203125 72.90625 
L 55.078125 72.90625 
L 55.078125 68.703125 
L 28.609375 0 
L 18.3125 0 
L 43.21875 64.59375 
L 8.203125 64.59375 
z
" id="DejaVuSans-37"/>
       <path d="M 70.125 53.71875 
L 47.796875 31.296875 
L 70.125 8.984375 
L 64.3125 3.078125 
L 41.890625 25.484375 
L 19.484375 3.078125 
L 13.71875 8.984375 
L 35.984375 31.296875 
L 13.71875 53.71875 
L 19.484375 59.625 
L 41.890625 37.203125 
L 64.3125 59.625 
z
" id="DejaVuSans-d7"/>
       <path d="M 12.40625 8.296875 
L 28.515625 8.296875 
L 28.515625 63.921875 
L 10.984375 60.40625 
L 10.984375 69.390625 
L 28.421875 72.90625 
L 38.28125 72.90625 
L 38.28125 8.296875 
L 54.390625 8.296875 
L 54.390625 0 
L 12.40625 0 
z
" id="DejaVuSans-31"/>
       <path d="M 10.59375 35.5 
L 73.1875 35.5 
L 73.1875 27.203125 
L 10.59375 27.203125 
z
" id="DejaVuSans-2212"/>
      </defs>
      <g style="fill:#262626;" transform="translate(43.236301 136.154083)scale(0.13 -0.13)">
       <use transform="translate(0 0.684375)" xlink:href="#DejaVuSans-37"/>
       <use transform="translate(83.105469 0.684375)" xlink:href="#DejaVuSans-d7"/>
       <use transform="translate(186.376953 0.684375)" xlink:href="#DejaVuSans-31"/>
       <use transform="translate(250 0.684375)" xlink:href="#DejaVuSans-30"/>
       <use transform="translate(314.580078 38.965625)scale(0.7)" xlink:href="#DejaVuSans-2212"/>
       <use transform="translate(373.232422 38.965625)scale(0.7)" xlink:href="#DejaVuSans-37"/>
      </g>
     </g>
    </g>
    <g id="ytick_2">
     <g id="line2d_10"/>
     <g id="text_7">
      <!-- $\mathdefault{8\times10^{-7}}$ -->
      <defs>
       <path d="M 31.78125 34.625 
Q 24.75 34.625 20.71875 30.859375 
Q 16.703125 27.09375 16.703125 20.515625 
Q 16.703125 13.921875 20.71875 10.15625 
Q 24.75 6.390625 31.78125 6.390625 
Q 38.8125 6.390625 42.859375 10.171875 
Q 46.921875 13.96875 46.921875 20.515625 
Q 46.921875 27.09375 42.890625 30.859375 
Q 38.875 34.625 31.78125 34.625 
z
M 21.921875 38.8125 
Q 15.578125 40.375 12.03125 44.71875 
Q 8.5 49.078125 8.5 55.328125 
Q 8.5 64.0625 14.71875 69.140625 
Q 20.953125 74.21875 31.78125 74.21875 
Q 42.671875 74.21875 48.875 69.140625 
Q 55.078125 64.0625 55.078125 55.328125 
Q 55.078125 49.078125 51.53125 44.71875 
Q 48 40.375 41.703125 38.8125 
Q 48.828125 37.15625 52.796875 32.3125 
Q 56.78125 27.484375 56.78125 20.515625 
Q 56.78125 9.90625 50.3125 4.234375 
Q 43.84375 -1.421875 31.78125 -1.421875 
Q 19.734375 -1.421875 13.25 4.234375 
Q 6.78125 9.90625 6.78125 20.515625 
Q 6.78125 27.484375 10.78125 32.3125 
Q 14.796875 37.15625 21.921875 38.8125 
z
M 18.3125 54.390625 
Q 18.3125 48.734375 21.84375 45.5625 
Q 25.390625 42.390625 31.78125 42.390625 
Q 38.140625 42.390625 41.71875 45.5625 
Q 45.3125 48.734375 45.3125 54.390625 
Q 45.3125 60.0625 41.71875 63.234375 
Q 38.140625 66.40625 31.78125 66.40625 
Q 25.390625 66.40625 21.84375 63.234375 
Q 18.3125 60.0625 18.3125 54.390625 
z
" id="DejaVuSans-38"/>
      </defs>
      <g style="fill:#262626;" transform="translate(43.236301 41.629066)scale(0.13 -0.13)">
       <use transform="translate(0 0.684375)" xlink:href="#DejaVuSans-38"/>
       <use transform="translate(83.105469 0.684375)" xlink:href="#DejaVuSans-d7"/>
       <use transform="translate(186.376953 0.684375)" xlink:href="#DejaVuSans-31"/>
       <use transform="translate(250 0.684375)" xlink:href="#DejaVuSans-30"/>
       <use transform="translate(314.580078 38.965625)scale(0.7)" xlink:href="#DejaVuSans-2212"/>
       <use transform="translate(373.232422 38.965625)scale(0.7)" xlink:href="#DejaVuSans-37"/>
      </g>
     </g>
    </g>
    <g id="text_8">
     <!-- $\|\| x_k - x^* \|\|^2$ -->
     <defs>
      <path d="M 21 76.421875 
L 21 -23.578125 
L 12.703125 -23.578125 
L 12.703125 76.421875 
z
" id="DejaVuSans-7c"/>
      <path d="M 60.015625 54.6875 
L 34.90625 27.875 
L 50.296875 0 
L 39.984375 0 
L 28.421875 21.6875 
L 8.296875 0 
L -2.59375 0 
L 24.3125 28.8125 
L 10.015625 54.6875 
L 20.3125 54.6875 
L 30.8125 34.90625 
L 49.125 54.6875 
z
" id="DejaVuSans-Oblique-78"/>
      <path d="M 18.3125 75.984375 
L 27.296875 75.984375 
L 18.703125 31.6875 
L 49.515625 54.6875 
L 61.1875 54.6875 
L 26.8125 28.515625 
L 51.90625 0 
L 41.015625 0 
L 17.671875 26.703125 
L 12.5 0 
L 3.515625 0 
z
" id="DejaVuSans-Oblique-6b"/>
      <path d="M 47.015625 60.890625 
L 29.5 51.421875 
L 47.015625 41.890625 
L 44.1875 37.109375 
L 27.78125 47.015625 
L 27.78125 28.609375 
L 22.21875 28.609375 
L 22.21875 47.015625 
L 5.8125 37.109375 
L 2.984375 41.890625 
L 20.515625 51.421875 
L 2.984375 60.890625 
L 5.8125 65.71875 
L 22.21875 55.8125 
L 22.21875 74.21875 
L 27.78125 74.21875 
L 27.78125 55.8125 
L 44.1875 65.71875 
z
" id="DejaVuSans-2a"/>
     </defs>
     <g style="fill:#262626;" transform="translate(35.804301 171.3455)rotate(-90)scale(0.143 -0.143)">
      <use transform="translate(0 0.765625)" xlink:href="#DejaVuSans-7c"/>
      <use transform="translate(33.691406 0.765625)" xlink:href="#DejaVuSans-7c"/>
      <use transform="translate(67.382812 0.765625)" xlink:href="#DejaVuSans-Oblique-78"/>
      <use transform="translate(126.5625 -15.640625)scale(0.7)" xlink:href="#DejaVuSans-Oblique-6b"/>
      <use transform="translate(189.316406 0.765625)" xlink:href="#DejaVuSans-2212"/>
      <use transform="translate(292.587891 0.765625)" xlink:href="#DejaVuSans-Oblique-78"/>
      <use transform="translate(369.871419 39.046875)scale(0.7)" xlink:href="#DejaVuSans-2a"/>
      <use transform="translate(421.24349 0.765625)" xlink:href="#DejaVuSans-7c"/>
      <use transform="translate(454.934896 0.765625)" xlink:href="#DejaVuSans-7c"/>
      <use transform="translate(489.583333 39.046875)scale(0.7)" xlink:href="#DejaVuSans-32"/>
     </g>
    </g>
   </g>
   <g id="PolyCollection_1">
    <defs>
     <path d="M 115.323717 -237.391004 
L 115.323717 -237.391004 
L 119.49011 -237.391004 
L 123.656503 -238.167827 
L 127.822896 -238.777304 
L 131.989289 -239.577979 
L 136.155682 -239.920364 
L 140.322075 -240.386362 
L 144.488468 -240.827262 
L 148.65486 -241.298657 
L 152.821253 -241.579776 
L 156.987646 -242.11908 
L 161.154039 -242.306313 
L 165.320432 -241.88589 
L 169.486825 -241.86489 
L 173.653218 -242.021993 
L 177.819611 -242.206682 
L 181.986004 -242.717757 
L 186.152397 -243.668352 
L 190.31879 -244.233636 
L 194.485183 -243.300015 
L 198.651576 -243.071635 
L 202.817968 -242.996531 
L 206.984361 -243.380408 
L 211.150754 -242.897386 
L 215.317147 -243.434072 
L 219.48354 -244.027528 
L 223.649933 -242.805821 
L 227.816326 -244.094572 
L 231.982719 -243.097413 
L 236.149112 -241.635779 
L 240.315505 -242.541055 
L 244.481898 -243.245238 
L 248.648291 -241.264429 
L 252.814684 -241.582755 
L 256.981076 -241.382761 
L 261.147469 -240.873605 
L 265.313862 -240.508392 
L 269.480255 -239.129209 
L 273.646648 -239.963753 
L 277.813041 -238.921465 
L 281.979434 -238.180493 
L 286.145827 -239.103651 
L 290.31222 -236.492414 
L 294.478613 -237.070857 
L 298.645006 -236.539595 
L 302.811399 -237.373123 
L 306.977792 -238.431214 
L 311.144185 -236.797864 
L 315.310577 -236.929531 
L 319.47697 -235.550456 
L 323.643363 -235.271031 
L 327.809756 -233.917239 
L 331.976149 -233.982715 
L 336.142542 -233.393176 
L 340.308935 -232.194958 
L 344.475328 -231.480276 
L 348.641721 -229.603043 
L 352.808114 -230.29732 
L 356.974507 -230.027551 
L 361.1409 -227.50997 
L 365.307293 -227.184868 
L 369.473685 -226.640756 
L 373.640078 -226.405998 
L 377.806471 -225.292937 
L 381.972864 -225.236617 
L 386.139257 -225.175473 
L 390.30565 -223.057631 
L 394.472043 -222.783753 
L 394.472043 -160.009437 
L 394.472043 -160.009437 
L 390.30565 -159.984061 
L 386.139257 -164.388988 
L 381.972864 -165.819708 
L 377.806471 -166.331794 
L 373.640078 -171.168134 
L 369.473685 -172.067872 
L 365.307293 -171.306132 
L 361.1409 -174.013328 
L 356.974507 -173.894911 
L 352.808114 -175.249449 
L 348.641721 -176.337547 
L 344.475328 -178.668489 
L 340.308935 -180.212949 
L 336.142542 -181.539212 
L 331.976149 -183.467956 
L 327.809756 -184.129331 
L 323.643363 -185.001432 
L 319.47697 -187.197563 
L 315.310577 -187.643566 
L 311.144185 -190.659196 
L 306.977792 -193.110213 
L 302.811399 -191.852048 
L 298.645006 -194.167746 
L 294.478613 -195.36447 
L 290.31222 -196.314384 
L 286.145827 -196.542461 
L 281.979434 -197.025141 
L 277.813041 -199.155768 
L 273.646648 -200.246718 
L 269.480255 -202.192826 
L 265.313862 -202.705951 
L 261.147469 -204.361676 
L 256.981076 -204.044525 
L 252.814684 -205.133448 
L 248.648291 -207.022669 
L 244.481898 -207.965397 
L 240.315505 -208.815326 
L 236.149112 -211.594401 
L 231.982719 -212.726291 
L 227.816326 -213.974303 
L 223.649933 -214.772337 
L 219.48354 -214.93334 
L 215.317147 -215.422127 
L 211.150754 -216.520626 
L 206.984361 -218.310632 
L 202.817968 -221.277383 
L 198.651576 -222.076695 
L 194.485183 -221.914171 
L 190.31879 -221.430923 
L 186.152397 -222.45473 
L 181.986004 -223.931866 
L 177.819611 -224.0205 
L 173.653218 -225.674653 
L 169.486825 -226.107882 
L 165.320432 -227.625035 
L 161.154039 -228.635836 
L 156.987646 -229.699741 
L 152.821253 -230.38792 
L 148.65486 -231.605356 
L 144.488468 -232.515777 
L 140.322075 -233.625874 
L 136.155682 -234.103528 
L 131.989289 -234.722056 
L 127.822896 -235.847904 
L 123.656503 -236.251337 
L 119.49011 -237.391004 
L 115.323717 -237.391004 
z
" id="m7b3eed74b8" style="stroke:#1f77b4;stroke-opacity:0.2;stroke-width:0.39;"/>
    </defs>
    <g clip-path="url(#p6f4f05594f)">
     <use style="fill:#1f77b4;fill-opacity:0.2;stroke:#1f77b4;stroke-opacity:0.2;stroke-width:0.39;" x="0" xlink:href="#m7b3eed74b8" y="288"/>
    </g>
   </g>
   <g id="PolyCollection_2">
    <defs>
     <path d="M 115.323717 -237.391004 
L 115.323717 -237.391004 
L 119.49011 -239.221659 
L 123.656503 -239.089447 
L 127.822896 -239.093191 
L 131.989289 -239.036448 
L 136.155682 -238.460647 
L 140.322075 -237.438237 
L 144.488468 -237.048588 
L 148.65486 -235.53711 
L 152.821253 -235.69885 
L 156.987646 -235.485865 
L 161.154039 -234.65544 
L 165.320432 -232.596082 
L 169.486825 -230.617509 
L 173.653218 -229.199096 
L 177.819611 -228.997525 
L 181.986004 -227.712616 
L 186.152397 -226.797662 
L 190.31879 -223.55344 
L 194.485183 -221.568398 
L 198.651576 -220.765613 
L 202.817968 -219.740841 
L 206.984361 -220.952794 
L 211.150754 -217.400354 
L 215.317147 -216.597514 
L 219.48354 -215.140916 
L 223.649933 -213.365882 
L 227.816326 -212.73161 
L 231.982719 -211.971288 
L 236.149112 -210.695682 
L 240.315505 -212.27198 
L 244.481898 -209.707156 
L 248.648291 -209.392972 
L 252.814684 -206.81734 
L 256.981076 -202.125784 
L 261.147469 -200.891527 
L 265.313862 -199.455144 
L 269.480255 -200.446221 
L 273.646648 -197.372007 
L 277.813041 -197.310324 
L 281.979434 -197.233083 
L 286.145827 -194.965205 
L 290.31222 -193.0532 
L 294.478613 -192.717667 
L 298.645006 -188.272916 
L 302.811399 -187.485751 
L 306.977792 -186.605362 
L 311.144185 -184.513889 
L 315.310577 -181.566917 
L 319.47697 -180.806194 
L 323.643363 -180.31984 
L 327.809756 -177.982011 
L 331.976149 -176.817897 
L 336.142542 -174.178698 
L 340.308935 -173.91302 
L 344.475328 -170.590653 
L 348.641721 -170.238296 
L 352.808114 -170.52864 
L 356.974507 -170.124356 
L 361.1409 -167.650029 
L 365.307293 -167.672193 
L 369.473685 -162.921156 
L 373.640078 -162.851509 
L 377.806471 -163.005125 
L 381.972864 -159.830651 
L 386.139257 -159.723115 
L 390.30565 -159.261847 
L 394.472043 -159.883363 
L 394.472043 -65.866364 
L 394.472043 -65.866364 
L 390.30565 -68.061307 
L 386.139257 -70.143988 
L 381.972864 -71.402923 
L 377.806471 -72.212301 
L 373.640078 -76.301502 
L 369.473685 -78.114543 
L 365.307293 -79.199214 
L 361.1409 -80.654509 
L 356.974507 -82.835706 
L 352.808114 -83.79315 
L 348.641721 -85.759338 
L 344.475328 -87.125796 
L 340.308935 -88.590242 
L 336.142542 -89.134034 
L 331.976149 -90.868706 
L 327.809756 -91.605246 
L 323.643363 -92.729007 
L 319.47697 -93.919842 
L 315.310577 -98.754871 
L 311.144185 -102.538404 
L 306.977792 -102.538404 
L 302.811399 -103.891423 
L 298.645006 -108.237568 
L 294.478613 -110.718744 
L 290.31222 -114.291878 
L 286.145827 -116.634193 
L 281.979434 -116.773024 
L 277.813041 -117.592829 
L 273.646648 -118.72639 
L 269.480255 -121.163824 
L 265.313862 -122.720831 
L 261.147469 -127.911036 
L 256.981076 -128.770229 
L 252.814684 -128.82528 
L 248.648291 -133.457684 
L 244.481898 -133.403791 
L 240.315505 -137.077312 
L 236.149112 -140.202212 
L 231.982719 -145.022825 
L 227.816326 -146.283403 
L 223.649933 -149.764918 
L 219.48354 -152.901916 
L 215.317147 -152.731156 
L 211.150754 -156.063108 
L 206.984361 -158.814709 
L 202.817968 -164.371124 
L 198.651576 -165.323016 
L 194.485183 -167.367892 
L 190.31879 -170.672162 
L 186.152397 -171.221162 
L 181.986004 -174.447476 
L 177.819611 -178.320576 
L 173.653218 -180.28912 
L 169.486825 -182.424084 
L 165.320432 -184.9256 
L 161.154039 -188.410329 
L 156.987646 -191.732513 
L 152.821253 -196.916222 
L 148.65486 -203.023825 
L 144.488468 -206.302101 
L 140.322075 -208.812065 
L 136.155682 -210.853485 
L 131.989289 -215.388736 
L 127.822896 -218.560372 
L 123.656503 -221.494663 
L 119.49011 -226.200814 
L 115.323717 -237.391004 
z
" id="mcce81bd2c8" style="stroke:#ff7f0e;stroke-opacity:0.2;stroke-width:0.39;"/>
    </defs>
    <g clip-path="url(#p6f4f05594f)">
     <use style="fill:#ff7f0e;fill-opacity:0.2;stroke:#ff7f0e;stroke-opacity:0.2;stroke-width:0.39;" x="0" xlink:href="#mcce81bd2c8" y="288"/>
    </g>
   </g>
   <g id="line2d_11">
    <path clip-path="url(#p6f4f05594f)" d="M 115.323717 50.608996 
L 119.49011 50.608996 
L 123.656503 50.608749 
L 127.822896 50.630323 
L 131.989289 50.644373 
L 136.155682 50.745014 
L 140.322075 50.968895 
L 144.488468 50.943429 
L 148.65486 50.989642 
L 152.821253 51.189651 
L 156.987646 51.420727 
L 161.154039 51.622668 
L 165.320432 52.201704 
L 169.486825 52.24417 
L 173.653218 52.718273 
L 177.819611 53.416141 
L 181.986004 53.59259 
L 186.152397 54.051865 
L 190.31879 54.292311 
L 194.485183 54.333801 
L 198.651576 54.755655 
L 202.817968 54.901874 
L 206.984361 55.659047 
L 211.150754 56.113286 
L 215.317147 56.968821 
L 219.48354 57.644624 
L 223.649933 57.629226 
L 227.816326 57.901233 
L 231.982719 59.071262 
L 236.149112 59.375277 
L 240.315505 60.376519 
L 244.481898 61.16196 
L 248.648291 62.322489 
L 252.814684 62.108709 
L 256.981076 63.375087 
L 261.147469 63.840423 
L 265.313862 65.900069 
L 269.480255 66.407919 
L 273.646648 67.904634 
L 277.813041 68.370891 
L 281.979434 68.852053 
L 286.145827 69.756152 
L 290.31222 70.142484 
L 294.478613 72.182476 
L 298.645006 73.727873 
L 302.811399 74.100557 
L 306.977792 74.765504 
L 311.144185 75.727795 
L 315.310577 76.380249 
L 319.47697 76.353737 
L 323.643363 76.766489 
L 327.809756 78.310724 
L 331.976149 79.041869 
L 336.142542 79.330333 
L 340.308935 80.128237 
L 344.475328 80.62867 
L 348.641721 81.627296 
L 352.808114 82.720941 
L 356.974507 83.411742 
L 361.1409 84.300734 
L 365.307293 86.00455 
L 369.473685 86.704728 
L 373.640078 88.713513 
L 377.806471 89.093251 
L 381.972864 90.362033 
L 386.139257 91.406405 
L 390.30565 93.508167 
L 394.472043 94.34707 
" style="fill:none;stroke:#1f77b4;stroke-linecap:round;stroke-width:2.275;"/>
   </g>
   <g id="line2d_12">
    <path clip-path="url(#p6f4f05594f)" d="M 115.323717 50.608996 
L 119.49011 51.27584 
L 123.656503 53.713342 
L 127.822896 56.563432 
L 131.989289 58.284282 
L 136.155682 60.756869 
L 140.322075 63.005771 
L 144.488468 65.017236 
L 148.65486 67.144462 
L 152.821253 69.470186 
L 156.987646 71.083422 
L 161.154039 73.83433 
L 165.320432 75.935861 
L 169.486825 78.164253 
L 173.653218 80.404506 
L 177.819611 82.352933 
L 181.986004 83.785011 
L 186.152397 85.308949 
L 190.31879 87.690154 
L 194.485183 89.453199 
L 198.651576 91.634568 
L 202.817968 93.313041 
L 206.984361 94.968122 
L 211.150754 96.190764 
L 215.317147 98.888517 
L 219.48354 100.698119 
L 223.649933 103.050532 
L 227.816326 103.969602 
L 231.982719 105.593843 
L 236.149112 108.047891 
L 240.315505 110.42403 
L 244.481898 112.414671 
L 248.648291 113.744992 
L 252.814684 116.816042 
L 256.981076 118.854588 
L 261.147469 120.140331 
L 265.313862 122.843739 
L 269.480255 124.117345 
L 273.646648 125.645302 
L 277.813041 128.363057 
L 281.979434 129.753136 
L 286.145827 131.597453 
L 290.31222 134.405909 
L 294.478613 136.985601 
L 298.645006 139.130902 
L 302.811399 140.273715 
L 306.977792 141.428176 
L 311.144185 143.177934 
L 315.310577 144.935391 
L 319.47697 146.449115 
L 323.643363 147.761909 
L 327.809756 148.820416 
L 331.976149 150.243324 
L 336.142542 151.057024 
L 340.308935 152.308819 
L 344.475328 155.066696 
L 348.641721 158.285114 
L 352.808114 160.904157 
L 356.974507 162.253232 
L 361.1409 163.343444 
L 365.307293 166.327302 
L 369.473685 168.852338 
L 373.640078 170.756438 
L 377.806471 172.009536 
L 381.972864 173.867735 
L 386.139257 175.612622 
L 390.30565 177.499276 
L 394.472043 178.29669 
" style="fill:none;stroke:#ff7f0e;stroke-linecap:round;stroke-width:2.275;"/>
   </g>
   <g id="patch_3">
    <path d="M 101.366301 231.052 
L 101.366301 34.848 
" style="fill:none;stroke:#999999;stroke-linecap:square;stroke-linejoin:miter;"/>
   </g>
   <g id="patch_4">
    <path d="M 408.429459 231.052 
L 408.429459 34.848 
" style="fill:none;stroke:#999999;stroke-linecap:square;stroke-linejoin:miter;"/>
   </g>
   <g id="patch_5">
    <path d="M 101.366301 231.052 
L 408.429459 231.052 
" style="fill:none;stroke:#999999;stroke-linecap:square;stroke-linejoin:miter;"/>
   </g>
   <g id="patch_6">
    <path d="M 101.366301 34.848 
L 408.429459 34.848 
" style="fill:none;stroke:#999999;stroke-linecap:square;stroke-linejoin:miter;"/>
   </g>
   <g id="text_9">
    <!-- Error vs Iteration (Inconsistent Gaussian) -->
    <defs>
     <path d="M 9.8125 72.90625 
L 55.90625 72.90625 
L 55.90625 64.59375 
L 19.671875 64.59375 
L 19.671875 43.015625 
L 54.390625 43.015625 
L 54.390625 34.71875 
L 19.671875 34.71875 
L 19.671875 8.296875 
L 56.78125 8.296875 
L 56.78125 0 
L 9.8125 0 
z
" id="DejaVuSans-45"/>
     <path id="DejaVuSans-20"/>
     <path d="M 2.984375 54.6875 
L 12.5 54.6875 
L 29.59375 8.796875 
L 46.6875 54.6875 
L 56.203125 54.6875 
L 35.6875 0 
L 23.484375 0 
z
" id="DejaVuSans-76"/>
     <path d="M 44.28125 53.078125 
L 44.28125 44.578125 
Q 40.484375 46.53125 36.375 47.5 
Q 32.28125 48.484375 27.875 48.484375 
Q 21.1875 48.484375 17.84375 46.4375 
Q 14.5 44.390625 14.5 40.28125 
Q 14.5 37.15625 16.890625 35.375 
Q 19.28125 33.59375 26.515625 31.984375 
L 29.59375 31.296875 
Q 39.15625 29.25 43.1875 25.515625 
Q 47.21875 21.78125 47.21875 15.09375 
Q 47.21875 7.46875 41.1875 3.015625 
Q 35.15625 -1.421875 24.609375 -1.421875 
Q 20.21875 -1.421875 15.453125 -0.5625 
Q 10.6875 0.296875 5.421875 2 
L 5.421875 11.28125 
Q 10.40625 8.6875 15.234375 7.390625 
Q 20.0625 6.109375 24.8125 6.109375 
Q 31.15625 6.109375 34.5625 8.28125 
Q 37.984375 10.453125 37.984375 14.40625 
Q 37.984375 18.0625 35.515625 20.015625 
Q 33.0625 21.96875 24.703125 23.78125 
L 21.578125 24.515625 
Q 13.234375 26.265625 9.515625 29.90625 
Q 5.8125 33.546875 5.8125 39.890625 
Q 5.8125 47.609375 11.28125 51.796875 
Q 16.75 56 26.8125 56 
Q 31.78125 56 36.171875 55.265625 
Q 40.578125 54.546875 44.28125 53.078125 
z
" id="DejaVuSans-73"/>
     <path d="M 31 75.875 
Q 24.46875 64.65625 21.28125 53.65625 
Q 18.109375 42.671875 18.109375 31.390625 
Q 18.109375 20.125 21.3125 9.0625 
Q 24.515625 -2 31 -13.1875 
L 23.1875 -13.1875 
Q 15.875 -1.703125 12.234375 9.375 
Q 8.59375 20.453125 8.59375 31.390625 
Q 8.59375 42.28125 12.203125 53.3125 
Q 15.828125 64.359375 23.1875 75.875 
z
" id="DejaVuSans-28"/>
     <path d="M 48.78125 52.59375 
L 48.78125 44.1875 
Q 44.96875 46.296875 41.140625 47.34375 
Q 37.3125 48.390625 33.40625 48.390625 
Q 24.65625 48.390625 19.8125 42.84375 
Q 14.984375 37.3125 14.984375 27.296875 
Q 14.984375 17.28125 19.8125 11.734375 
Q 24.65625 6.203125 33.40625 6.203125 
Q 37.3125 6.203125 41.140625 7.25 
Q 44.96875 8.296875 48.78125 10.40625 
L 48.78125 2.09375 
Q 45.015625 0.34375 40.984375 -0.53125 
Q 36.96875 -1.421875 32.421875 -1.421875 
Q 20.0625 -1.421875 12.78125 6.34375 
Q 5.515625 14.109375 5.515625 27.296875 
Q 5.515625 40.671875 12.859375 48.328125 
Q 20.21875 56 33.015625 56 
Q 37.15625 56 41.109375 55.140625 
Q 45.0625 54.296875 48.78125 52.59375 
z
" id="DejaVuSans-63"/>
     <path d="M 59.515625 10.40625 
L 59.515625 29.984375 
L 43.40625 29.984375 
L 43.40625 38.09375 
L 69.28125 38.09375 
L 69.28125 6.78125 
Q 63.578125 2.734375 56.6875 0.65625 
Q 49.8125 -1.421875 42 -1.421875 
Q 24.90625 -1.421875 15.25 8.5625 
Q 5.609375 18.5625 5.609375 36.375 
Q 5.609375 54.25 15.25 64.234375 
Q 24.90625 74.21875 42 74.21875 
Q 49.125 74.21875 55.546875 72.453125 
Q 61.96875 70.703125 67.390625 67.28125 
L 67.390625 56.78125 
Q 61.921875 61.421875 55.765625 63.765625 
Q 49.609375 66.109375 42.828125 66.109375 
Q 29.4375 66.109375 22.71875 58.640625 
Q 16.015625 51.171875 16.015625 36.375 
Q 16.015625 21.625 22.71875 14.15625 
Q 29.4375 6.6875 42.828125 6.6875 
Q 48.046875 6.6875 52.140625 7.59375 
Q 56.25 8.5 59.515625 10.40625 
z
" id="DejaVuSans-47"/>
     <path d="M 8.5 21.578125 
L 8.5 54.6875 
L 17.484375 54.6875 
L 17.484375 21.921875 
Q 17.484375 14.15625 20.5 10.265625 
Q 23.53125 6.390625 29.59375 6.390625 
Q 36.859375 6.390625 41.078125 11.03125 
Q 45.3125 15.671875 45.3125 23.6875 
L 45.3125 54.6875 
L 54.296875 54.6875 
L 54.296875 0 
L 45.3125 0 
L 45.3125 8.40625 
Q 42.046875 3.421875 37.71875 1 
Q 33.40625 -1.421875 27.6875 -1.421875 
Q 18.265625 -1.421875 13.375 4.4375 
Q 8.5 10.296875 8.5 21.578125 
z
M 31.109375 56 
z
" id="DejaVuSans-75"/>
     <path d="M 8.015625 75.875 
L 15.828125 75.875 
Q 23.140625 64.359375 26.78125 53.3125 
Q 30.421875 42.28125 30.421875 31.390625 
Q 30.421875 20.453125 26.78125 9.375 
Q 23.140625 -1.703125 15.828125 -13.1875 
L 8.015625 -13.1875 
Q 14.5 -2 17.703125 9.0625 
Q 20.90625 20.125 20.90625 31.390625 
Q 20.90625 42.671875 17.703125 53.65625 
Q 14.5 64.65625 8.015625 75.875 
z
" id="DejaVuSans-29"/>
    </defs>
    <g style="fill:#262626;" transform="translate(94.628599 28.848)scale(0.156 -0.156)">
     <use xlink:href="#DejaVuSans-45"/>
     <use x="63.183594" xlink:href="#DejaVuSans-72"/>
     <use x="104.28125" xlink:href="#DejaVuSans-72"/>
     <use x="145.363281" xlink:href="#DejaVuSans-6f"/>
     <use x="206.544922" xlink:href="#DejaVuSans-72"/>
     <use x="247.658203" xlink:href="#DejaVuSans-20"/>
     <use x="279.445312" xlink:href="#DejaVuSans-76"/>
     <use x="338.625" xlink:href="#DejaVuSans-73"/>
     <use x="390.724609" xlink:href="#DejaVuSans-20"/>
     <use x="422.511719" xlink:href="#DejaVuSans-49"/>
     <use x="452.003906" xlink:href="#DejaVuSans-74"/>
     <use x="491.212891" xlink:href="#DejaVuSans-65"/>
     <use x="552.736328" xlink:href="#DejaVuSans-72"/>
     <use x="593.849609" xlink:href="#DejaVuSans-61"/>
     <use x="655.128906" xlink:href="#DejaVuSans-74"/>
     <use x="694.337891" xlink:href="#DejaVuSans-69"/>
     <use x="722.121094" xlink:href="#DejaVuSans-6f"/>
     <use x="783.302734" xlink:href="#DejaVuSans-6e"/>
     <use x="846.681641" xlink:href="#DejaVuSans-20"/>
     <use x="878.46875" xlink:href="#DejaVuSans-28"/>
     <use x="917.482422" xlink:href="#DejaVuSans-49"/>
     <use x="946.974609" xlink:href="#DejaVuSans-6e"/>
     <use x="1010.353516" xlink:href="#DejaVuSans-63"/>
     <use x="1065.333984" xlink:href="#DejaVuSans-6f"/>
     <use x="1126.515625" xlink:href="#DejaVuSans-6e"/>
     <use x="1189.894531" xlink:href="#DejaVuSans-73"/>
     <use x="1241.994141" xlink:href="#DejaVuSans-69"/>
     <use x="1269.777344" xlink:href="#DejaVuSans-73"/>
     <use x="1321.876953" xlink:href="#DejaVuSans-74"/>
     <use x="1361.085938" xlink:href="#DejaVuSans-65"/>
     <use x="1422.609375" xlink:href="#DejaVuSans-6e"/>
     <use x="1485.988281" xlink:href="#DejaVuSans-74"/>
     <use x="1525.197266" xlink:href="#DejaVuSans-20"/>
     <use x="1556.984375" xlink:href="#DejaVuSans-47"/>
     <use x="1634.474609" xlink:href="#DejaVuSans-61"/>
     <use x="1695.753906" xlink:href="#DejaVuSans-75"/>
     <use x="1759.132812" xlink:href="#DejaVuSans-73"/>
     <use x="1811.232422" xlink:href="#DejaVuSans-73"/>
     <use x="1863.332031" xlink:href="#DejaVuSans-69"/>
     <use x="1891.115234" xlink:href="#DejaVuSans-61"/>
     <use x="1952.394531" xlink:href="#DejaVuSans-6e"/>
     <use x="2015.773438" xlink:href="#DejaVuSans-29"/>
    </g>
   </g>
   <g id="legend_1">
    <g id="line2d_13">
     <path d="M 113.066301 193.016844 
L 139.066301 193.016844 
" style="fill:none;stroke:#1f77b4;stroke-linecap:round;stroke-width:2.275;"/>
    </g>
    <g id="line2d_14"/>
    <g id="text_10">
     <!-- REK -->
     <defs>
      <path d="M 44.390625 34.1875 
Q 47.5625 33.109375 50.5625 29.59375 
Q 53.5625 26.078125 56.59375 19.921875 
L 66.609375 0 
L 56 0 
L 46.6875 18.703125 
Q 43.0625 26.03125 39.671875 28.421875 
Q 36.28125 30.8125 30.421875 30.8125 
L 19.671875 30.8125 
L 19.671875 0 
L 9.8125 0 
L 9.8125 72.90625 
L 32.078125 72.90625 
Q 44.578125 72.90625 50.734375 67.671875 
Q 56.890625 62.453125 56.890625 51.90625 
Q 56.890625 45.015625 53.6875 40.46875 
Q 50.484375 35.9375 44.390625 34.1875 
z
M 19.671875 64.796875 
L 19.671875 38.921875 
L 32.078125 38.921875 
Q 39.203125 38.921875 42.84375 42.21875 
Q 46.484375 45.515625 46.484375 51.90625 
Q 46.484375 58.296875 42.84375 61.546875 
Q 39.203125 64.796875 32.078125 64.796875 
z
" id="DejaVuSans-52"/>
      <path d="M 9.8125 72.90625 
L 19.671875 72.90625 
L 19.671875 42.09375 
L 52.390625 72.90625 
L 65.09375 72.90625 
L 28.90625 38.921875 
L 67.671875 0 
L 54.6875 0 
L 19.671875 35.109375 
L 19.671875 0 
L 9.8125 0 
z
" id="DejaVuSans-4b"/>
     </defs>
     <g style="fill:#262626;" transform="translate(149.466301 197.566844)scale(0.13 -0.13)">
      <use xlink:href="#DejaVuSans-52"/>
      <use x="69.482422" xlink:href="#DejaVuSans-45"/>
      <use x="132.666016" xlink:href="#DejaVuSans-4b"/>
     </g>
    </g>
    <g id="line2d_15">
     <path d="M 113.066301 212.098406 
L 139.066301 212.098406 
" style="fill:none;stroke:#ff7f0e;stroke-linecap:round;stroke-width:2.275;"/>
    </g>
    <g id="line2d_16"/>
    <g id="text_11">
     <!-- OptRK -->
     <defs>
      <path d="M 39.40625 66.21875 
Q 28.65625 66.21875 22.328125 58.203125 
Q 16.015625 50.203125 16.015625 36.375 
Q 16.015625 22.609375 22.328125 14.59375 
Q 28.65625 6.59375 39.40625 6.59375 
Q 50.140625 6.59375 56.421875 14.59375 
Q 62.703125 22.609375 62.703125 36.375 
Q 62.703125 50.203125 56.421875 58.203125 
Q 50.140625 66.21875 39.40625 66.21875 
z
M 39.40625 74.21875 
Q 54.734375 74.21875 63.90625 63.9375 
Q 73.09375 53.65625 73.09375 36.375 
Q 73.09375 19.140625 63.90625 8.859375 
Q 54.734375 -1.421875 39.40625 -1.421875 
Q 24.03125 -1.421875 14.8125 8.828125 
Q 5.609375 19.09375 5.609375 36.375 
Q 5.609375 53.65625 14.8125 63.9375 
Q 24.03125 74.21875 39.40625 74.21875 
z
" id="DejaVuSans-4f"/>
      <path d="M 18.109375 8.203125 
L 18.109375 -20.796875 
L 9.078125 -20.796875 
L 9.078125 54.6875 
L 18.109375 54.6875 
L 18.109375 46.390625 
Q 20.953125 51.265625 25.265625 53.625 
Q 29.59375 56 35.59375 56 
Q 45.5625 56 51.78125 48.09375 
Q 58.015625 40.1875 58.015625 27.296875 
Q 58.015625 14.40625 51.78125 6.484375 
Q 45.5625 -1.421875 35.59375 -1.421875 
Q 29.59375 -1.421875 25.265625 0.953125 
Q 20.953125 3.328125 18.109375 8.203125 
z
M 48.6875 27.296875 
Q 48.6875 37.203125 44.609375 42.84375 
Q 40.53125 48.484375 33.40625 48.484375 
Q 26.265625 48.484375 22.1875 42.84375 
Q 18.109375 37.203125 18.109375 27.296875 
Q 18.109375 17.390625 22.1875 11.75 
Q 26.265625 6.109375 33.40625 6.109375 
Q 40.53125 6.109375 44.609375 11.75 
Q 48.6875 17.390625 48.6875 27.296875 
z
" id="DejaVuSans-70"/>
     </defs>
     <g style="fill:#262626;" transform="translate(149.466301 216.648406)scale(0.13 -0.13)">
      <use xlink:href="#DejaVuSans-4f"/>
      <use x="78.710938" xlink:href="#DejaVuSans-70"/>
      <use x="142.1875" xlink:href="#DejaVuSans-74"/>
      <use x="181.396484" xlink:href="#DejaVuSans-52"/>
      <use x="250.878906" xlink:href="#DejaVuSans-4b"/>
     </g>
    </g>
   </g>
  </g>
 </g>
 <defs>
  <clipPath id="p6f4f05594f">
   <rect height="196.204" width="307.063159" x="101.366301" y="34.848"/>
  </clipPath>
 </defs>
</svg>
